<svg xmlns="http://www.w3.org/2000/svg" xmlns:xlink="http://www.w3.org/1999/xlink" width="320" zoomAndPan="magnify" viewBox="0 0 240 149.999998" height="200" preserveAspectRatio="xMidYMid meet" version="1.0"><defs><g/></defs><g fill="#ffffff" fill-opacity="1"><g transform="translate(91.789917, 62.595608)"><g><path d="M 41.78125 -45.171875 C 41.53125 -44.921875 39.8125 -44.796875 39.4375 -44.734375 C 37.53125 -44.375 35.625 -44.125 33.765625 -43.875 C 30.078125 -43.390625 26.1875 -43.453125 22.5625 -42.828125 C 22.609375 -44.734375 19.40625 -47.828125 18 -45.484375 C 17.5625 -44.796875 17.4375 -43.875 17.1875 -43.140625 C 16.953125 -42.34375 16.953125 -42.453125 16.265625 -42.28125 C 15.78125 -42.09375 15.03125 -42.09375 14.546875 -42.09375 C 13.6875 -41.96875 12.875 -41.96875 12.015625 -41.90625 C 10.90625 -41.84375 9.671875 -41.90625 9.25 -40.671875 C 8.203125 -37.40625 13.25 -37.28125 15.15625 -37.40625 C 14.859375 -36.546875 14.609375 -35.6875 14.234375 -34.75 C 14.171875 -34.515625 13.4375 -32.296875 13.5625 -32.296875 L 13.921875 -32.78125 C 13.0625 -30.4375 11.578125 -27.921875 10.53125 -25.453125 C 9.921875 -23.96875 9.421875 -22.5625 8.9375 -21.078125 C 8.5625 -19.90625 8.5625 -19.78125 7.328125 -19.46875 L 5.484375 -19.171875 C 5.046875 -19.109375 4.5 -19.046875 4.125 -18.671875 C 2.53125 -16.953125 5.609375 -15.59375 7.03125 -15.65625 C 6.65625 -14.671875 2.46875 -3.828125 2.40625 -3.828125 C 2.40625 -3.765625 2.828125 -4.625 3.328125 -5.859375 L 1.359375 -0.859375 C 1.359375 -0.984375 1.421875 -1.109375 1.421875 -1.171875 C 1.171875 -1.171875 0.25 1.421875 0.4375 1.421875 L 0.671875 1.171875 C 0.375 1.90625 -0.125 2.15625 0 3.203125 C 0.1875 4.3125 0.921875 5.234375 1.84375 5.859375 C 2.65625 6.40625 4.375 7.390625 5.359375 7.09375 C 6.28125 6.78125 5.609375 6.84375 5.984375 6.40625 C 7.453125 4.75 7.765625 2.03125 8.5 -0.1875 C 8.6875 -0.796875 11.03125 -8.078125 10.96875 -8.140625 L 10.71875 -7.890625 C 10.90625 -8.375 11.09375 -9 11.34375 -9.546875 C 11.40625 -9.484375 11.15625 -9.0625 11.28125 -9.0625 C 11.640625 -9 13.0625 -13.25 13.1875 -13.5625 C 13.5 -14.484375 13.4375 -15.78125 13.859375 -16.640625 C 14.296875 -17.4375 14.90625 -17.375 15.78125 -17.4375 C 16.578125 -17.5 17.125 -17.8125 17.625 -18.0625 C 18.359375 -18.359375 19.28125 -18.234375 20.03125 -18.421875 C 21.015625 -18.671875 21.9375 -18.796875 22.921875 -19.046875 C 23.96875 -19.234375 24.34375 -19.65625 25.078125 -19.84375 C 25.875 -20.03125 28.09375 -19.90625 28.34375 -21.015625 C 28.59375 -22.1875 27.671875 -21.453125 27.546875 -21.453125 C 25.578125 -21.328125 23.609375 -21.625 21.625 -21.453125 C 19.53125 -21.328125 17.5 -21.140625 15.40625 -20.953125 C 15.40625 -21.015625 15.65625 -22.3125 15.34375 -21.75 L 15.53125 -22.25 L 15.53125 -22.0625 C 15.65625 -22.0625 16.390625 -24.46875 16.640625 -24.828125 C 17.5 -26.4375 18.125 -28.34375 18.671875 -30.140625 C 19.234375 -31.984375 19.71875 -33.828125 20.28125 -35.625 L 20.765625 -36.96875 C 21.078125 -37.90625 20.890625 -37.78125 21.6875 -38.015625 C 22.4375 -38.203125 23.484375 -38.265625 24.21875 -38.328125 C 27.484375 -38.578125 30.5 -39.4375 33.765625 -40.296875 C 34.578125 -40.484375 35.984375 -40.796875 36.671875 -41.34375 C 37.28125 -41.84375 37.15625 -41.96875 37.96875 -42.21875 C 38.390625 -42.34375 42.828125 -44.5625 41.78125 -45.171875 Z M 12.515625 -16.203125 C 11.703125 -13.6875 10.84375 -11.09375 9.921875 -8.5625 C 9.125 -6.53125 8.015625 -4.5625 7.265625 -2.53125 C 8.8125 -7.15625 10.78125 -11.703125 12.515625 -16.328125 L 12.515625 -16.265625 C 12.453125 -16.015625 12.453125 -16.078125 12.515625 -16.203125 Z M 7.265625 -15.71875 L 6.46875 -13.796875 C 6.71875 -14.546875 7.09375 -15.65625 7.265625 -15.71875 Z M 12.578125 -16.515625 L 12.578125 -16.453125 C 12.515625 -16.390625 12.515625 -16.390625 12.515625 -16.328125 C 12.515625 -16.390625 12.515625 -16.453125 12.578125 -16.515625 Z M 12.578125 -16.515625 C 12.578125 -16.578125 12.578125 -16.640625 12.640625 -16.703125 L 12.640625 -16.640625 C 12.640625 -16.640625 12.578125 -16.578125 12.578125 -16.515625 Z M 12.578125 -16.515625 "/></g></g></g><g fill="#ffffff" fill-opacity="1"><g transform="translate(75.315838, 94.807792)"><g><path d="M 0.546875 -8.15625 L 5.640625 -8.15625 L 5.640625 -6.5625 L 2.28125 -6.5625 L 2.28125 -5.09375 L 5.234375 -5.09375 L 5.234375 -3.5 L 2.28125 -3.5 L 2.28125 0 L 0.546875 0 Z M 0.546875 -8.15625 "/></g></g></g><g fill="#ffffff" fill-opacity="1"><g transform="translate(81.653652, 94.807792)"><g><path d="M 5.546875 -8.15625 L 8.953125 0 L 7.078125 0 L 6.34375 -1.75 L 2.875 -1.75 L 2.15625 0 L 0.25 0 L 3.65625 -8.15625 Z M 5.6875 -3.328125 L 4.609375 -5.90625 L 3.546875 -3.328125 Z M 5.953125 -10.765625 L 5.21875 -8.703125 L 4.046875 -8.703125 L 4.203125 -10.765625 Z M 5.953125 -10.765625 "/></g></g></g><g fill="#ffffff" fill-opacity="1"><g transform="translate(91.419135, 94.807792)"><g><path d="M 5.640625 -4.4375 C 5.960938 -4.21875 6.21875 -3.929688 6.40625 -3.578125 C 6.601562 -3.234375 6.703125 -2.847656 6.703125 -2.421875 C 6.703125 -2.085938 6.632812 -1.769531 6.5 -1.46875 C 6.375 -1.175781 6.195312 -0.921875 5.96875 -0.703125 C 5.75 -0.484375 5.492188 -0.3125 5.203125 -0.1875 C 4.910156 -0.0625 4.59375 0 4.25 0 L 0.546875 0 L 0.546875 -8.15625 L 4.140625 -8.15625 C 4.441406 -8.15625 4.726562 -8.09375 5 -7.96875 C 5.269531 -7.851562 5.503906 -7.695312 5.703125 -7.5 C 5.910156 -7.300781 6.070312 -7.066406 6.1875 -6.796875 C 6.300781 -6.523438 6.359375 -6.238281 6.359375 -5.9375 C 6.359375 -5.601562 6.296875 -5.3125 6.171875 -5.0625 C 6.046875 -4.8125 5.867188 -4.601562 5.640625 -4.4375 Z M 2.296875 -5.09375 L 4.140625 -5.09375 C 4.347656 -5.09375 4.523438 -5.164062 4.671875 -5.3125 C 4.816406 -5.457031 4.890625 -5.632812 4.890625 -5.84375 C 4.890625 -6.050781 4.816406 -6.222656 4.671875 -6.359375 C 4.523438 -6.492188 4.347656 -6.5625 4.140625 -6.5625 L 2.296875 -6.5625 Z M 4.25 -1.578125 C 4.476562 -1.578125 4.671875 -1.671875 4.828125 -1.859375 C 4.992188 -2.054688 5.078125 -2.285156 5.078125 -2.546875 C 5.078125 -2.816406 4.992188 -3.039062 4.828125 -3.21875 C 4.671875 -3.40625 4.476562 -3.5 4.25 -3.5 L 2.296875 -3.5 L 2.296875 -1.578125 Z M 4.25 -1.578125 "/></g></g></g><g fill="#ffffff" fill-opacity="1"><g transform="translate(99.09121, 94.807792)"><g><path d="M 3.5 -8.15625 L 3.5 -6.6875 L 2.890625 -6.6875 L 2.890625 -1.453125 L 3.5 -1.453125 L 3.5 0 L 0.546875 0 L 0.546875 -1.453125 L 1.15625 -1.453125 L 1.15625 -6.6875 L 0.546875 -6.6875 L 0.546875 -8.15625 Z M 3.5 -8.15625 "/></g></g></g><g fill="#ffffff" fill-opacity="1"><g transform="translate(103.680683, 94.807792)"><g><path d="M 4.390625 -8.265625 C 4.941406 -8.265625 5.460938 -8.148438 5.953125 -7.921875 C 6.441406 -7.703125 6.867188 -7.398438 7.234375 -7.015625 C 7.597656 -6.640625 7.882812 -6.195312 8.09375 -5.6875 C 8.3125 -5.1875 8.421875 -4.648438 8.421875 -4.078125 C 8.421875 -3.503906 8.3125 -2.957031 8.09375 -2.4375 C 7.882812 -1.925781 7.597656 -1.476562 7.234375 -1.09375 C 6.867188 -0.71875 6.441406 -0.414062 5.953125 -0.1875 C 5.460938 0.0390625 4.941406 0.15625 4.390625 0.15625 C 3.835938 0.15625 3.316406 0.0390625 2.828125 -0.1875 C 2.335938 -0.414062 1.910156 -0.71875 1.546875 -1.09375 C 1.191406 -1.476562 0.90625 -1.925781 0.6875 -2.4375 C 0.476562 -2.957031 0.375 -3.503906 0.375 -4.078125 C 0.375 -4.648438 0.476562 -5.1875 0.6875 -5.6875 C 0.90625 -6.195312 1.191406 -6.640625 1.546875 -7.015625 C 1.910156 -7.398438 2.335938 -7.703125 2.828125 -7.921875 C 3.316406 -8.148438 3.835938 -8.265625 4.390625 -8.265625 Z M 4.390625 -1.59375 C 4.703125 -1.59375 4.992188 -1.65625 5.265625 -1.78125 C 5.546875 -1.914062 5.789062 -2.09375 6 -2.3125 C 6.207031 -2.539062 6.367188 -2.800781 6.484375 -3.09375 C 6.609375 -3.394531 6.671875 -3.722656 6.671875 -4.078125 C 6.671875 -4.421875 6.609375 -4.742188 6.484375 -5.046875 C 6.367188 -5.347656 6.207031 -5.609375 6 -5.828125 C 5.789062 -6.054688 5.546875 -6.234375 5.265625 -6.359375 C 4.992188 -6.492188 4.703125 -6.5625 4.390625 -6.5625 C 4.078125 -6.5625 3.78125 -6.492188 3.5 -6.359375 C 3.226562 -6.234375 2.988281 -6.054688 2.78125 -5.828125 C 2.570312 -5.609375 2.40625 -5.347656 2.28125 -5.046875 C 2.164062 -4.742188 2.109375 -4.421875 2.109375 -4.078125 C 2.109375 -3.722656 2.164062 -3.394531 2.28125 -3.09375 C 2.40625 -2.800781 2.570312 -2.539062 2.78125 -2.3125 C 2.988281 -2.09375 3.226562 -1.914062 3.5 -1.78125 C 3.78125 -1.65625 4.078125 -1.59375 4.390625 -1.59375 Z M 4.390625 -1.59375 "/></g></g></g><g fill="#ffffff" fill-opacity="1"><g transform="translate(113.032084, 94.807792)"><g/></g></g><g fill="#ffffff" fill-opacity="1"><g transform="translate(116.747387, 94.807792)"><g><path d="M 4.0625 -8.15625 C 4.382812 -8.15625 4.6875 -8.09375 4.96875 -7.96875 C 5.25 -7.84375 5.492188 -7.671875 5.703125 -7.453125 C 5.921875 -7.234375 6.085938 -6.972656 6.203125 -6.671875 C 6.328125 -6.378906 6.390625 -6.066406 6.390625 -5.734375 C 6.390625 -5.390625 6.328125 -5.066406 6.203125 -4.765625 C 6.085938 -4.472656 5.921875 -4.21875 5.703125 -4 C 5.492188 -3.78125 5.25 -3.601562 4.96875 -3.46875 C 4.6875 -3.34375 4.382812 -3.28125 4.0625 -3.28125 L 2.28125 -3.28125 L 2.28125 0 L 0.546875 0 L 0.546875 -8.15625 Z M 3.828125 -4.875 C 4.046875 -4.875 4.238281 -4.957031 4.40625 -5.125 C 4.570312 -5.289062 4.65625 -5.492188 4.65625 -5.734375 C 4.65625 -5.960938 4.570312 -6.15625 4.40625 -6.3125 C 4.238281 -6.476562 4.046875 -6.5625 3.828125 -6.5625 L 2.28125 -6.5625 L 2.28125 -4.875 Z M 3.828125 -4.875 "/></g></g></g><g fill="#ffffff" fill-opacity="1"><g transform="translate(123.832849, 94.807792)"><g><path d="M 0.546875 -8.15625 L 5.640625 -8.15625 L 5.640625 -6.5625 L 2.296875 -6.5625 L 2.296875 -5.09375 L 5.25 -5.09375 L 5.25 -3.5 L 2.296875 -3.5 L 2.296875 -1.578125 L 5.640625 -1.578125 L 5.640625 0 L 0.546875 0 Z M 0.546875 -8.15625 "/></g></g></g><g fill="#ffffff" fill-opacity="1"><g transform="translate(130.584745, 94.807792)"><g><path d="M 2.28125 -1.578125 L 5.640625 -1.578125 L 5.640625 0 L 0.546875 0 L 0.546875 -8.15625 L 2.28125 -8.15625 Z M 2.28125 -1.578125 "/></g></g></g><g fill="#ffffff" fill-opacity="1"><g transform="translate(136.888055, 94.807792)"><g><path d="M 3.5 -8.15625 L 3.5 -6.6875 L 2.890625 -6.6875 L 2.890625 -1.453125 L 3.5 -1.453125 L 3.5 0 L 0.546875 0 L 0.546875 -1.453125 L 1.15625 -1.453125 L 1.15625 -6.6875 L 0.546875 -6.6875 L 0.546875 -8.15625 Z M 3.5 -8.15625 "/></g></g></g><g fill="#ffffff" fill-opacity="1"><g transform="translate(141.47753, 94.807792)"><g><path d="M 4.375 -1.59375 C 4.75 -1.59375 5.109375 -1.675781 5.453125 -1.84375 C 5.804688 -2.007812 6.164062 -2.289062 6.53125 -2.6875 L 7.65625 -1.625 C 7.207031 -1.039062 6.691406 -0.597656 6.109375 -0.296875 C 5.535156 0.00390625 4.941406 0.15625 4.328125 0.15625 C 3.773438 0.15625 3.253906 0.0390625 2.765625 -0.1875 C 2.285156 -0.414062 1.867188 -0.71875 1.515625 -1.09375 C 1.160156 -1.476562 0.878906 -1.925781 0.671875 -2.4375 C 0.472656 -2.945312 0.375 -3.492188 0.375 -4.078125 C 0.375 -4.648438 0.476562 -5.1875 0.6875 -5.6875 C 0.894531 -6.195312 1.175781 -6.640625 1.53125 -7.015625 C 1.894531 -7.398438 2.320312 -7.703125 2.8125 -7.921875 C 3.300781 -8.148438 3.820312 -8.265625 4.375 -8.265625 C 4.894531 -8.265625 5.382812 -8.164062 5.84375 -7.96875 C 6.3125 -7.78125 6.765625 -7.46875 7.203125 -7.03125 L 6.203125 -5.796875 C 5.878906 -6.097656 5.570312 -6.300781 5.28125 -6.40625 C 5 -6.507812 4.695312 -6.5625 4.375 -6.5625 C 4.0625 -6.5625 3.765625 -6.492188 3.484375 -6.359375 C 3.210938 -6.222656 2.972656 -6.046875 2.765625 -5.828125 C 2.554688 -5.609375 2.390625 -5.347656 2.265625 -5.046875 C 2.148438 -4.742188 2.09375 -4.421875 2.09375 -4.078125 C 2.09375 -3.722656 2.148438 -3.394531 2.265625 -3.09375 C 2.390625 -2.800781 2.554688 -2.539062 2.765625 -2.3125 C 2.972656 -2.09375 3.210938 -1.914062 3.484375 -1.78125 C 3.765625 -1.65625 4.0625 -1.59375 4.375 -1.59375 Z M 4.375 -1.59375 "/></g></g></g><g fill="#ffffff" fill-opacity="1"><g transform="translate(150.023774, 94.807792)"><g><path d="M 0.546875 -8.15625 L 5.640625 -8.15625 L 5.640625 -6.5625 L 2.296875 -6.5625 L 2.296875 -5.09375 L 5.25 -5.09375 L 5.25 -3.5 L 2.296875 -3.5 L 2.296875 -1.578125 L 5.640625 -1.578125 L 5.640625 0 L 0.546875 0 Z M 0.546875 -8.15625 "/></g></g></g><g fill="#ffffff" fill-opacity="1"><g transform="translate(156.775666, 94.807792)"><g><path d="M 6.40625 -5.734375 C 6.40625 -5.472656 6.367188 -5.222656 6.296875 -4.984375 C 6.222656 -4.753906 6.117188 -4.539062 5.984375 -4.34375 C 5.859375 -4.144531 5.703125 -3.96875 5.515625 -3.8125 C 5.335938 -3.664062 5.140625 -3.550781 4.921875 -3.46875 L 7.625 0 L 5.59375 0 L 3.078125 -3.28125 L 2.28125 -3.28125 L 2.28125 0 L 0.546875 0 L 0.546875 -8.15625 L 4.0625 -8.15625 C 4.382812 -8.15625 4.6875 -8.09375 4.96875 -7.96875 C 5.257812 -7.84375 5.507812 -7.671875 5.71875 -7.453125 C 5.925781 -7.234375 6.09375 -6.972656 6.21875 -6.671875 C 6.34375 -6.378906 6.40625 -6.066406 6.40625 -5.734375 Z M 3.84375 -4.875 C 4.0625 -4.875 4.25 -4.957031 4.40625 -5.125 C 4.570312 -5.289062 4.65625 -5.492188 4.65625 -5.734375 C 4.65625 -5.960938 4.570312 -6.15625 4.40625 -6.3125 C 4.25 -6.476562 4.0625 -6.5625 3.84375 -6.5625 L 2.28125 -6.5625 L 2.28125 -4.875 Z M 3.84375 -4.875 "/></g></g></g><g fill="#ffffff" fill-opacity="1"><g transform="translate(85.934591, 106.054859)"><g><path d="M 7.6875 -8.15625 L 9.328125 -8.15625 L 9.328125 0 L 7.59375 0 L 7.59375 -5.375 L 5.640625 -2.65625 L 4.25 -2.65625 L 2.28125 -5.296875 L 2.28125 0 L 0.546875 0 L 0.546875 -8.15625 L 2.203125 -8.15625 L 4.953125 -4.390625 Z M 7.6875 -8.15625 "/></g></g></g><g fill="#ffffff" fill-opacity="1"><g transform="translate(96.3557, 106.054859)"><g><path d="M 5.546875 -8.15625 L 8.953125 0 L 7.078125 0 L 6.34375 -1.75 L 2.875 -1.75 L 2.15625 0 L 0.25 0 L 3.65625 -8.15625 Z M 5.6875 -3.328125 L 4.609375 -5.90625 L 3.546875 -3.328125 Z M 5.953125 -10.765625 L 5.21875 -8.703125 L 4.046875 -8.703125 L 4.203125 -10.765625 Z M 5.953125 -10.765625 "/></g></g></g><g fill="#ffffff" fill-opacity="1"><g transform="translate(106.121182, 106.054859)"><g><path d="M 7.8125 -1.234375 L 8.6875 -0.9375 L 8.171875 0.15625 L 7.015625 -0.21875 L 6.578125 -0.59375 C 6.296875 -0.351562 5.960938 -0.164062 5.578125 -0.03125 C 5.191406 0.09375 4.800781 0.15625 4.40625 0.15625 C 3.851562 0.15625 3.332031 0.0390625 2.84375 -0.1875 C 2.351562 -0.414062 1.925781 -0.71875 1.5625 -1.09375 C 1.195312 -1.476562 0.90625 -1.925781 0.6875 -2.4375 C 0.476562 -2.957031 0.375 -3.503906 0.375 -4.078125 C 0.375 -4.648438 0.476562 -5.1875 0.6875 -5.6875 C 0.90625 -6.195312 1.195312 -6.640625 1.5625 -7.015625 C 1.925781 -7.398438 2.351562 -7.703125 2.84375 -7.921875 C 3.332031 -8.148438 3.851562 -8.265625 4.40625 -8.265625 C 4.957031 -8.265625 5.472656 -8.148438 5.953125 -7.921875 C 6.441406 -7.703125 6.867188 -7.398438 7.234375 -7.015625 C 7.597656 -6.640625 7.882812 -6.195312 8.09375 -5.6875 C 8.3125 -5.1875 8.421875 -4.648438 8.421875 -4.078125 C 8.421875 -3.578125 8.34375 -3.109375 8.1875 -2.671875 C 8.03125 -2.242188 7.816406 -1.851562 7.546875 -1.5 Z M 6.28125 -2.65625 C 6.539062 -3.070312 6.671875 -3.546875 6.671875 -4.078125 C 6.671875 -4.421875 6.609375 -4.742188 6.484375 -5.046875 C 6.367188 -5.347656 6.207031 -5.609375 6 -5.828125 C 5.800781 -6.054688 5.5625 -6.234375 5.28125 -6.359375 C 5.007812 -6.492188 4.71875 -6.5625 4.40625 -6.5625 C 4.09375 -6.5625 3.796875 -6.492188 3.515625 -6.359375 C 3.242188 -6.234375 3.003906 -6.054688 2.796875 -5.828125 C 2.585938 -5.609375 2.421875 -5.347656 2.296875 -5.046875 C 2.179688 -4.742188 2.125 -4.421875 2.125 -4.078125 C 2.125 -3.722656 2.179688 -3.394531 2.296875 -3.09375 C 2.421875 -2.800781 2.585938 -2.539062 2.796875 -2.3125 C 3.003906 -2.09375 3.242188 -1.914062 3.515625 -1.78125 C 3.796875 -1.65625 4.09375 -1.59375 4.40625 -1.59375 C 4.6875 -1.59375 4.957031 -1.644531 5.21875 -1.75 L 4.4375 -2.421875 L 5.4375 -3.4375 Z M 6.28125 -2.65625 "/></g></g></g><g fill="#ffffff" fill-opacity="1"><g transform="translate(115.76014, 106.054859)"><g><path d="M 5.15625 -8.15625 L 6.890625 -8.15625 L 6.890625 -2.9375 C 6.890625 -2.53125 6.800781 -2.140625 6.625 -1.765625 C 6.457031 -1.390625 6.226562 -1.0625 5.9375 -0.78125 C 5.65625 -0.5 5.316406 -0.269531 4.921875 -0.09375 C 4.535156 0.0703125 4.125 0.15625 3.6875 0.15625 C 3.25 0.15625 2.832031 0.0703125 2.4375 -0.09375 C 2.039062 -0.269531 1.695312 -0.5 1.40625 -0.78125 C 1.125 -1.0625 0.898438 -1.390625 0.734375 -1.765625 C 0.566406 -2.140625 0.484375 -2.53125 0.484375 -2.9375 L 0.484375 -8.15625 L 2.21875 -8.15625 L 2.21875 -3.28125 C 2.21875 -3.050781 2.253906 -2.832031 2.328125 -2.625 C 2.410156 -2.425781 2.515625 -2.25 2.640625 -2.09375 C 2.773438 -1.9375 2.929688 -1.8125 3.109375 -1.71875 C 3.285156 -1.632812 3.476562 -1.59375 3.6875 -1.59375 C 3.882812 -1.59375 4.070312 -1.632812 4.25 -1.71875 C 4.425781 -1.8125 4.582031 -1.9375 4.71875 -2.09375 C 4.851562 -2.25 4.957031 -2.425781 5.03125 -2.625 C 5.113281 -2.832031 5.15625 -3.050781 5.15625 -3.28125 Z M 5.15625 -8.15625 "/></g></g></g><g fill="#ffffff" fill-opacity="1"><g transform="translate(123.67376, 106.054859)"><g><path d="M 3.5 -8.15625 L 3.5 -6.6875 L 2.890625 -6.6875 L 2.890625 -1.453125 L 3.5 -1.453125 L 3.5 0 L 0.546875 0 L 0.546875 -1.453125 L 1.15625 -1.453125 L 1.15625 -6.6875 L 0.546875 -6.6875 L 0.546875 -8.15625 Z M 3.5 -8.15625 "/></g></g></g><g fill="#ffffff" fill-opacity="1"><g transform="translate(128.263233, 106.054859)"><g><path d="M 6.125 -8.15625 L 7.859375 -8.15625 L 7.859375 0 L 6.203125 0 L 2.28125 -5.328125 L 2.28125 0 L 0.546875 0 L 0.546875 -8.15625 L 2.171875 -8.15625 L 6.125 -2.796875 Z M 6.125 -8.15625 "/></g></g></g><g fill="#ffffff" fill-opacity="1"><g transform="translate(137.212057, 106.054859)"><g><path d="M 5.546875 -8.15625 L 8.953125 0 L 7.078125 0 L 6.34375 -1.75 L 2.875 -1.75 L 2.15625 0 L 0.25 0 L 3.65625 -8.15625 Z M 5.6875 -3.328125 L 4.609375 -5.90625 L 3.546875 -3.328125 Z M 5.6875 -3.328125 "/></g></g></g><g fill="#ffffff" fill-opacity="1"><g transform="translate(146.977541, 106.054859)"><g><path d="M 5.734375 -4.203125 C 6.046875 -4.003906 6.285156 -3.753906 6.453125 -3.453125 C 6.628906 -3.160156 6.71875 -2.816406 6.71875 -2.421875 C 6.71875 -2.054688 6.628906 -1.710938 6.453125 -1.390625 C 6.273438 -1.078125 6.023438 -0.796875 5.703125 -0.546875 C 5.410156 -0.328125 5.078125 -0.15625 4.703125 -0.03125 C 4.335938 0.0820312 3.945312 0.144531 3.53125 0.15625 C 3.113281 0.15625 2.71875 0.0976562 2.34375 -0.015625 C 1.96875 -0.140625 1.632812 -0.316406 1.34375 -0.546875 C 0.90625 -0.867188 0.609375 -1.265625 0.453125 -1.734375 L 2.0625 -2.484375 C 2.0625 -2.410156 2.085938 -2.316406 2.140625 -2.203125 C 2.191406 -2.085938 2.273438 -1.972656 2.390625 -1.859375 C 2.503906 -1.753906 2.648438 -1.660156 2.828125 -1.578125 C 3.015625 -1.503906 3.242188 -1.46875 3.515625 -1.46875 C 3.734375 -1.46875 3.921875 -1.492188 4.078125 -1.546875 C 4.242188 -1.609375 4.382812 -1.675781 4.5 -1.75 C 4.613281 -1.832031 4.695312 -1.925781 4.75 -2.03125 C 4.8125 -2.132812 4.84375 -2.238281 4.84375 -2.34375 C 4.84375 -2.46875 4.800781 -2.582031 4.71875 -2.6875 C 4.632812 -2.800781 4.507812 -2.882812 4.34375 -2.9375 C 4.039062 -3.050781 3.71875 -3.144531 3.375 -3.21875 C 3.03125 -3.289062 2.695312 -3.378906 2.375 -3.484375 C 2.050781 -3.597656 1.75 -3.742188 1.46875 -3.921875 C 1.195312 -4.109375 0.984375 -4.367188 0.828125 -4.703125 C 0.679688 -4.992188 0.609375 -5.304688 0.609375 -5.640625 C 0.609375 -6.003906 0.691406 -6.359375 0.859375 -6.703125 C 1.035156 -7.046875 1.273438 -7.335938 1.578125 -7.578125 C 1.859375 -7.796875 2.175781 -7.960938 2.53125 -8.078125 C 2.882812 -8.203125 3.253906 -8.265625 3.640625 -8.265625 C 4.035156 -8.265625 4.410156 -8.207031 4.765625 -8.09375 C 5.117188 -7.976562 5.441406 -7.8125 5.734375 -7.59375 C 6.003906 -7.382812 6.21875 -7.140625 6.375 -6.859375 L 5.078125 -5.96875 C 4.910156 -6.1875 4.707031 -6.363281 4.46875 -6.5 C 4.226562 -6.632812 3.957031 -6.703125 3.65625 -6.703125 C 3.238281 -6.703125 2.914062 -6.609375 2.6875 -6.421875 C 2.46875 -6.242188 2.359375 -6.003906 2.359375 -5.703125 C 2.359375 -5.566406 2.421875 -5.441406 2.546875 -5.328125 C 2.671875 -5.222656 2.832031 -5.128906 3.03125 -5.046875 C 3.238281 -4.960938 3.46875 -4.882812 3.71875 -4.8125 C 3.976562 -4.75 4.234375 -4.6875 4.484375 -4.625 C 4.734375 -4.5625 4.96875 -4.492188 5.1875 -4.421875 C 5.40625 -4.359375 5.585938 -4.285156 5.734375 -4.203125 Z M 5.734375 -4.203125 "/></g></g></g><g fill="#ffffff" fill-opacity="1"><g transform="translate(120.948083, 71.885749)"><g><path d="M 32.84375 -46.46875 C 30.9375 -45.90625 29.03125 -43.5625 27.671875 -42.21875 C 26.8125 -41.40625 25.9375 -40.546875 25.140625 -39.625 C 24.59375 -39.015625 23.171875 -37.78125 23.046875 -36.90625 C 23.109375 -36.859375 23.109375 -36.859375 23.171875 -36.859375 L 22.3125 -35.75 C 22.25 -35.6875 22.921875 -36.671875 22.921875 -36.671875 C 22.609375 -36.609375 22.0625 -35.4375 22.0625 -35.4375 C 20.34375 -33.21875 18.421875 -31.1875 16.828125 -28.84375 C 15.03125 -26.1875 13.5625 -23.484375 12.140625 -20.640625 C 12.9375 -23.609375 13.984375 -26.5 15.15625 -29.328125 C 15.46875 -30.078125 18.859375 -38.078125 18.984375 -38.015625 C 18.796875 -38.078125 15.78125 -31.3125 15.59375 -30.9375 C 17.015625 -34.390625 18.546875 -37.78125 20.34375 -41.046875 C 20.21875 -40.796875 20.09375 -40.484375 20.15625 -40.484375 C 20.390625 -40.421875 21.625 -42.828125 21.453125 -42.890625 L 21.265625 -42.765625 C 21.625 -43.453125 21.8125 -43.8125 21.453125 -44.796875 C 21.078125 -45.78125 20.15625 -47.515625 18.859375 -46.953125 C 18.0625 -46.65625 17.375 -45.171875 17.0625 -44.5625 C 16.890625 -44.25 16.828125 -43.75 16.640625 -43.5 C 16.390625 -43.140625 15.953125 -42.953125 15.59375 -42.453125 C 14.796875 -41.234375 14.234375 -39.75 13.6875 -38.390625 C 13.375 -37.65625 9.984375 -30.3125 10.109375 -30.265625 C 10.234375 -30.3125 10.296875 -30.4375 10.359375 -30.5625 C 10.171875 -30.015625 9.921875 -29.453125 9.671875 -28.90625 C 9.609375 -28.96875 9.859375 -29.390625 9.796875 -29.390625 C 9.1875 -29.515625 7.328125 -24.40625 7.203125 -23.90625 C 6.96875 -22.734375 6.65625 -21.6875 6.15625 -20.515625 C 5.859375 -19.78125 5.546875 -19.046875 5.296875 -18.296875 C 5.296875 -18.234375 4.984375 -16.703125 5.234375 -17.25 C 5.234375 -17.0625 5.171875 -16.953125 5.109375 -16.765625 C 5.109375 -16.828125 5.109375 -16.953125 5.046875 -17.015625 C 4.9375 -16.953125 4.625 -15.28125 4.5625 -15.21875 C 4.3125 -14.609375 3.9375 -14.046875 3.703125 -13.4375 C 2.890625 -11.703125 2.40625 -9.796875 1.96875 -7.953125 L 0.671875 -1.65625 C 0.4375 -0.5 -0.546875 2.15625 0.375 3.328125 C 0.375 3.203125 0.375 3.140625 0.4375 3.078125 C 0.4375 3.140625 0.4375 3.265625 0.5 3.390625 C 1.046875 5.421875 4.375 4.8125 5.484375 3.640625 C 5.484375 3.765625 5.546875 3.828125 5.609375 3.875 C 6.046875 0.4375 7.265625 -3.078125 8.5 -6.34375 C 9 -7.765625 9.484375 -10.109375 10.46875 -11.21875 C 10.53125 -11.828125 10.84375 -12.015625 11.34375 -11.703125 C 11.703125 -11.640625 12.140625 -11.578125 12.515625 -11.578125 C 12.875 -11.53125 13.375 -11.53125 13.796875 -11.578125 C 16.390625 -12.015625 19.171875 -13.75 21.390625 -15.09375 C 22.25 -15.59375 22.859375 -16.328125 23.65625 -16.765625 C 24.53125 -17.25 25.390625 -17.5 26.25 -18.171875 C 28.59375 -19.96875 30.5 -22 32.359375 -24.28125 C 34.203125 -26.5 35.796875 -28.78125 36.90625 -31.484375 C 37.53125 -32.84375 38.015625 -34.328125 38.453125 -35.796875 C 38.578125 -36.359375 39.015625 -37.15625 38.890625 -37.71875 C 38.890625 -37.71875 38.703125 -37.28125 38.578125 -36.96875 C 38.765625 -38.015625 38.890625 -39.015625 38.828125 -40.125 C 38.890625 -39.875 39.015625 -39.5 38.953125 -39.4375 C 39.0625 -39.5 39.015625 -40.296875 39.015625 -40.671875 C 39.015625 -40.546875 38.953125 -41.109375 39.015625 -40.921875 C 38.765625 -43.875 36.046875 -47.390625 32.84375 -46.46875 Z M 32.78125 -38.953125 C 32.71875 -38.703125 32.71875 -38.765625 32.78125 -38.890625 C 32.46875 -34.640625 30.078125 -30.4375 27.671875 -27.046875 C 26.4375 -25.265625 25.015625 -23.609375 23.546875 -22 C 22.859375 -21.328125 22.125 -20.640625 21.390625 -20.03125 C 20.828125 -19.46875 19.65625 -18.859375 19.109375 -18.171875 C 19.59375 -18.671875 20.703125 -19.28125 21.203125 -19.65625 C 22.1875 -20.515625 23.171875 -21.5 24.09375 -22.4375 C 25.578125 -24.03125 26.984375 -25.703125 28.21875 -27.484375 C 24.46875 -21.875 19.28125 -17.015625 13.0625 -14.421875 C 13.5625 -14.734375 14.796875 -15.34375 14.796875 -15.40625 C 14.671875 -15.53125 12.203125 -14.421875 11.953125 -14.296875 C 12.75 -15.90625 13.5625 -17.5 14.421875 -19.109375 C 14.671875 -19.46875 16.640625 -23.234375 16.640625 -23.234375 C 16.515625 -23.234375 16.390625 -23.171875 16.328125 -22.984375 C 19.046875 -27.359375 22.609375 -31.734375 25.9375 -35.75 C 26.984375 -36.96875 33.09375 -44.921875 32.78125 -39.015625 Z M 2.46875 -7.09375 C 3.078125 -9.734375 4.375 -11.53125 5.171875 -13.921875 C 4.0625 -10.359375 2.71875 -6.71875 1.65625 -3.203125 C 1.90625 -4.4375 2.15625 -5.984375 2.46875 -7.09375 Z M 1.234375 0.796875 C 1.171875 1.046875 0.734375 1.359375 0.671875 1.65625 C 0.859375 0.609375 1.046875 -0.3125 1.296875 -1.296875 C 1.171875 -0.609375 1.359375 0.125 1.234375 0.796875 Z M 14.796875 -28.90625 L 13.5 -25.703125 L 14.734375 -28.84375 Z M 14.859375 -29.15625 C 14.859375 -29.03125 14.796875 -29.03125 14.796875 -28.96875 C 14.796875 -29.03125 14.796875 -29.03125 14.859375 -29.15625 Z M 14.96875 -29.390625 L 14.90625 -29.328125 L 14.96875 -29.453125 Z M 15.78125 -22.125 C 15.78125 -22.1875 15.84375 -22.1875 15.84375 -22.25 C 15.84375 -22.1875 15.78125 -22.125 15.78125 -22.125 Z M 15.78125 -22.125 "/></g></g></g></svg>