<svg xmlns="http://www.w3.org/2000/svg" xmlns:xlink="http://www.w3.org/1999/xlink" width="320" zoomAndPan="magnify" viewBox="0 0 240 149.999998" height="200" preserveAspectRatio="xMidYMid meet" version="1.0"><defs><g/><clipPath id="1783e09570"><path d="M 84.363281 2 L 163.863281 2 L 163.863281 82.992188 L 84.363281 82.992188 Z M 84.363281 2 " clip-rule="nonzero"/></clipPath></defs><path fill="#ffffff" d="M 154.777344 48.480469 C 155.015625 48.523438 155.238281 48.609375 155.445312 48.742188 C 155.648438 48.871094 155.820312 49.039062 155.960938 49.238281 C 156.101562 49.4375 156.195312 49.652344 156.246094 49.890625 C 156.300781 50.128906 156.304688 50.367188 156.261719 50.605469 C 156.222656 50.847656 156.132812 51.066406 156.003906 51.273438 C 155.871094 51.476562 155.707031 51.648438 155.507812 51.789062 C 155.308594 51.929688 155.089844 52.023438 154.855469 52.078125 C 154.617188 52.128906 154.378906 52.136719 154.140625 52.09375 C 153.898438 52.050781 153.675781 51.964844 153.472656 51.832031 C 153.265625 51.703125 153.09375 51.539062 152.957031 51.339844 C 152.816406 51.140625 152.71875 50.921875 152.667969 50.683594 C 152.617188 50.445312 152.609375 50.207031 152.652344 49.96875 C 152.695312 49.730469 152.78125 49.507812 152.914062 49.300781 C 153.042969 49.097656 153.207031 48.925781 153.40625 48.785156 C 153.605469 48.644531 153.824219 48.550781 154.0625 48.496094 C 154.300781 48.445312 154.539062 48.441406 154.777344 48.480469 Z M 154.777344 48.480469 " fill-opacity="1" fill-rule="nonzero"/><g clip-path="url(#1783e09570)"><path fill="#ffffff" d="M 163.609375 2.21875 C 163.488281 2.09375 163.320312 2.023438 163.148438 2.023438 L 145.792969 2.023438 C 145.59375 2.023438 145.40625 2.117188 145.28125 2.277344 C 145.160156 2.433594 145.121094 2.640625 145.171875 2.835938 L 153.929688 35.738281 C 154.335938 37.261719 154.328125 38.871094 153.914062 40.390625 L 152.429688 45.84375 L 147.671875 48.863281 C 146.195312 48.277344 144.882812 47.808594 143.742188 47.460938 L 143.742188 38.648438 C 143.742188 38.292969 143.453125 38.003906 143.09375 38.003906 L 124.667969 38.003906 L 122.027344 34.050781 L 122.027344 31.558594 C 122.027344 30.730469 121.492188 30.019531 120.753906 29.753906 L 120.753906 27.472656 C 120.753906 26.015625 119.570312 24.832031 118.113281 24.832031 C 116.65625 24.832031 115.472656 26.015625 115.472656 27.472656 L 115.472656 29.753906 C 114.730469 30.019531 114.199219 30.730469 114.199219 31.558594 L 114.199219 34.050781 L 111.558594 38.003906 L 106.058594 38.003906 C 107.371094 36.941406 108.210938 35.316406 108.210938 33.5 C 108.210938 31.816406 107.496094 29.65625 106.425781 28.003906 C 106.96875 27.570312 107.320312 26.898438 107.320312 26.148438 L 107.320312 14.882812 C 107.320312 13.574219 106.253906 12.503906 104.941406 12.503906 L 85.007812 12.503906 C 84.652344 12.503906 84.363281 12.792969 84.363281 13.152344 L 84.363281 27.882812 C 84.363281 28.238281 84.652344 28.527344 85.007812 28.527344 L 86.761719 28.527344 L 88.820312 30.882812 L 88.820312 34.316406 C 88.820312 35.765625 90 36.945312 91.449219 36.945312 C 92.894531 36.945312 94.074219 35.765625 94.074219 34.316406 L 94.074219 31.460938 L 95.222656 30.457031 C 95.488281 30.222656 95.515625 29.8125 95.28125 29.546875 L 94.390625 28.527344 L 98.089844 28.527344 C 97.199219 30.09375 96.621094 32 96.621094 33.5 C 96.621094 35.316406 97.464844 36.941406 98.777344 38.003906 L 93.785156 38.003906 C 93.429688 38.003906 93.140625 38.292969 93.140625 38.648438 L 93.140625 42.761719 C 91.503906 42.804688 89.917969 43.441406 88.710938 44.558594 C 87.328125 45.835938 86.535156 47.648438 86.535156 49.53125 L 86.535156 61.40625 C 86.535156 64.808594 89.300781 67.574219 92.703125 67.574219 L 94.683594 67.574219 L 94.683594 73.152344 C 91.796875 73.421875 89.355469 75.472656 88.625 78.324219 L 87.550781 82.519531 C 87.5 82.710938 87.542969 82.917969 87.667969 83.074219 C 87.789062 83.230469 87.976562 83.324219 88.175781 83.324219 L 147.738281 83.324219 C 147.9375 83.324219 148.128906 83.230469 148.25 83.074219 C 148.371094 82.917969 148.414062 82.710938 148.363281 82.519531 L 147.289062 78.324219 C 146.558594 75.472656 144.121094 73.421875 141.234375 73.152344 L 141.234375 67.574219 L 145.167969 67.574219 C 149.15625 67.574219 152.402344 64.328125 152.402344 60.339844 L 152.402344 54.753906 L 158.09375 56.425781 C 158.328125 56.496094 158.570312 56.53125 158.808594 56.53125 C 159.515625 56.53125 160.195312 56.226562 160.679688 55.664062 C 161.324219 54.914062 161.46875 53.890625 161.050781 52.992188 L 158.480469 47.445312 L 159.957031 42.039062 C 160.660156 39.453125 160.667969 36.714844 159.980469 34.125 L 157.277344 23.976562 L 159.417969 22.910156 C 161.804688 21.71875 163.332031 19.324219 163.40625 16.660156 L 163.792969 2.683594 C 163.796875 2.511719 163.730469 2.34375 163.609375 2.21875 Z M 158.933594 3.3125 L 158.566406 16.523438 C 158.542969 17.398438 158.042969 18.1875 157.257812 18.578125 L 156.007812 19.199219 L 151.777344 3.3125 Z M 116.765625 27.472656 C 116.765625 26.726562 117.367188 26.121094 118.113281 26.121094 C 118.855469 26.121094 119.460938 26.726562 119.460938 27.472656 L 119.460938 29.640625 L 116.765625 29.640625 Z M 115.191406 34.890625 L 121.035156 34.890625 L 123.117188 38.003906 L 113.109375 38.003906 Z M 91.507812 31.992188 L 88.476562 28.527344 L 92.675781 28.527344 L 93.886719 29.910156 Z M 97.910156 33.5 C 97.910156 32.019531 98.617188 29.980469 99.609375 28.527344 L 105.210938 28.511719 C 106.214844 29.96875 106.921875 32.003906 106.921875 33.5 C 106.921875 35.984375 104.902344 38.003906 102.417969 38.003906 C 99.933594 38.003906 97.910156 35.984375 97.910156 33.5 Z M 146.039062 78.644531 L 146.910156 82.03125 L 89.007812 82.03125 L 89.875 78.644531 C 90.511719 76.152344 92.753906 74.414062 95.328125 74.414062 L 140.589844 74.414062 C 143.160156 74.414062 145.402344 76.152344 146.039062 78.644531 Z M 151.113281 60.339844 C 151.113281 63.617188 148.445312 66.285156 145.167969 66.285156 L 142.390625 66.285156 C 144.402344 64.382812 146.03125 62.246094 147.242188 59.917969 C 147.40625 59.601562 147.285156 59.214844 146.96875 59.050781 C 146.652344 58.882812 146.261719 59.007812 146.097656 59.324219 C 144.75 61.910156 142.851562 64.253906 140.457031 66.285156 L 134.390625 66.285156 C 136.402344 64.382812 138.03125 62.246094 139.246094 59.917969 C 139.410156 59.601562 139.285156 59.214844 138.96875 59.050781 C 138.652344 58.882812 138.265625 59.007812 138.101562 59.324219 C 136.75 61.910156 134.851562 64.253906 132.457031 66.285156 L 126.394531 66.285156 C 128.402344 64.382812 130.03125 62.246094 131.246094 59.917969 C 131.410156 59.601562 131.285156 59.214844 130.972656 59.046875 C 130.65625 58.882812 130.265625 59.007812 130.101562 59.324219 C 128.75 61.910156 126.855469 64.253906 124.460938 66.285156 L 118.394531 66.285156 C 120.40625 64.382812 122.035156 62.246094 123.246094 59.917969 C 123.410156 59.601562 123.289062 59.214844 122.972656 59.046875 C 122.65625 58.882812 122.265625 59.007812 122.101562 59.324219 C 120.753906 61.910156 118.855469 64.253906 116.460938 66.285156 L 110.394531 66.285156 C 112.40625 64.382812 114.035156 62.246094 115.246094 59.917969 C 115.410156 59.601562 115.289062 59.214844 114.972656 59.046875 C 114.65625 58.882812 114.265625 59.007812 114.101562 59.324219 C 112.753906 61.910156 110.855469 64.25 108.460938 66.285156 L 102.394531 66.285156 C 104.40625 64.378906 106.035156 62.246094 107.246094 59.917969 C 107.414062 59.601562 107.289062 59.214844 106.972656 59.046875 C 106.65625 58.882812 106.269531 59.007812 106.101562 59.324219 C 104.753906 61.910156 102.855469 64.25 100.460938 66.28125 L 94.398438 66.28125 C 96.40625 64.378906 98.035156 62.246094 99.25 59.917969 C 99.414062 59.601562 99.289062 59.214844 98.976562 59.046875 C 98.660156 58.882812 98.269531 59.007812 98.105469 59.324219 C 96.757812 61.910156 94.859375 64.246094 92.46875 66.277344 C 89.890625 66.15625 87.824219 64.019531 87.824219 61.40625 L 87.824219 49.53125 C 87.824219 47.984375 88.449219 46.554688 89.585938 45.507812 C 90.558594 44.605469 91.78125 44.101562 93.082031 44.054688 C 95.230469 46.25 96.574219 48.269531 97.683594 50.972656 C 97.867188 51.324219 98.152344 51.429688 98.523438 51.324219 C 98.855469 51.1875 99.011719 50.8125 98.878906 50.480469 C 97.886719 48.070312 96.671875 46.109375 94.945312 44.160156 C 96.609375 44.289062 98.496094 44.4375 100.535156 44.597656 C 102.722656 46.613281 104.320312 48.898438 105.421875 51.578125 C 105.597656 51.898438 105.875 52.023438 106.265625 51.929688 C 106.59375 51.796875 106.753906 51.417969 106.617188 51.089844 C 105.640625 48.710938 104.296875 46.625 102.535156 44.757812 C 104.449219 44.90625 106.464844 45.070312 108.53125 45.234375 C 110.671875 47.417969 112.0625 49.511719 113.164062 52.1875 C 113.351562 52.507812 113.632812 52.628906 114.003906 52.539062 C 114.335938 52.402344 114.492188 52.027344 114.355469 51.699219 C 113.367188 49.289062 112.160156 47.332031 110.4375 45.386719 C 112.371094 45.542969 114.335938 45.703125 116.285156 45.863281 C 118.445312 48.0625 119.792969 50.089844 120.902344 52.796875 C 121.105469 53.105469 121.382812 53.230469 121.746094 53.148438 C 122.074219 53.011719 122.234375 52.636719 122.097656 52.304688 C 121.113281 49.90625 119.90625 47.957031 118.195312 46.019531 C 120.179688 46.179688 122.140625 46.34375 124.027344 46.503906 C 126.199219 48.71875 127.546875 50.734375 128.644531 53.402344 C 128.839844 53.75 129.117188 53.871094 129.484375 53.753906 C 129.816406 53.621094 129.972656 53.242188 129.835938 52.914062 C 128.851562 50.511719 127.675781 48.613281 125.945312 46.664062 C 127.90625 46.832031 129.769531 46.992188 131.476562 47.144531 C 133.683594 49.378906 135.28125 51.332031 136.382812 54.011719 C 136.554688 54.300781 136.828125 54.433594 137.226562 54.363281 C 137.554688 54.226562 137.710938 53.851562 137.578125 53.519531 C 136.589844 51.113281 135.195312 49.222656 133.433594 47.320312 C 136.609375 47.609375 139.074219 47.851562 140.386719 48.019531 C 142.304688 50.003906 143.222656 51.625 144.101562 54.558594 C 144.328125 54.980469 144.601562 55.074219 144.90625 54.992188 C 145.246094 54.890625 145.441406 54.53125 145.339844 54.1875 C 144.601562 51.722656 143.800781 50.074219 142.484375 48.441406 C 143.640625 48.753906 145.042969 49.226562 146.636719 49.839844 C 146.359375 50.3125 146.242188 50.871094 146.324219 51.445312 C 146.460938 52.425781 147.136719 53.207031 148.085938 53.484375 L 151.113281 54.375 Z M 159.878906 53.535156 C 160.085938 53.972656 160.015625 54.453125 159.703125 54.820312 C 159.386719 55.1875 158.921875 55.324219 158.457031 55.1875 L 148.453125 52.25 C 147.988281 52.113281 147.671875 51.746094 147.601562 51.265625 C 147.535156 50.785156 147.738281 50.347656 148.148438 50.085938 L 154.167969 46.269531 C 154.472656 46.078125 154.820312 45.976562 155.175781 45.976562 C 155.351562 45.976562 155.53125 46.003906 155.707031 46.054688 C 156.226562 46.207031 156.65625 46.578125 156.882812 47.070312 Z M 162.117188 16.625 C 162.054688 18.8125 160.800781 20.777344 158.84375 21.753906 L 156.9375 22.703125 L 156.34375 20.472656 L 157.835938 19.730469 C 159.042969 19.128906 159.820312 17.914062 159.855469 16.5625 L 160.222656 3.3125 L 162.484375 3.3125 Z M 162.117188 16.625 " fill-opacity="1" fill-rule="nonzero"/></g><path fill="#ffffff" d="M 102.417969 36.125 C 103.863281 36.125 105.039062 34.945312 105.039062 33.5 C 105.039062 32.050781 103.863281 30.875 102.417969 30.875 C 100.96875 30.875 99.792969 32.050781 99.792969 33.5 C 99.792969 34.945312 100.96875 36.125 102.417969 36.125 Z M 102.417969 36.125 " fill-opacity="1" fill-rule="nonzero"/><g fill="#ffffff" fill-opacity="1"><g transform="translate(76.346853, 103.403984)"><g><path d="M 5.96875 -12.054688 C 6.804688 -12.054688 7.660156 -11.957031 8.242188 -11.722656 C 8.457031 -12.015625 8.554688 -12.246094 8.554688 -12.421875 C 8.554688 -12.984375 7.738281 -13.140625 6.921875 -13.140625 C 5.929688 -13.140625 4.472656 -12.890625 3.460938 -11.996094 C 3.441406 -12.695312 3.1875 -12.984375 2.800781 -12.984375 C 2.546875 -12.984375 2.273438 -12.945312 1.867188 -12.851562 C 1.886719 -12.265625 1.90625 -11.527344 1.90625 -10.710938 C 1.90625 -9.621094 1.886719 -8.359375 1.789062 -7 C 1.417969 -4.53125 1.167969 -0.816406 1.128906 0.136719 C 1.261719 0.214844 1.554688 0.253906 1.710938 0.253906 C 2.585938 0.253906 3.050781 -0.875 3.050781 -3.867188 C 3.050781 -4.570312 3.03125 -5.328125 2.992188 -6.203125 C 3.789062 -6.355469 4.585938 -6.453125 5.40625 -6.453125 C 6.066406 -6.453125 6.746094 -6.394531 7.425781 -6.257812 C 7.445312 -6.355469 7.464844 -6.453125 7.464844 -6.53125 C 7.464844 -7.210938 6.746094 -7.464844 5.832031 -7.464844 C 4.9375 -7.464844 3.847656 -7.230469 3.03125 -6.921875 C 3.167969 -8.164062 3.363281 -10.363281 3.441406 -11.371094 C 3.90625 -11.78125 4.683594 -12.054688 5.96875 -12.054688 Z M 5.96875 -12.054688 "/></g></g></g><g fill="#ffffff" fill-opacity="1"><g transform="translate(85.381688, 103.403984)"><g><path d="M 7.601562 -12.65625 C 7.601562 -13.296875 7 -13.550781 6.472656 -13.550781 C 6.375 -12.148438 5.035156 -10.789062 3.1875 -10.226562 C 3.402344 -10.148438 3.636719 -10.109375 3.90625 -10.109375 C 5.460938 -10.109375 7.601562 -11.507812 7.601562 -12.65625 Z M 9.214844 -2.214844 C 8.960938 -1.710938 8.417969 -1.167969 7.96875 -0.894531 C 7.40625 -1.496094 7.386719 -2.488281 7.386719 -3.382812 C 7.386719 -3.964844 7.40625 -4.585938 7.40625 -5.171875 C 7.582031 -5.695312 7.660156 -6.394531 7.660156 -6.980469 C 7.660156 -7.308594 7.640625 -7.601562 7.601562 -7.835938 C 6.980469 -8.613281 6.257812 -9.019531 5.367188 -9.019531 C 2.625 -9.019531 0.796875 -5.578125 0.796875 -2.390625 C 0.796875 -1.128906 1.089844 0.273438 2.332031 0.273438 C 3.636719 0.273438 4.957031 -1.1875 5.8125 -2.859375 C 5.851562 -1.457031 6.164062 0.273438 7.210938 0.273438 C 8.105469 0.273438 9.332031 -1.03125 9.332031 -1.847656 C 9.332031 -1.984375 9.292969 -2.117188 9.214844 -2.214844 Z M 3.1875 -1.109375 C 2.585938 -1.109375 2.234375 -1.769531 2.234375 -3.285156 C 2.234375 -5.5 2.878906 -8.027344 4.742188 -8.027344 C 5.289062 -8.027344 5.949219 -7.777344 6.570312 -6.824219 C 6.125 -5.988281 5.890625 -4.742188 5.832031 -3.617188 C 5.054688 -2.042969 3.886719 -1.109375 3.1875 -1.109375 Z M 3.1875 -1.109375 "/></g></g></g><g fill="#ffffff" fill-opacity="1"><g transform="translate(94.960552, 103.403984)"><g><path d="M 6.726562 -9.019531 C 5.09375 -9.019531 3.402344 -6.863281 2.625 -4.570312 C 2.722656 -5.949219 2.859375 -7.171875 2.878906 -7.367188 C 3.207031 -9.429688 3.324219 -11.332031 3.324219 -12.636719 C 3.324219 -13.707031 3.207031 -14.09375 2.625 -14.09375 C 2.351562 -14.09375 2.003906 -14.015625 1.574219 -13.878906 C 1.710938 -13.277344 1.769531 -11.957031 1.769531 -10.457031 C 1.769531 -6.316406 1.109375 -4.101562 1.109375 -1.867188 C 1.109375 -0.621094 1.320312 0.273438 1.828125 0.273438 C 1.984375 0.273438 2.3125 0.195312 2.546875 -0.0390625 C 2.914062 0.175781 3.324219 0.273438 3.769531 0.273438 C 5.929688 0.273438 8.046875 -2.136719 8.320312 -5.675781 C 8.339844 -5.890625 8.339844 -6.105469 8.339844 -6.335938 C 8.339844 -7.621094 8.046875 -9.019531 6.726562 -9.019531 Z M 6.84375 -4.101562 C 6.53125 -1.75 5.5 -0.71875 4.101562 -0.71875 C 3.441406 -0.71875 3.03125 -0.953125 2.585938 -1.789062 C 2.585938 -1.945312 2.566406 -2.117188 2.566406 -2.292969 C 2.722656 -5.328125 4.839844 -7.640625 6.007812 -7.640625 C 6.628906 -7.640625 6.960938 -7.019531 6.960938 -5.65625 C 6.960938 -5.230469 6.921875 -4.703125 6.84375 -4.101562 Z M 6.84375 -4.101562 "/></g></g></g><g fill="#ffffff" fill-opacity="1"><g transform="translate(104.03424, 103.403984)"><g><path d="M 3.382812 -10.925781 C 3.984375 -10.925781 4.492188 -11.429688 4.492188 -12.035156 C 4.492188 -12.636719 3.984375 -13.140625 3.382812 -13.140625 C 2.78125 -13.140625 2.273438 -12.636719 2.273438 -12.035156 C 2.273438 -11.429688 2.78125 -10.925781 3.382812 -10.925781 Z M 2.546875 0.273438 C 3.558594 0.273438 5.210938 -0.992188 5.210938 -1.847656 C 5.210938 -1.984375 5.171875 -2.097656 5.09375 -2.214844 C 4.800781 -1.710938 4.160156 -1.089844 3.519531 -0.796875 C 3.441406 -1.070312 3.382812 -1.515625 3.382812 -2.023438 C 3.382812 -3.945312 4.21875 -6.941406 4.21875 -8.261719 C 4.21875 -8.710938 4.121094 -9.019531 3.519531 -9.019531 C 2.234375 -9.019531 0.621094 -7.601562 0.621094 -6.726562 C 0.621094 -6.589844 0.660156 -6.453125 0.757812 -6.355469 C 1.148438 -7.074219 1.925781 -7.71875 2.351562 -7.988281 C 2.449219 -7.796875 2.46875 -7.40625 2.46875 -7.132812 C 2.46875 -5.5 1.730469 -3.402344 1.730469 -1.226562 C 1.730469 -0.3125 1.867188 0.273438 2.546875 0.273438 Z M 2.546875 0.273438 "/></g></g></g><g fill="#ffffff" fill-opacity="1"><g transform="translate(109.824298, 103.403984)"><g><path d="M 3.5 0.273438 C 6.511719 0.273438 7.949219 -2.78125 7.949219 -5.5 C 7.949219 -7.347656 7.230469 -9.019531 5.230469 -9.019531 C 2.664062 -9.019531 0.738281 -6.335938 0.738281 -3.011719 C 0.738281 -1.261719 1.359375 0.273438 3.5 0.273438 Z M 4.023438 -0.601562 C 2.488281 -0.601562 2.3125 -2.097656 2.3125 -3.847656 C 2.3125 -6.84375 3.128906 -8.105469 4.53125 -8.105469 C 6.125 -8.105469 6.355469 -6.296875 6.355469 -4.859375 C 6.355469 -2.117188 5.558594 -0.601562 4.023438 -0.601562 Z M 4.023438 -0.601562 "/></g></g></g><g fill="#ffffff" fill-opacity="1"><g transform="translate(118.509391, 103.403984)"><g/></g></g><g fill="#ffffff" fill-opacity="1"><g transform="translate(121.423857, 103.403984)"><g><path d="M 6.355469 -13.140625 C 5.09375 -13.140625 4.023438 -12.636719 3.246094 -11.761719 L 3.246094 -11.820312 C 3.246094 -12.65625 2.972656 -12.984375 2.566406 -12.984375 C 2.3125 -12.984375 2.042969 -12.945312 1.632812 -12.851562 C 1.671875 -12.035156 1.710938 -10.964844 1.710938 -9.71875 C 1.710938 -8.882812 1.691406 -7.96875 1.652344 -7 C 1.339844 -4.53125 1.148438 -0.816406 1.128906 0.136719 C 1.261719 0.214844 1.554688 0.253906 1.710938 0.253906 C 2.546875 0.253906 2.992188 -0.757812 2.992188 -3.226562 C 2.992188 -3.945312 2.933594 -4.820312 2.859375 -5.8125 C 3.128906 -5.597656 3.617188 -5.519531 4.140625 -5.519531 C 6.941406 -5.519531 9.019531 -7.910156 9.019531 -10.515625 C 9.019531 -12.539062 7.699219 -13.140625 6.355469 -13.140625 Z M 2.859375 -6.007812 C 2.953125 -7.113281 3.148438 -9.660156 3.226562 -11.042969 C 3.789062 -11.78125 4.585938 -12.128906 5.539062 -12.128906 C 7.074219 -12.128906 7.484375 -11.140625 7.484375 -9.933594 C 7.484375 -7.132812 5.152344 -6.164062 2.859375 -6.007812 Z M 2.859375 -6.007812 "/></g></g></g><g fill="#ffffff" fill-opacity="1"><g transform="translate(130.866709, 103.403984)"><g><path d="M 4.296875 -1.011719 C 2.972656 -1.011719 2.253906 -1.632812 2.175781 -4.160156 C 2.46875 -4.121094 2.800781 -4.101562 3.128906 -4.101562 C 5.558594 -4.101562 7.25 -5.441406 7.25 -7.210938 C 7.25 -8.398438 6.472656 -9.019531 5.230469 -9.019531 C 2.644531 -9.019531 0.738281 -6.335938 0.738281 -3.226562 C 0.738281 -0.640625 2.003906 0.273438 3.460938 0.273438 C 4.800781 0.273438 6.707031 -0.464844 6.707031 -1.59375 C 6.707031 -1.671875 6.6875 -1.769531 6.667969 -1.847656 C 5.988281 -1.207031 5.035156 -1.011719 4.296875 -1.011719 Z M 4.664062 -8.085938 C 5.792969 -8.085938 5.929688 -7.171875 5.929688 -6.707031 C 5.929688 -5.5 5.230469 -4.839844 3.867188 -4.839844 C 3.324219 -4.839844 2.703125 -4.9375 2.195312 -5.113281 C 2.371094 -7.132812 3.519531 -8.085938 4.664062 -8.085938 Z M 4.664062 -8.085938 "/></g></g></g><g fill="#ffffff" fill-opacity="1"><g transform="translate(138.735757, 103.403984)"><g><path d="M 2.195312 0.273438 C 3.050781 0.273438 4.433594 -1.070312 4.433594 -1.867188 C 4.433594 -2.003906 4.394531 -2.117188 4.316406 -2.214844 C 4.0625 -1.710938 3.363281 -0.992188 2.992188 -0.796875 C 2.78125 -1.261719 2.683594 -2.136719 2.683594 -3.089844 C 2.683594 -4.199219 2.800781 -6.085938 2.914062 -7.367188 C 3.167969 -8.652344 3.5 -10.945312 3.5 -12.421875 C 3.5 -13.800781 3.34375 -14.09375 2.878906 -14.09375 C 2.683594 -14.09375 2.332031 -14.054688 1.789062 -13.898438 C 1.867188 -13.179688 1.886719 -12.421875 1.886719 -11.625 C 1.886719 -7.855469 1.109375 -3.945312 1.109375 -2.082031 C 1.109375 -0.5625 1.535156 0.273438 2.195312 0.273438 Z M 2.195312 0.273438 "/></g></g></g><g fill="#ffffff" fill-opacity="1"><g transform="translate(143.515474, 103.403984)"><g><path d="M 3.382812 -10.925781 C 3.984375 -10.925781 4.492188 -11.429688 4.492188 -12.035156 C 4.492188 -12.636719 3.984375 -13.140625 3.382812 -13.140625 C 2.78125 -13.140625 2.273438 -12.636719 2.273438 -12.035156 C 2.273438 -11.429688 2.78125 -10.925781 3.382812 -10.925781 Z M 2.546875 0.273438 C 3.558594 0.273438 5.210938 -0.992188 5.210938 -1.847656 C 5.210938 -1.984375 5.171875 -2.097656 5.09375 -2.214844 C 4.800781 -1.710938 4.160156 -1.089844 3.519531 -0.796875 C 3.441406 -1.070312 3.382812 -1.515625 3.382812 -2.023438 C 3.382812 -3.945312 4.21875 -6.941406 4.21875 -8.261719 C 4.21875 -8.710938 4.121094 -9.019531 3.519531 -9.019531 C 2.234375 -9.019531 0.621094 -7.601562 0.621094 -6.726562 C 0.621094 -6.589844 0.660156 -6.453125 0.757812 -6.355469 C 1.148438 -7.074219 1.925781 -7.71875 2.351562 -7.988281 C 2.449219 -7.796875 2.46875 -7.40625 2.46875 -7.132812 C 2.46875 -5.5 1.730469 -3.402344 1.730469 -1.226562 C 1.730469 -0.3125 1.867188 0.273438 2.546875 0.273438 Z M 2.546875 0.273438 "/></g></g></g><g fill="#ffffff" fill-opacity="1"><g transform="translate(149.305531, 103.403984)"><g><path d="M 3.382812 0.273438 C 4.839844 0.273438 6.707031 -0.601562 6.707031 -1.945312 C 6.707031 -2.082031 6.6875 -2.214844 6.667969 -2.3125 C 5.851562 -1.359375 4.917969 -1.070312 4.277344 -1.070312 C 3.050781 -1.070312 2.15625 -2.097656 2.15625 -4.433594 C 2.15625 -6.746094 3.1875 -7.96875 4.570312 -7.96875 C 5.40625 -7.96875 5.890625 -7.484375 5.890625 -6.355469 C 5.988281 -6.335938 6.066406 -6.335938 6.144531 -6.335938 C 6.84375 -6.335938 7.113281 -6.765625 7.113281 -7.386719 C 7.113281 -8.378906 6.414062 -9.019531 5.210938 -9.019531 C 2.742188 -9.019531 0.738281 -6.394531 0.738281 -3.128906 C 0.738281 -0.503906 2.003906 0.273438 3.382812 0.273438 Z M 3.382812 0.273438 "/></g></g></g><g fill="#ffffff" fill-opacity="1"><g transform="translate(156.766552, 103.403984)"><g><path d="M 4.296875 -1.011719 C 2.972656 -1.011719 2.253906 -1.632812 2.175781 -4.160156 C 2.46875 -4.121094 2.800781 -4.101562 3.128906 -4.101562 C 5.558594 -4.101562 7.25 -5.441406 7.25 -7.210938 C 7.25 -8.398438 6.472656 -9.019531 5.230469 -9.019531 C 2.644531 -9.019531 0.738281 -6.335938 0.738281 -3.226562 C 0.738281 -0.640625 2.003906 0.273438 3.460938 0.273438 C 4.800781 0.273438 6.707031 -0.464844 6.707031 -1.59375 C 6.707031 -1.671875 6.6875 -1.769531 6.667969 -1.847656 C 5.988281 -1.207031 5.035156 -1.011719 4.296875 -1.011719 Z M 4.664062 -8.085938 C 5.792969 -8.085938 5.929688 -7.171875 5.929688 -6.707031 C 5.929688 -5.5 5.230469 -4.839844 3.867188 -4.839844 C 3.324219 -4.839844 2.703125 -4.9375 2.195312 -5.113281 C 2.371094 -7.132812 3.519531 -8.085938 4.664062 -8.085938 Z M 4.664062 -8.085938 "/></g></g></g><g fill="#ffffff" fill-opacity="1"><g transform="translate(164.635601, 103.403984)"><g><path d="M 6.296875 -9.019531 C 5.539062 -9.019531 4.570312 -8.203125 3.867188 -6.882812 C 3.769531 -8.125 3.441406 -9.019531 2.683594 -9.019531 C 1.691406 -9.019531 0.351562 -7.523438 0.351562 -6.707031 C 0.351562 -6.570312 0.390625 -6.433594 0.484375 -6.355469 C 0.855469 -7.019531 1.300781 -7.523438 1.847656 -7.929688 C 2.214844 -7.894531 2.429688 -7.058594 2.429688 -5.460938 C 2.429688 -4.683594 2.351562 -3.714844 2.195312 -2.566406 C 1.867188 -1.59375 1.828125 -0.777344 1.769531 0.175781 C 2.003906 0.253906 2.390625 0.273438 2.507812 0.273438 C 3.304688 0.273438 3.617188 -0.621094 3.789062 -2.953125 C 3.867188 -4.101562 3.925781 -4.898438 3.925781 -5.617188 L 3.925781 -6.105469 C 4.335938 -7.019531 4.859375 -7.582031 5.367188 -7.582031 C 5.792969 -7.582031 5.890625 -7.171875 5.890625 -6.726562 C 5.890625 -6.53125 5.871094 -6.335938 5.851562 -6.144531 C 6.707031 -6.628906 7.074219 -7.269531 7.074219 -8.007812 C 7.074219 -8.457031 6.941406 -9.019531 6.296875 -9.019531 Z M 6.296875 -9.019531 "/></g></g></g><g fill="#ffffff" fill-opacity="1"><g transform="translate(84.24529, 122.153983)"><g><path d="M 12.617188 -12.871094 C 11.160156 -12.871094 9.546875 -7.113281 8.554688 -3.050781 C 8.203125 -6.824219 7.132812 -12.871094 5.675781 -12.871094 C 3.964844 -12.871094 1.632812 -4.453125 1.632812 -1.226562 C 1.632812 -0.078125 1.945312 0.0585938 2.953125 0 C 3.617188 -5.289062 4.160156 -8.652344 5.421875 -11.429688 C 6.296875 -9.816406 7.582031 -5.171875 7.796875 0.175781 C 8.027344 0.273438 8.261719 0.292969 8.378906 0.292969 C 9.039062 0.292969 9.371094 -0.464844 9.796875 -2.859375 C 10.128906 -4.78125 11.003906 -8.027344 12.363281 -11.410156 C 13.394531 -9.371094 13.78125 -5.460938 13.839844 -2.253906 C 13.878906 -0.136719 14.035156 0.253906 14.636719 0.253906 C 14.773438 0.253906 15.222656 0.234375 15.472656 0.0976562 C 15.222656 -7.191406 14.074219 -12.871094 12.617188 -12.871094 Z M 12.617188 -12.871094 "/></g></g></g><g fill="#ffffff" fill-opacity="1"><g transform="translate(100.974297, 122.153983)"><g><path d="M 7.601562 -12.65625 C 7.601562 -13.296875 7 -13.550781 6.472656 -13.550781 C 6.375 -12.148438 5.035156 -10.789062 3.1875 -10.226562 C 3.402344 -10.148438 3.636719 -10.109375 3.90625 -10.109375 C 5.460938 -10.109375 7.601562 -11.507812 7.601562 -12.65625 Z M 9.214844 -2.214844 C 8.960938 -1.710938 8.417969 -1.167969 7.96875 -0.894531 C 7.40625 -1.496094 7.386719 -2.488281 7.386719 -3.382812 C 7.386719 -3.964844 7.40625 -4.585938 7.40625 -5.171875 C 7.582031 -5.695312 7.660156 -6.394531 7.660156 -6.980469 C 7.660156 -7.308594 7.640625 -7.601562 7.601562 -7.835938 C 6.980469 -8.613281 6.257812 -9.019531 5.367188 -9.019531 C 2.625 -9.019531 0.796875 -5.578125 0.796875 -2.390625 C 0.796875 -1.128906 1.089844 0.273438 2.332031 0.273438 C 3.636719 0.273438 4.957031 -1.1875 5.8125 -2.859375 C 5.851562 -1.457031 6.164062 0.273438 7.210938 0.273438 C 8.105469 0.273438 9.332031 -1.03125 9.332031 -1.847656 C 9.332031 -1.984375 9.292969 -2.117188 9.214844 -2.214844 Z M 3.1875 -1.109375 C 2.585938 -1.109375 2.234375 -1.769531 2.234375 -3.285156 C 2.234375 -5.5 2.878906 -8.027344 4.742188 -8.027344 C 5.289062 -8.027344 5.949219 -7.777344 6.570312 -6.824219 C 6.125 -5.988281 5.890625 -4.742188 5.832031 -3.617188 C 5.054688 -2.042969 3.886719 -1.109375 3.1875 -1.109375 Z M 3.1875 -1.109375 "/></g></g></g><g fill="#ffffff" fill-opacity="1"><g transform="translate(110.553161, 122.153983)"><g><path d="M 7.542969 -6.882812 C 7.542969 -8.105469 7.328125 -8.980469 6.824219 -8.980469 C 6.726562 -8.980469 6.492188 -8.941406 6.277344 -8.804688 C 5.988281 -8.960938 5.65625 -9.019531 5.308594 -9.019531 C 3.148438 -9.019531 1.03125 -6.609375 0.757812 -3.070312 C 0.738281 -2.859375 0.738281 -2.644531 0.738281 -2.410156 C 0.738281 -1.128906 1.03125 0.273438 2.3125 0.273438 C 3.695312 0.273438 5.113281 -1.378906 5.96875 -3.167969 C 5.871094 -2.003906 5.773438 -0.914062 5.675781 -0.078125 C 5.367188 1.417969 5.230469 2.992188 5.230469 3.65625 C 5.230469 4.878906 5.675781 5.269531 6.222656 5.269531 C 6.492188 5.269531 6.804688 5.171875 7.058594 5.035156 C 6.960938 4.0625 6.941406 3.011719 6.941406 1.808594 C 6.941406 -1.59375 7.542969 -4.839844 7.542969 -6.882812 Z M 3.128906 -1.109375 C 2.527344 -1.109375 2.175781 -1.769531 2.175781 -3.285156 C 2.175781 -3.734375 2.214844 -4.238281 2.273438 -4.839844 C 2.585938 -7 3.285156 -8.027344 4.761719 -8.027344 C 5.191406 -8.027344 5.617188 -7.894531 6.027344 -7.484375 C 6.066406 -7.09375 6.085938 -6.628906 6.085938 -6.164062 C 6.085938 -5.539062 6.066406 -4.878906 6.027344 -4.21875 C 5.269531 -2.273438 3.925781 -1.109375 3.128906 -1.109375 Z M 3.128906 -1.109375 "/></g></g></g><g fill="#ffffff" fill-opacity="1"><g transform="translate(119.31597, 122.153983)"><g><path d="M 10.011719 -2.390625 C 9.621094 -1.730469 9.214844 -1.226562 8.632812 -0.816406 C 8.144531 -1.28125 7.96875 -2.371094 7.96875 -3.460938 C 7.96875 -4.023438 8.007812 -4.683594 8.085938 -5.40625 C 8.398438 -6.125 8.59375 -7.230469 8.59375 -8.164062 C 8.59375 -8.4375 8.59375 -8.671875 8.554688 -8.902344 C 8.457031 -8.921875 8.339844 -8.941406 8.183594 -8.941406 C 7.191406 -8.941406 6.941406 -8.046875 6.785156 -5.96875 C 6.726562 -5.113281 6.667969 -4.316406 6.648438 -3.597656 C 5.871094 -2.082031 4.472656 -1.089844 3.75 -1.089844 C 3.304688 -1.089844 3.128906 -1.476562 3.128906 -2.332031 C 3.128906 -2.933594 3.207031 -3.75 3.363281 -4.839844 C 3.519531 -5.851562 3.597656 -6.628906 3.597656 -7.230469 C 3.597656 -8.457031 3.265625 -8.921875 2.644531 -8.921875 C 1.671875 -8.921875 0.484375 -7.777344 0.484375 -6.902344 C 0.484375 -6.746094 0.523438 -6.589844 0.621094 -6.453125 C 1.011719 -7.113281 1.4375 -7.582031 1.945312 -7.875 C 2.082031 -7.757812 2.117188 -7.425781 2.117188 -7 C 2.117188 -6.316406 2.003906 -5.386719 1.90625 -4.742188 C 1.710938 -3.460938 1.554688 -2.371094 1.554688 -1.535156 C 1.554688 -0.390625 1.847656 0.273438 2.742188 0.273438 C 3.925781 0.273438 5.558594 -0.914062 6.648438 -2.820312 C 6.667969 -0.953125 6.980469 0.273438 7.777344 0.273438 C 8.632812 0.273438 10.128906 -1.050781 10.128906 -2.003906 C 10.128906 -2.15625 10.089844 -2.273438 10.011719 -2.390625 Z M 10.011719 -2.390625 "/></g></g></g><g fill="#ffffff" fill-opacity="1"><g transform="translate(129.730311, 122.153983)"><g><path d="M 3.382812 -10.925781 C 3.984375 -10.925781 4.492188 -11.429688 4.492188 -12.035156 C 4.492188 -12.636719 3.984375 -13.140625 3.382812 -13.140625 C 2.78125 -13.140625 2.273438 -12.636719 2.273438 -12.035156 C 2.273438 -11.429688 2.78125 -10.925781 3.382812 -10.925781 Z M 2.546875 0.273438 C 3.558594 0.273438 5.210938 -0.992188 5.210938 -1.847656 C 5.210938 -1.984375 5.171875 -2.097656 5.09375 -2.214844 C 4.800781 -1.710938 4.160156 -1.089844 3.519531 -0.796875 C 3.441406 -1.070312 3.382812 -1.515625 3.382812 -2.023438 C 3.382812 -3.945312 4.21875 -6.941406 4.21875 -8.261719 C 4.21875 -8.710938 4.121094 -9.019531 3.519531 -9.019531 C 2.234375 -9.019531 0.621094 -7.601562 0.621094 -6.726562 C 0.621094 -6.589844 0.660156 -6.453125 0.757812 -6.355469 C 1.148438 -7.074219 1.925781 -7.71875 2.351562 -7.988281 C 2.449219 -7.796875 2.46875 -7.40625 2.46875 -7.132812 C 2.46875 -5.5 1.730469 -3.402344 1.730469 -1.226562 C 1.730469 -0.3125 1.867188 0.273438 2.546875 0.273438 Z M 2.546875 0.273438 "/></g></g></g><g fill="#ffffff" fill-opacity="1"><g transform="translate(135.520369, 122.153983)"><g><path d="M 10.089844 -2.214844 C 9.816406 -1.710938 9.273438 -1.089844 8.785156 -0.816406 C 8.652344 -0.875 8.59375 -1.167969 8.59375 -1.535156 C 8.59375 -2.507812 8.980469 -4.664062 9.117188 -5.347656 C 9.273438 -6.164062 9.351562 -6.824219 9.351562 -7.347656 C 9.351562 -8.535156 8.941406 -9.019531 8.085938 -9.019531 C 6.550781 -9.019531 4.78125 -7.445312 3.886719 -5.753906 C 3.886719 -7.5625 3.65625 -9.019531 2.683594 -9.019531 C 1.691406 -9.019531 0.351562 -7.523438 0.351562 -6.707031 C 0.351562 -6.570312 0.390625 -6.433594 0.484375 -6.355469 C 0.855469 -7.019531 1.300781 -7.523438 1.847656 -7.929688 C 2.234375 -7.894531 2.46875 -7.058594 2.46875 -5.460938 C 2.46875 -4.800781 2.449219 -4.003906 2.371094 -3.070312 C 2.023438 -2.292969 1.847656 -1.246094 1.847656 0.175781 C 2.117188 0.253906 2.507812 0.273438 2.683594 0.273438 C 3.460938 0.273438 3.65625 -0.621094 3.808594 -3.34375 L 3.867188 -4.585938 C 4.453125 -6.085938 5.890625 -7.816406 7.09375 -7.816406 C 7.582031 -7.816406 7.757812 -7.503906 7.757812 -6.960938 C 7.757812 -6.609375 7.699219 -6.183594 7.601562 -5.65625 C 7.445312 -4.742188 7.058594 -2.097656 7.058594 -0.992188 C 7.058594 -0.15625 7.289062 0.273438 7.910156 0.273438 C 9 0.273438 10.207031 -1.03125 10.207031 -1.847656 C 10.207031 -1.984375 10.167969 -2.117188 10.089844 -2.214844 Z M 10.089844 -2.214844 "/></g></g></g><g fill="#ffffff" fill-opacity="1"><g transform="translate(146.49817, 122.153983)"><g><path d="M 9.214844 -2.214844 C 8.960938 -1.710938 8.417969 -1.167969 7.96875 -0.894531 C 7.40625 -1.496094 7.386719 -2.488281 7.386719 -3.382812 C 7.386719 -3.964844 7.40625 -4.585938 7.40625 -5.171875 C 7.582031 -5.695312 7.660156 -6.394531 7.660156 -6.980469 C 7.660156 -7.308594 7.640625 -7.601562 7.601562 -7.835938 C 6.980469 -8.613281 6.257812 -9.019531 5.367188 -9.019531 C 2.625 -9.019531 0.796875 -5.578125 0.796875 -2.390625 C 0.796875 -1.128906 1.089844 0.273438 2.332031 0.273438 C 3.636719 0.273438 4.957031 -1.1875 5.8125 -2.859375 C 5.851562 -1.457031 6.164062 0.273438 7.210938 0.273438 C 8.105469 0.273438 9.332031 -1.03125 9.332031 -1.847656 C 9.332031 -1.984375 9.292969 -2.117188 9.214844 -2.214844 Z M 3.1875 -1.109375 C 2.585938 -1.109375 2.234375 -1.769531 2.234375 -3.285156 C 2.234375 -5.5 2.878906 -8.027344 4.742188 -8.027344 C 5.289062 -8.027344 5.949219 -7.777344 6.570312 -6.824219 C 6.125 -5.988281 5.890625 -4.742188 5.832031 -3.617188 C 5.054688 -2.042969 3.886719 -1.109375 3.1875 -1.109375 Z M 3.1875 -1.109375 "/></g></g></g><g fill="#ffffff" fill-opacity="1"><g transform="translate(156.077035, 122.153983)"><g><path d="M 3.285156 0.273438 C 5.308594 0.273438 6.824219 -0.757812 6.824219 -2.527344 C 6.824219 -4.042969 5.714844 -4.761719 4.570312 -5.289062 C 3.421875 -5.8125 2.761719 -6.335938 2.761719 -7.210938 C 2.761719 -7.929688 3.285156 -8.378906 4.121094 -8.378906 C 5.015625 -8.378906 5.578125 -7.71875 5.597656 -6.785156 C 6.628906 -6.6875 6.863281 -7.230469 6.863281 -7.679688 C 6.863281 -8.785156 5.421875 -9.019531 4.644531 -9.019531 C 3.285156 -9.019531 1.398438 -8.339844 1.398438 -6.394531 C 1.398438 -4.9375 2.410156 -4.394531 3.617188 -3.867188 C 4.683594 -3.402344 5.597656 -2.933594 5.597656 -1.847656 C 5.597656 -1.050781 5.132812 -0.445312 4.101562 -0.445312 C 2.878906 -0.445312 1.964844 -1.300781 1.964844 -2.292969 C 1.964844 -2.410156 1.964844 -2.546875 2.003906 -2.664062 C 1.886719 -2.683594 1.789062 -2.683594 1.710938 -2.683594 C 0.835938 -2.683594 0.640625 -1.925781 0.640625 -1.476562 C 0.640625 -0.621094 1.378906 0.273438 3.285156 0.273438 Z M 3.285156 0.273438 "/></g></g></g><g fill="#ffffff" fill-opacity="1"><g transform="translate(163.897629, 122.153983)"><g/></g></g></svg>