<?xml version="1.0" standalone="no"?>
<!DOCTYPE svg PUBLIC "-//W3C//DTD SVG 20010904//EN"
 "http://www.w3.org/TR/2001/REC-SVG-20010904/DTD/svg10.dtd">
<svg version="1.0" xmlns="http://www.w3.org/2000/svg"
 width="1032.000000pt" height="581.000000pt" viewBox="0 0 1032.000000 581.000000"
 preserveAspectRatio="xMidYMid meet">

<g transform="translate(0.000000,581.000000) scale(0.100000,-0.100000)"
fill="#000000" stroke="none">
<path d="M6219 5797 c7 -10 19 -17 27 -17 7 0 15 -10 17 -22 4 -21 4 -20 6 3
1 17 -5 29 -16 33 -10 3 -25 9 -33 13 -13 5 -13 4 -1 -10z"/>
<path d="M6501 5648 c1 -114 4 -151 10 -123 12 58 11 285 -1 285 -6 0 -10 -60
-9 -162z"/>
<path d="M10165 5799 c-245 -23 -520 -50 -605 -59 -249 -26 -489 -51 -630 -65
-85 -9 -202 -20 -260 -26 -58 -6 -157 -17 -220 -24 -63 -8 -152 -17 -196 -21
-73 -6 -83 -9 -93 -30 -14 -31 -67 -63 -92 -57 -10 3 -19 1 -19 -5 0 -5 8 -9
17 -8 10 0 19 -8 22 -22 6 -22 6 -22 22 -4 9 11 19 25 22 33 3 8 6 -6 7 -31 1
-35 3 -40 10 -25 5 11 9 34 10 50 0 26 2 28 11 12 6 -10 8 -25 5 -33 -4 -9 1
-14 16 -14 16 0 18 3 9 14 -8 9 -8 22 -2 38 11 30 45 36 366 68 566 57 803 82
935 96 80 8 233 24 340 34 513 51 480 46 480 71 0 22 -7 22 -155 8z"/>
<path d="M6263 5660 c0 -36 2 -50 4 -32 2 17 2 47 0 65 -2 17 -4 3 -4 -33z"/>
<path d="M6112 5600 c0 -19 2 -27 5 -17 2 9 2 25 0 35 -3 9 -5 1 -5 -18z"/>
<path d="M6234 5586 c-4 -10 -2 -22 4 -28 8 -8 13 -7 18 6 4 10 2 22 -4 28 -8
8 -13 7 -18 -6z"/>
<path d="M7810 5562 c-133 -16 -142 -17 -160 -24 -8 -4 -80 -14 -160 -23 -80
-9 -203 -25 -275 -35 -128 -19 -129 -19 -40 -14 50 3 151 11 225 18 74 8 240
24 368 37 127 13 232 27 232 31 0 4 -5 8 -11 8 -5 0 -7 4 -4 10 7 12 -30 10
-175 -8z"/>
<path d="M6188 5523 c7 -3 16 -2 19 1 4 3 -2 6 -13 5 -11 0 -14 -3 -6 -6z"/>
<path d="M7870 5520 c-36 -5 -166 -18 -290 -30 -283 -28 -540 -61 -425 -54 44
2 121 9 170 14 50 6 227 24 394 40 167 16 306 32 309 35 7 7 -79 4 -158 -5z"/>
<path d="M8378 5493 c7 -3 16 -2 19 1 4 3 -2 6 -13 5 -11 0 -14 -3 -6 -6z"/>
<path d="M8253 5483 c9 -2 23 -2 30 0 6 3 -1 5 -18 5 -16 0 -22 -2 -12 -5z"/>
<path d="M6988 5453 c12 -2 32 -2 45 0 12 2 2 4 -23 4 -25 0 -35 -2 -22 -4z"/>
<path d="M6560 5412 c0 -21 -42 -72 -60 -72 -5 0 -10 -4 -10 -10 0 -5 7 -7 15
-4 10 4 15 0 15 -11 0 -14 3 -15 15 -5 8 7 15 19 15 26 0 8 4 14 9 14 6 0 12
-21 14 -47 3 -47 3 -47 5 10 2 58 22 83 22 27 0 -39 15 -38 40 3 17 28 27 33
87 43 64 11 65 12 23 13 -35 1 -42 4 -30 12 11 8 -4 9 -56 6 -39 -2 -79 0 -88
5 -12 7 -16 5 -16 -10z"/>
<path d="M7008 5423 c12 -2 32 -2 45 0 12 2 2 4 -23 4 -25 0 -35 -2 -22 -4z"/>
<path d="M8008 5423 c7 -3 16 -2 19 1 4 3 -2 6 -13 5 -11 0 -14 -3 -6 -6z"/>
<path d="M6913 5413 c15 -2 37 -2 50 0 12 2 0 4 -28 4 -27 0 -38 -2 -22 -4z"/>
<path d="M7933 5413 c9 -2 23 -2 30 0 6 3 -1 5 -18 5 -16 0 -22 -2 -12 -5z"/>
<path d="M8144 5335 c0 -49 1 -71 3 -48 2 23 2 64 0 90 -2 26 -3 8 -3 -42z"/>
<path d="M6800 5402 c0 -4 18 -6 40 -4 22 2 40 6 40 8 0 2 -18 4 -40 4 -22 0
-40 -3 -40 -8z"/>
<path d="M7818 5403 c12 -2 30 -2 40 0 9 3 -1 5 -23 4 -22 0 -30 -2 -17 -4z"/>
<path d="M6348 5394 c-3 -3 -23 -7 -45 -9 -21 -2 -72 -9 -113 -14 -41 -6 -113
-15 -160 -21 -47 -6 -105 -14 -130 -20 -39 -8 -36 -9 25 -4 39 4 81 6 95 6 21
1 170 16 302 33 58 7 88 16 82 26 -6 10 -47 12 -56 3z"/>
<path d="M7698 5393 c12 -2 32 -2 45 0 12 2 2 4 -23 4 -25 0 -35 -2 -22 -4z"/>
<path d="M7613 5383 c9 -2 23 -2 30 0 6 3 -1 5 -18 5 -16 0 -22 -2 -12 -5z"/>
<path d="M7513 5373 c9 -2 23 -2 30 0 6 3 -1 5 -18 5 -16 0 -22 -2 -12 -5z"/>
<path d="M7418 5363 c7 -3 16 -2 19 1 4 3 -2 6 -13 5 -11 0 -14 -3 -6 -6z"/>
<path d="M4840 5200 c-41 -6 -42 -7 -10 -8 19 0 58 3 85 8 47 7 48 7 10 7 -22
0 -60 -3 -85 -7z"/>
<path d="M4618 5193 c7 -3 16 -2 19 1 4 3 -2 6 -13 5 -11 0 -14 -3 -6 -6z"/>
<path d="M4415 5178 c-33 -4 -90 -10 -128 -13 -37 -4 -65 -10 -62 -15 11 -18
-19 -22 -31 -5 -11 14 -21 16 -58 11 -27 -4 -46 -13 -46 -20 0 -7 -10 -23 -22
-36 l-22 -23 22 5 c11 3 23 1 25 -6 3 -6 8 1 12 17 8 30 25 37 26 10 0 -15 2
-15 9 2 9 24 17 9 22 -40 l3 -30 22 25 c12 14 28 33 35 43 11 14 42 22 128 35
63 8 117 19 118 24 2 4 11 8 20 8 15 0 15 -2 2 -10 -13 -9 -13 -10 0 -10 18 0
50 19 35 21 -5 0 1 5 15 9 20 7 16 8 -20 7 -25 -1 -72 -5 -105 -9z m18 -15
c-7 -2 -19 -2 -25 0 -7 3 -2 5 12 5 14 0 19 -2 13 -5z"/>
<path d="M4653 5173 c9 -2 23 -2 30 0 6 3 -1 5 -18 5 -16 0 -22 -2 -12 -5z"/>
<path d="M4573 5163 c9 -2 23 -2 30 0 6 3 -1 5 -18 5 -16 0 -22 -2 -12 -5z"/>
<path d="M8132 5094 c-2 -78 -7 -84 -66 -84 -18 0 -36 -4 -41 -9 -6 -6 -129
-19 -275 -31 -146 -11 -335 -27 -420 -36 -85 -8 -213 -19 -285 -24 -71 -5
-168 -14 -215 -20 -47 -5 -143 -12 -215 -14 -71 -3 -144 -9 -162 -14 -18 -6
-63 -13 -100 -17 -133 -13 -147 -15 -154 -26 -4 -8 -8 -7 -11 1 -3 11 -23 11
-99 1 -51 -7 -95 -16 -97 -22 -2 -5 -11 -9 -21 -9 -9 0 -22 -13 -28 -31 -11
-29 -15 -31 -45 -25 -18 4 -55 9 -81 11 -47 3 -49 3 -43 -20 5 -19 3 -22 -14
-18 -11 3 -20 1 -20 -5 0 -5 -8 -12 -17 -15 -10 -4 -28 -14 -40 -23 -22 -16
-23 -16 -23 12 l0 29 -26 -32 c-13 -18 -38 -42 -54 -53 l-29 -21 11 33 c6 18
14 38 18 43 12 17 21 77 10 70 -6 -3 -10 -13 -10 -21 0 -8 -10 -34 -22 -57
-16 -30 -23 -37 -26 -24 -2 9 -12 17 -23 17 -25 0 -24 25 1 50 27 27 25 31 -6
20 -35 -14 -35 -13 -24 15 l10 25 -108 -4 c-132 -6 -547 -33 -702 -46 -63 -5
-141 -10 -172 -10 -53 0 -58 -2 -58 -22 -1 -13 -2 -161 -4 -330 -2 -272 -1
-308 13 -312 9 -3 50 -10 91 -17 80 -13 103 -23 74 -33 -11 -3 -29 -21 -42
-40 -23 -33 -23 -36 -9 -108 9 -49 11 -81 4 -95 -14 -31 19 -111 55 -133 15
-9 25 -20 21 -23 -3 -4 19 -7 50 -7 31 0 57 -3 57 -8 0 -11 69 -46 77 -39 3 4
11 3 17 -2 6 -4 21 -10 32 -13 27 -7 48 33 64 123 7 35 16 71 21 80 4 9 15 47
23 85 13 67 13 70 -11 117 -13 27 -22 51 -19 54 5 5 584 26 1176 43 195 5 398
13 450 16 52 4 101 7 107 5 7 -1 213 5 458 14 245 8 453 15 463 15 12 0 28 17
45 48 47 85 136 162 188 162 10 0 19 4 19 8 0 4 16 6 35 4 19 -2 33 -8 30 -12
-3 -4 2 -10 10 -14 21 -8 19 -25 -2 -26 -10 0 -36 -2 -58 -3 -59 -3 -105 -27
-105 -54 0 -13 -4 -23 -9 -23 -5 0 -12 -15 -16 -32 -4 -18 -16 -59 -27 -90
-11 -32 -18 -68 -15 -80 4 -15 -2 -33 -19 -55 -29 -38 -52 -45 -29 -9 10 15
12 26 6 30 -6 4 -17 -7 -26 -24 -16 -30 -35 -33 -35 -4 0 8 -9 14 -19 14 -21
0 -38 -56 -48 -162 l-6 -58 -123 0 c-111 0 -124 -2 -124 -17 -1 -10 -3 -46 -6
-80 l-6 -63 126 0 c69 0 126 -2 126 -6 0 -3 -12 -21 -27 -40 -36 -46 -123 -86
-246 -114 -54 -12 -152 -39 -218 -61 -67 -21 -125 -36 -131 -33 -20 13 -56 -7
-85 -49 -17 -23 -48 -61 -67 -82 -20 -22 -44 -53 -52 -69 -13 -23 -18 -26 -24
-15 -13 24 -22 99 -13 99 5 0 15 11 22 23 7 13 37 39 67 57 42 25 54 38 54 57
0 50 16 63 79 63 l58 0 6 34 c9 54 -3 115 -23 121 -21 7 -36 38 -21 43 6 2 11
9 11 15 0 8 -3 8 -11 0 -13 -13 -39 -6 -39 9 0 6 7 8 15 4 10 -4 15 1 15 15 0
11 4 17 10 14 20 -12 40 15 33 44 -3 14 -10 29 -15 32 -5 3 -1 20 9 37 l18 31
-33 31 c-23 21 -43 30 -67 30 -19 0 -36 4 -39 9 -3 5 -25 13 -49 19 -47 12
-68 30 -98 80 -10 17 -25 32 -32 32 -8 0 -31 -15 -51 -34 -20 -19 -44 -35 -54
-35 -41 -1 -52 -5 -52 -18 0 -11 -4 -11 -20 -1 -11 7 -20 19 -20 27 0 24 -49
-29 -78 -84 -26 -47 -27 -58 -27 -192 0 -139 5 -161 29 -117 6 10 15 22 19 25
5 3 10 21 11 40 2 19 8 44 14 56 7 12 12 31 12 42 0 27 42 71 67 71 11 0 25
-6 32 -13 8 -11 5 -13 -17 -9 -39 5 -59 -22 -66 -88 -3 -30 -6 -68 -8 -84 -3
-28 -2 -29 42 -30 43 -1 45 -2 45 -31 0 -20 -5 -30 -15 -30 -22 -1 -40 -14
-40 -31 0 -8 -12 -40 -26 -70 -26 -55 -26 -55 -47 -37 -25 22 -16 4 23 -47 15
-19 46 -68 70 -109 24 -41 52 -76 61 -78 16 -5 34 -31 26 -39 -2 -2 -13 5 -25
16 -12 11 -25 20 -29 20 -11 0 -84 -76 -107 -110 -25 -37 -19 -44 15 -19 l32
22 29 -32 c22 -25 36 -32 54 -28 13 2 28 -1 33 -7 6 -7 13 -59 16 -116 7 -110
-7 -196 -40 -246 -8 -13 -15 -34 -15 -48 0 -14 -4 -28 -10 -31 -15 -9 -12 -20
9 -46 l19 -24 11 28 c18 47 99 60 137 23 26 -27 29 -72 5 -97 -12 -13 -21 -30
-21 -39 0 -9 -3 -20 -7 -23 -3 -4 -8 -24 -10 -45 -2 -20 -9 -47 -15 -60 -10
-18 -9 -26 5 -39 13 -14 14 -18 3 -27 -18 -15 -29 -76 -14 -76 19 0 -4 -17
-33 -24 -33 -7 -57 29 -40 62 17 32 18 223 1 249 -19 29 -24 29 -49 -3 -19
-25 -24 -26 -61 -16 -26 6 -55 7 -82 0 -23 -5 -60 -10 -82 -11 -36 -3 -42 -7
-63 -47 -29 -55 -31 -56 -45 -42 -17 17 -45 15 -52 -4 -5 -12 -13 -9 -43 20
-41 38 -51 40 -33 6 7 -13 9 -37 6 -55 -4 -19 -2 -36 4 -40 5 -3 10 -27 10
-53 0 -56 -12 -44 -36 38 -9 30 -22 63 -29 74 -14 19 -15 18 -25 -8 -5 -15
-10 -34 -10 -42 0 -19 -45 -64 -64 -64 -8 0 -17 9 -21 19 -5 17 -10 18 -40 8
-44 -13 -52 -5 -36 39 7 20 11 37 9 40 -3 2 -26 -23 -52 -57 -57 -73 -54 -80
41 -94 l67 -10 33 -60 c18 -33 38 -70 45 -82 6 -13 19 -23 28 -23 9 0 21 -5
28 -12 9 -9 17 -9 36 1 19 11 31 11 62 0 22 -7 45 -19 53 -26 13 -10 11 -16
-12 -37 -27 -25 -79 -42 -97 -31 -5 3 -21 -6 -35 -21 -24 -26 -25 -26 -25 -5
0 12 -6 21 -15 21 -8 0 -15 -5 -15 -11 0 -6 -7 -17 -15 -26 -9 -8 -19 -28 -22
-44 -6 -34 -29 -38 -38 -8 -7 19 -8 20 -26 3 -11 -9 -22 -14 -26 -11 -8 8 -53
-52 -53 -71 0 -16 24 -42 39 -42 6 0 11 -5 11 -11 0 -7 -10 -9 -25 -5 -29 7
-33 -8 -9 -36 14 -15 15 -20 4 -33 -9 -11 -14 -55 -16 -132 -2 -63 -6 -118 -9
-121 -14 -14 -23 26 -30 131 -3 62 -8 124 -10 139 -2 14 -6 111 -9 215 -4 103
-11 217 -16 253 -8 59 -13 148 -11 192 1 10 19 27 41 38 22 11 46 33 54 48 19
37 95 122 109 122 7 1 35 12 62 25 l50 24 -61 0 c-70 1 -144 -21 -170 -51 -19
-21 -19 -21 4 -16 12 4 22 2 22 -2 0 -8 -34 -23 -54 -25 -5 0 -14 -14 -20 -32
-6 -18 -19 -42 -28 -53 -10 -11 -18 -27 -18 -36 0 -9 -5 -12 -11 -8 -9 5 -10
67 -4 228 9 263 9 316 0 379 -18 123 123 321 305 428 41 24 81 49 88 56 7 7
17 13 22 13 5 0 -9 19 -31 41 -31 32 -43 39 -49 28 -7 -10 -14 -7 -34 14 -49
53 -59 85 -63 202 -4 88 -9 120 -28 162 -27 61 -56 79 -141 88 -71 8 -108 -4
-174 -60 -53 -44 -58 -52 -65 -99 -5 -46 -15 -63 -25 -46 -6 10 -24 5 -74 -18
-51 -24 -66 -36 -66 -52 0 -13 -8 -24 -19 -27 -10 -2 -24 -16 -30 -29 -10 -22
-9 -24 19 -24 23 0 28 3 23 17 -4 11 -3 14 5 9 7 -4 12 -18 12 -32 0 -24 -2
-24 -52 -18 -29 4 -60 13 -69 20 -14 12 -15 9 -13 -32 5 -76 11 -87 47 -80 17
4 34 11 38 17 13 22 31 -3 27 -37 l-4 -34 52 0 c29 0 56 -5 60 -11 3 -6 17 -8
30 -5 28 7 31 -6 10 -46 -12 -22 -12 -29 -1 -38 9 -8 15 -8 20 0 9 15 19 12
33 -11 12 -19 9 -26 -25 -68 -21 -25 -47 -59 -57 -76 -10 -16 -29 -41 -41 -55
-13 -14 -33 -61 -45 -107 -22 -81 -40 -101 -40 -42 0 23 -4 29 -21 29 -15 0
-19 5 -15 15 3 8 2 15 -2 15 -7 0 -9 10 -13 68 -1 30 -23 77 -48 106 -11 12
-16 37 -16 80 0 51 -3 61 -16 58 -13 -2 -18 9 -22 44 -6 53 -30 89 -26 39 6
-77 -11 -117 -25 -60 -11 44 -27 17 -20 -33 l7 -47 -22 20 -22 19 10 -28 c15
-38 14 -42 -8 -22 -12 11 -21 14 -25 7 -4 -7 -29 1 -65 20 -72 38 -94 33 -115
-24 l-14 -42 -2 60 c-1 65 -2 64 -37 -30 -29 -77 -56 -130 -60 -117 -3 7 0 27
6 44 22 63 7 104 -21 58 -20 -32 -37 -23 -41 23 -3 23 -3 13 -2 -23 5 -99 50
-302 89 -394 26 -61 129 -199 169 -226 l32 -22 -33 6 c-42 7 -87 39 -105 74
-87 168 -157 340 -157 384 0 7 -6 24 -13 38 -7 14 -19 46 -26 73 -8 26 -20 48
-27 48 -8 1 -20 2 -26 3 -8 0 -14 18 -16 41 -5 60 -16 61 -40 2 -17 -41 -25
-88 -33 -208 -5 -85 -10 -173 -11 -196 0 -24 -4 -43 -8 -43 -5 0 -10 -19 -14
-42 -3 -24 -8 -60 -12 -80 -4 -28 -3 -38 7 -38 8 0 4 -7 -8 -15 -19 -13 -20
-19 -12 -45 9 -23 8 -33 -4 -45 -21 -20 -27 -19 -27 5 0 11 3 20 8 20 11 0 15
202 4 209 -12 7 3 221 18 271 12 38 19 160 9 160 -3 0 -11 -18 -18 -40 -6 -22
-15 -40 -19 -40 -9 0 -37 -77 -47 -127 -4 -18 -11 -33 -16 -33 -6 0 -7 -5 -4
-11 4 -6 -1 -16 -10 -23 -14 -10 -18 -26 -16 -79 1 -38 -4 -75 -11 -86 -9 -15
-9 -23 1 -35 13 -16 6 -56 -9 -56 -5 0 -14 9 -20 20 -6 11 -7 20 -3 20 4 0 9
37 11 81 1 45 6 89 10 98 11 22 8 139 -4 151 -7 7 -9 -3 -7 -28 2 -31 1 -33
-6 -12 -19 59 -21 90 -6 90 8 0 15 9 15 19 0 11 4 22 8 25 4 3 21 30 37 61 21
42 25 59 16 68 -6 6 -11 21 -11 34 0 13 -4 23 -10 23 -5 0 -10 -6 -10 -12 0
-15 -43 -68 -55 -68 -4 0 -14 -8 -21 -17 -12 -16 -13 -16 -14 9 0 34 -9 58
-22 58 -5 0 -8 -26 -7 -58 2 -47 -2 -64 -24 -100 -15 -23 -33 -42 -41 -42 -8
0 -17 -11 -20 -25 -5 -19 2 -37 32 -78 22 -28 47 -68 57 -87 10 -19 21 -37 26
-40 14 -9 39 -224 51 -438 l11 -203 -34 -35 c-19 -20 -47 -42 -62 -50 -22 -12
-192 -54 -217 -54 -10 0 -30 95 -30 140 0 21 -6 43 -15 50 -8 7 -15 23 -15 36
0 13 -4 24 -10 24 -21 0 -50 41 -50 70 0 18 -6 33 -15 36 -26 10 -36 41 -46
136 -5 50 -16 110 -24 135 -11 31 -15 89 -16 196 0 120 -3 147 -11 127 -15
-34 -15 -276 1 -370 10 -61 22 -153 23 -180 2 -28 -4 -32 -32 -27 -22 5 -30 3
-30 -8 0 -8 5 -15 10 -15 14 0 12 -27 -2 -33 -7 -3 -5 -6 6 -6 42 -2 52 -71
11 -71 -8 0 -15 -4 -15 -9 0 -14 37 -23 62 -15 17 5 13 -3 -17 -31 -44 -41
-72 -55 -114 -55 -39 0 -126 -37 -184 -77 -56 -40 -62 -40 -63 -8 -1 17 3 25
15 26 10 0 11 2 4 6 -8 3 -13 23 -13 48 0 37 4 45 23 50 69 18 95 29 122 50
26 21 27 25 11 31 -9 4 -29 0 -43 -7 -34 -18 -197 -19 -215 -1 -16 16 4 32 42
32 19 0 21 3 12 12 -17 17 -15 48 3 48 8 0 15 3 16 8 0 4 2 17 5 30 2 12 -1
22 -6 22 -6 0 -10 9 -10 20 0 11 5 20 10 20 6 0 10 -7 10 -15 0 -17 26 -20 35
-4 5 7 14 5 29 -4 28 -19 156 -34 156 -19 0 16 -204 72 -259 72 -17 0 -33 5
-36 10 -4 6 -14 9 -23 8 -11 -2 -17 3 -16 14 1 10 -2 15 -7 12 -12 -7 -79 17
-79 28 0 5 -9 19 -21 31 -26 28 -63 99 -80 157 l-14 45 -3 -67 c-2 -37 4 -138
13 -225 9 -87 21 -196 26 -243 5 -47 13 -107 19 -133 5 -26 10 -69 10 -94 0
-43 -1 -45 -15 -27 -8 10 -15 27 -15 37 0 21 -12 22 -50 2 -28 -15 -40 -35
-21 -35 12 0 21 -27 15 -45 -3 -8 -14 -17 -25 -20 -14 -5 -19 -16 -19 -46 0
-21 5 -39 10 -39 6 0 -5 -16 -24 -35 -20 -19 -44 -35 -55 -35 -21 0 -36 -39
-26 -71 5 -14 16 -19 46 -19 38 0 39 -1 39 -36 0 -35 -40 -100 -53 -87 -3 3
-8 -5 -11 -18 -3 -13 -7 -36 -10 -50 -3 -15 -14 -29 -24 -31 -17 -5 -150 23
-251 52 -24 6 -39 6 -48 -2 -9 -7 -21 -7 -41 1 -31 13 -82 6 -94 -13 -5 -7 -8
-5 -8 6 0 9 8 18 18 21 10 2 -3 10 -33 19 -50 15 -85 14 -85 -4 0 -5 11 -24
23 -41 13 -18 29 -46 36 -63 13 -34 41 -61 81 -81 14 -7 41 -22 60 -33 19 -11
43 -20 52 -20 10 0 18 -6 18 -12 0 -15 65 -63 106 -79 66 -26 401 -3 411 28 2
6 -22 21 -54 33 -32 13 -89 39 -128 58 -64 32 -68 35 -50 48 26 19 65 17 115
-5 62 -27 159 -103 160 -124 0 -9 -33 -53 -74 -97 -41 -43 -77 -89 -81 -101
-18 -57 -153 -229 -180 -229 -3 0 -17 -8 -32 -17 -14 -10 -31 -18 -37 -19 -6
-1 -36 -11 -66 -23 -96 -36 -168 7 -78 47 24 11 68 40 98 66 30 25 61 51 68
57 7 6 40 29 73 51 34 22 69 46 78 54 9 7 25 20 36 28 19 15 19 15 -10 15 -16
1 -61 -11 -100 -25 -38 -14 -109 -37 -157 -52 l-88 -26 -67 21 c-38 11 -103
31 -145 44 l-77 22 -21 -26 c-12 -15 -42 -33 -73 -42 -84 -27 -156 -66 -163
-89 -4 -12 -10 -23 -14 -26 -4 -3 -10 -23 -13 -45 -5 -31 -5 -35 3 -17 11 26
37 25 32 -2 -2 -9 4 -16 12 -16 10 0 13 6 10 15 -4 8 -1 22 6 30 10 12 16 12
45 -2 31 -15 38 -15 92 1 32 10 69 20 83 23 14 2 42 13 62 24 20 11 62 28 92
38 71 23 86 11 45 -38 -16 -19 -29 -41 -29 -47 0 -6 -7 -17 -15 -24 -8 -7 -12
-16 -10 -21 3 -4 -7 -15 -22 -23 -16 -7 -37 -23 -47 -35 -11 -12 -25 -21 -33
-21 -7 0 -13 -4 -13 -10 0 -18 -70 -39 -125 -38 -35 1 -62 -4 -79 -15 -14 -10
-26 -13 -26 -7 0 5 -7 10 -15 10 -17 0 -19 12 -5 26 8 8 6 15 -5 24 -21 18
-51 -5 -34 -27 9 -11 8 -17 -7 -28 -16 -11 -20 -11 -27 1 -7 12 -12 13 -23 3
-11 -9 -18 -8 -33 5 -19 17 -20 17 -32 -6 -7 -14 -14 -18 -17 -10 -5 17 -42
15 -42 -3 0 -8 -8 -15 -17 -16 -14 0 -15 -2 -3 -6 8 -4 21 -12 28 -20 8 -7 23
-11 33 -8 55 15 64 16 49 6 -10 -7 4 -10 50 -9 36 0 67 4 70 9 6 8 277 15 285
7 3 -3 -30 -11 -72 -19 -52 -9 -148 -14 -283 -13 -213 1 -304 12 -426 53 -32
10 -72 22 -89 26 -16 4 -46 19 -65 33 -19 15 -37 26 -40 25 -3 -1 -6 10 -6 23
-1 13 -9 39 -18 58 -13 27 -25 36 -76 51 -40 12 -56 21 -48 27 12 7 4 12 -14
9 -4 0 -5 6 -2 14 4 10 11 12 22 6 26 -13 92 -21 92 -11 0 5 -17 12 -37 15
-21 4 -63 15 -94 26 -30 10 -60 19 -67 19 -6 0 -22 4 -36 10 l-26 9 30 46 c74
111 88 135 130 215 24 47 59 112 77 145 19 33 54 100 78 149 34 68 46 84 51
70 4 -11 15 -39 25 -63 31 -71 23 -234 -12 -261 -11 -8 -38 -96 -45 -143 -3
-23 -10 -51 -15 -62 -5 -11 -13 -39 -18 -62 -14 -69 6 -72 70 -10 84 82 151
131 205 151 27 10 53 23 59 27 20 19 35 9 35 -24 0 -35 25 -67 52 -67 8 0 26
8 39 18 28 21 110 22 249 4 175 -23 195 -25 185 -15 -10 11 -80 47 -245 128
-103 50 -127 63 -148 82 -7 7 -29 13 -47 13 -19 0 -44 5 -57 10 -39 18 -73 40
-63 40 12 0 14 80 3 80 -5 0 -8 11 -8 25 0 14 -4 25 -10 25 -5 0 -10 6 -10 14
0 7 -6 19 -14 25 -10 9 -16 52 -21 159 -4 81 -12 150 -18 153 -5 4 -10 41 -11
83 0 42 -4 76 -7 76 -6 0 -23 -33 -32 -60 -3 -8 -6 11 -6 43 -1 32 3 57 9 57
6 0 10 -8 10 -17 0 -10 3 -13 9 -7 12 13 37 129 57 259 9 61 24 146 34 190 10
44 21 103 24 130 5 49 5 49 -10 23 -8 -16 -20 -28 -25 -28 -6 0 -9 -9 -6 -19
3 -14 1 -18 -9 -14 -9 3 -14 -2 -14 -13 -1 -16 -3 -15 -15 6 -8 14 -14 32 -15
40 0 8 -11 35 -24 60 -13 25 -26 67 -29 93 -4 26 -13 59 -20 73 -12 22 -15 24
-26 10 -11 -13 -9 -23 12 -60 14 -25 21 -46 16 -48 -5 -2 -1 -30 10 -63 33
-96 31 -100 -36 -66 -32 17 -59 28 -62 26 -4 -5 49 -56 97 -93 17 -13 32 -33
32 -43 0 -18 -1 -18 -19 -1 -48 45 -94 76 -118 80 -20 2 -24 0 -19 -13 3 -9 6
-19 6 -21 0 -2 8 -4 18 -4 10 0 29 -12 42 -28 14 -15 43 -42 64 -59 22 -18 37
-35 34 -39 -4 -3 -30 -1 -58 5 -28 6 -68 11 -88 11 l-37 -1 50 -24 c28 -13 57
-24 66 -24 32 -2 52 -38 53 -98 l1 -58 -32 -3 c-19 -2 -33 1 -33 7 0 6 11 11
25 11 14 0 25 4 25 10 0 15 -32 28 -77 33 -34 3 -40 1 -36 -12 3 -9 11 -20 17
-26 14 -13 40 -85 32 -92 -3 -3 -10 5 -16 18 -6 13 -29 34 -51 46 -23 12 -36
17 -30 9 12 -15 -4 -36 -28 -37 -9 0 5 -7 31 -15 31 -9 48 -20 48 -30 0 -10
-6 -14 -14 -11 -8 3 -32 9 -53 12 -21 4 -48 11 -60 17 -31 15 -43 -1 -15 -19
21 -15 33 -51 12 -38 -5 3 -10 3 -10 -2 0 -29 146 -51 200 -31 20 7 23 7 13
-3 -7 -7 -13 -21 -13 -31 0 -11 -6 -18 -12 -17 -11 2 -79 -25 -98 -39 -3 -2 3
-8 13 -13 9 -6 17 -15 17 -21 0 -14 -55 -4 -153 29 -67 21 -89 24 -144 18 -45
-5 -61 -10 -52 -16 12 -7 12 -9 -1 -9 -17 0 -67 -72 -95 -135 -38 -87 -43
-102 -59 -154 -10 -35 -12 -59 -6 -66 10 -12 -31 -108 -51 -121 -5 -3 -9 -19
-9 -35 0 -36 -13 -62 -51 -107 -32 -37 -36 -52 -14 -52 23 0 18 -14 -15 -39
-22 -16 -29 -28 -25 -41 8 -26 -12 -60 -35 -60 -11 0 -20 -4 -20 -10 0 -5 -4
-10 -9 -10 -10 0 -3 38 9 55 4 6 11 30 15 55 4 25 11 53 16 62 5 10 14 39 20
65 5 27 12 57 14 68 3 11 7 34 11 50 3 17 9 39 14 50 5 11 16 46 26 79 10 32
35 93 56 135 22 42 57 110 78 151 21 41 46 100 55 130 9 30 19 60 21 67 3 6
-4 21 -16 33 -17 17 -32 20 -88 20 -118 -1 -150 4 -172 28 -14 14 -28 21 -39
17 -10 -3 -38 3 -62 13 -24 11 -57 18 -74 17 -76 -6 -253 -26 -279 -31 -16 -4
-105 -6 -197 -6 l-169 0 0 -114 0 -114 78 0 c95 0 273 24 327 44 22 8 59 15
83 16 24 0 57 7 74 16 22 11 43 14 79 9 l49 -7 0 -43 c0 -25 6 -50 15 -58 8
-8 12 -17 9 -20 -3 -3 5 -23 18 -45 l23 -41 -21 -23 c-11 -13 -28 -35 -37 -50
-24 -38 -61 -61 -116 -69 -166 -28 -195 -41 -68 -32 63 4 91 2 102 -7 11 -9
12 -16 5 -25 -8 -10 -6 -14 7 -17 13 -3 7 -10 -25 -28 -30 -17 -42 -30 -42
-46 0 -13 -5 -26 -10 -29 -6 -3 -10 -11 -10 -17 0 -6 8 -3 19 6 19 17 71 14
71 -5 0 -9 -67 -25 -87 -21 -7 2 -23 -2 -35 -9 -21 -11 -21 -12 -3 -25 12 -9
46 -14 94 -14 42 0 86 -3 99 -6 25 -7 30 -24 7 -24 -8 0 -15 -8 -15 -19 0 -12
-9 -20 -28 -24 -15 -3 -45 -10 -67 -17 -22 -6 -58 -16 -80 -21 -22 -6 -47 -16
-55 -24 -8 -7 -80 -30 -160 -50 -80 -19 -153 -40 -163 -46 -9 -5 -44 -10 -77
-10 l-60 -1 0 -569 0 -569 76 0 76 0 -6 43 c-7 52 10 89 20 42 4 -20 15 -35
32 -43 28 -12 76 -6 66 9 -10 17 16 50 35 44 22 -7 66 40 88 93 7 18 31 60 52
95 21 34 50 94 66 132 16 39 45 110 65 160 23 57 43 91 53 93 22 4 23 -34 1
-42 -8 -3 -13 -9 -10 -14 6 -11 -23 -133 -38 -157 -7 -11 -18 -47 -25 -80 -19
-85 -61 -207 -79 -224 -13 -14 -72 -131 -72 -145 0 -3 2232 -6 4960 -6 l4960
0 0 1399 0 1399 -55 17 c-51 17 -57 17 -107 0 -29 -9 -63 -23 -75 -31 -25 -15
-47 -19 -39 -5 7 10 -68 35 -86 29 -7 -3 -42 -1 -77 3 -37 5 -68 5 -75 0 -6
-5 -29 -7 -51 -4 -62 8 -283 6 -297 -3 -7 -5 -24 -7 -38 -6 -37 3 -65 -25 -94
-95 -14 -35 -37 -89 -51 -121 -15 -37 -31 -110 -45 -207 -38 -274 -35 -265
-43 -125 -10 172 -31 303 -62 386 -15 38 -30 85 -34 104 -4 19 -16 52 -25 73
-17 34 -22 37 -60 38 -22 1 -51 0 -63 0 -11 -1 -24 3 -28 8 -3 6 -14 11 -24
11 -13 0 -29 22 -54 75 -20 41 -48 90 -62 108 -14 19 -25 37 -25 41 0 10 -51
56 -61 56 -5 0 -9 11 -9 24 0 13 -6 26 -12 28 -10 4 -10 16 1 57 11 43 11 54
-1 68 -9 12 -9 15 0 9 15 -9 16 6 0 22 -12 12 5 16 50 15 6 -1 12 5 12 13 0
10 -10 12 -44 8 -43 -6 -44 -6 -56 31 -7 20 -18 39 -25 41 -7 3 -15 14 -18 25
-7 26 -84 28 -94 2 -4 -10 -13 -23 -21 -28 -7 -6 -16 -30 -19 -53 -6 -47 -3
-45 -116 -62 -67 -10 -69 -10 -122 22 -30 18 -55 36 -55 40 0 20 64 94 92 105
21 9 90 13 234 13 l204 0 0 44 c0 24 3 64 6 90 l7 46 -157 0 c-152 0 -156 1
-156 21 0 13 -8 23 -21 26 -14 4 -18 11 -14 22 15 37 27 185 16 189 -6 2 -11
13 -11 23 0 11 5 17 10 14 6 -3 10 5 10 19 0 17 -10 31 -35 46 -19 12 -35 25
-35 30 0 5 -6 15 -13 22 -21 22 -59 78 -52 78 3 0 -2 13 -12 30 -13 23 -22 29
-38 24 -28 -9 -27 -9 -58 4 -16 7 -25 16 -22 22 3 5 -1 10 -10 10 -9 0 -13 -4
-10 -10 15 -25 -20 -7 -52 27 l-36 36 7 176 c3 97 9 245 12 329 l7 152 61 1
c34 1 72 5 86 9 24 8 23 8 -7 9 l-32 1 -4 73 -3 72 -2 -71z m-2712 -348 c0 -2
-9 -6 -20 -9 -11 -3 -20 -1 -20 4 0 5 9 9 20 9 11 0 20 -2 20 -4z m20 -36 c0
-5 -7 -10 -16 -10 -8 0 -12 5 -9 10 3 6 10 10 16 10 5 0 9 -4 9 -10z m393 -10
c4 -17 2 -18 -14 -9 -22 11 -25 29 -5 29 7 0 16 -9 19 -20z m-585 -3 c-1 -2 3
-11 11 -20 22 -28 -1 -44 -64 -44 -54 0 -55 1 -55 28 0 33 15 45 35 29 11 -9
15 -9 15 -1 0 6 7 11 15 11 8 0 15 -9 15 -19 0 -21 17 -37 28 -26 3 3 0 10 -7
15 -8 5 -11 15 -7 25 3 10 9 15 12 12 3 -3 4 -7 2 -10z m-118 -32 c0 -19 -4
-35 -10 -35 -11 0 -14 53 -3 63 11 12 13 8 13 -28z m2051 25 c13 -8 19 -21 19
-45 0 -32 -3 -35 -29 -35 -20 0 -31 6 -34 18 -4 14 -5 14 -6 1 0 -9 15 -30 34
-48 31 -28 35 -37 35 -80 0 -54 -28 -101 -60 -101 -29 0 -69 21 -73 39 -3 9
-5 4 -6 -11 -1 -22 -6 -28 -23 -29 -17 0 -19 -2 -8 -7 8 -4 16 -13 18 -20 1
-8 -2 -11 -8 -7 -23 14 -75 -59 -64 -89 5 -14 8 -14 27 -1 28 20 47 19 48 -2
1 -17 2 -16 6 0 7 27 47 18 51 -12 l4 -24 12 24 c6 13 22 25 34 27 39 6 47
-57 17 -130 -9 -21 -34 -31 -50 -18 -8 6 -15 6 -23 -2 -8 -8 -15 -8 -27 2 -10
8 -15 9 -15 1 0 -6 -9 -11 -19 -11 -14 0 -18 -5 -14 -19 3 -11 -2 -21 -12 -25
-24 -9 -39 3 -25 19 19 22 3 33 -37 27 -36 -5 -128 -10 -199 -11 -27 -1 -32
-6 -37 -31 -7 -34 -22 -39 -30 -10 -3 11 -1 18 3 15 5 -3 11 -1 14 4 9 14 -14
19 -62 14 -28 -3 -42 0 -42 8 0 8 -4 8 -12 1 -7 -5 -39 -10 -70 -11 -48 0 -58
3 -59 17 0 13 -3 11 -9 -5 -6 -13 -18 -23 -30 -23 -18 0 -20 6 -20 74 0 41 5
78 10 81 6 4 8 11 4 16 -8 14 -24 1 -24 -21 0 -11 -6 -25 -13 -32 -8 -6 -11
-22 -9 -35 3 -15 0 -23 -9 -23 -9 0 -10 -3 -2 -11 6 -6 8 -19 6 -30 -4 -15
-14 -18 -53 -18 -26 1 -52 -1 -58 -5 -5 -3 -12 0 -15 7 -7 19 14 147 24 147 5
0 8 12 7 28 -2 24 -6 27 -35 27 -21 0 -33 -5 -33 -14 0 -11 -3 -11 -17 0 -9 8
-25 12 -36 11 -16 -3 -19 0 -14 20 5 18 1 26 -18 34 -23 11 -25 10 -31 -22 -3
-19 -10 -37 -15 -40 -16 -10 -9 38 16 108 18 48 25 90 25 138 0 38 3 71 8 73
4 3 42 8 85 12 l77 7 1 -74 c1 -61 2 -67 9 -38 5 19 10 52 12 73 2 20 8 37 12
37 5 -1 15 12 22 29 10 24 19 31 40 31 27 0 27 0 8 -21 -15 -17 -16 -22 -4
-29 8 -5 15 -33 18 -72 5 -65 20 -58 21 10 1 40 32 72 70 72 51 0 61 -20 61
-126 0 -53 -5 -104 -10 -115 -6 -11 -7 -19 -2 -19 15 0 22 38 23 130 2 132 3
135 74 135 l60 0 6 -65 6 -65 1 66 c2 62 4 67 27 71 13 3 27 3 30 0 3 -3 5
-30 5 -61 0 -40 3 -52 10 -41 5 8 10 37 10 63 0 47 1 48 27 45 21 -2 29 -11
37 -38 l10 -35 5 40 c5 32 11 41 29 43 21 3 22 1 23 -90 l1 -93 15 85 c8 47
18 88 21 91 4 4 23 9 43 13 36 6 36 6 43 -31 3 -21 6 -55 6 -75 0 -55 7 -65
40 -60 l30 4 -25 20 c-42 33 -32 132 15 151 24 9 50 8 71 -3z m-2163 -41 c-3
-20 -5 -19 -9 9 -3 20 -2 29 4 23 5 -5 7 -19 5 -32z m38 34 c-15 -4 -16 -7 -5
-15 11 -8 11 -11 1 -15 -10 -4 -9 -9 5 -19 17 -14 17 -15 -2 -12 -14 2 -21 12
-23 36 -3 28 0 32 20 31 19 -1 20 -2 4 -6z m-206 -63 c5 0 11 11 13 25 4 23 4
23 3 -2 -1 -18 -7 -29 -18 -31 -15 -3 -18 3 -16 35 1 37 1 37 5 6 2 -18 8 -33
13 -33z m142 30 c3 -16 1 -30 -4 -30 -4 0 -8 14 -8 30 0 17 2 30 4 30 2 0 6
-13 8 -30z m-25 -13 c-2 -7 -11 -13 -21 -13 -14 -2 -14 -1 0 3 14 4 13 7 -3
25 -18 21 -18 21 5 9 13 -7 21 -18 19 -24z m-67 -12 c7 -9 8 -15 2 -15 -5 0
-12 7 -16 15 -3 8 -4 15 -2 15 2 0 9 -7 16 -15z m1020 -45 c0 -20 -5 -30 -15
-30 -8 0 -15 -9 -15 -20 0 -11 7 -20 15 -20 9 0 15 -9 15 -25 0 -14 -7 -28
-15 -31 -19 -8 -20 -54 -1 -54 8 0 17 -6 19 -12 3 -7 6 40 6 105 l1 117 54 0
c30 0 58 -5 61 -11 7 -10 7 -37 3 -174 -3 -73 -5 -80 -23 -78 -15 2 -26 -9
-42 -45 l-23 -47 4 43 c5 47 8 45 -86 42 -56 -2 -53 -12 -41 162 5 88 8 97 27
101 51 10 56 8 56 -23z m-110 5 c7 -8 15 -35 18 -60 5 -45 4 -45 -26 -45 -28
0 -31 3 -35 38 -2 20 -4 -3 -4 -53 0 -49 2 -73 4 -52 4 32 8 37 29 37 21 0 24
-4 24 -38 0 -49 -23 -82 -59 -82 -45 0 -51 15 -51 127 0 90 3 106 20 123 24
24 63 26 80 5z m-830 -3 c0 -11 -22 -32 -32 -32 -5 0 -4 9 2 20 11 20 30 28
30 12z m628 -99 c2 -83 6 -103 17 -103 12 0 15 18 17 88 0 48 1 94 2 102 1 9
13 16 30 18 l28 4 -5 -129 -5 -128 -53 -7 c-30 -3 -82 -6 -116 -7 l-63 -1 -2
88 c0 48 -3 72 -5 54 -3 -23 -11 -36 -28 -42 -20 -8 -24 -17 -27 -56 -3 -40
-6 -48 -26 -51 l-23 -3 3 128 3 127 43 3 c36 3 43 0 51 -20 9 -23 9 -23 16 5
6 24 12 27 46 27 34 0 39 -3 39 -24 0 -13 -10 -30 -22 -38 -22 -15 -18 -38 7
-38 9 0 16 19 20 56 7 49 10 55 29 52 20 -3 21 -10 24 -105z m-318 58 c11 -22
14 -131 4 -180 -4 -18 -17 -39 -30 -48 -22 -14 -26 -14 -50 2 -25 16 -26 19
-22 114 2 64 8 104 17 114 19 24 68 22 81 -2z m-114 -68 c-3 -42 -6 -96 -6
-120 0 -36 -3 -43 -20 -43 -19 0 -20 7 -20 120 l0 120 26 0 27 0 -7 -77z
m-192 40 c3 -16 8 -70 12 -120 6 -90 5 -93 -15 -93 -14 0 -21 6 -21 20 0 11
-4 20 -10 20 -5 0 -10 -9 -10 -20 0 -13 -7 -20 -20 -20 -23 0 -23 3 -10 125
13 112 14 115 44 115 19 0 26 -6 30 -27z m123 -82 c2 -65 -1 -109 -8 -118 -6
-7 -29 -13 -50 -13 l-39 0 0 89 c0 49 3 103 6 120 6 30 9 32 48 29 l41 -3 2
-104z m-207 79 c0 -11 -7 -20 -15 -20 -8 0 -15 -8 -15 -19 0 -10 7 -24 15 -31
8 -7 15 -19 15 -26 0 -8 -7 -14 -15 -14 -12 0 -15 -13 -15 -55 0 -51 -2 -55
-24 -55 -13 0 -26 6 -29 13 -2 6 -1 57 4 112 4 55 8 103 9 108 0 4 16 7 35 7
28 0 35 -4 35 -20z m2214 -195 c-4 -8 -15 -15 -25 -15 -10 0 -19 7 -19 15 0 9
9 15 25 15 18 0 23 -4 19 -15z m-944 -45 c0 -11 -4 -20 -10 -20 -12 0 -13 -97
-1 -104 5 -3 6 14 4 37 -6 46 13 74 42 63 16 -6 21 -46 6 -46 -5 0 -7 -18 -4
-40 9 -64 -1 -69 -137 -68 -65 0 -122 -2 -128 -6 -6 -3 -18 1 -26 10 -9 8 -17
13 -17 10 -1 -3 -2 -10 -3 -15 -3 -21 -17 -23 -35 -7 -10 10 -21 14 -24 9 -3
-5 -38 -10 -78 -12 l-72 -2 7 33 c4 18 9 50 13 71 5 35 7 37 45 37 l39 0 -5
-37 -5 -38 10 38 c6 20 15 37 20 37 5 0 9 12 9 26 0 15 4 23 11 19 6 -4 8 -13
5 -20 -2 -7 -1 -26 4 -42 4 -15 9 -21 9 -12 2 28 30 45 52 31 11 -7 19 -8 19
-2 0 5 9 10 20 10 11 0 20 6 20 13 0 9 2 9 8 -1 6 -8 28 -11 68 -10 57 3 59 2
57 -22 -1 -25 -1 -25 10 2 6 16 19 30 29 34 10 3 18 14 18 25 0 10 5 19 10 19
6 0 10 -9 10 -20z m2045 -29 c3 -5 1 -12 -5 -16 -5 -3 -10 1 -10 9 0 18 6 21
15 7z m-2545 -80 c0 -80 -5 -91 -38 -82 -15 4 -42 4 -60 -1 -19 -5 -36 -7 -39
-4 -3 2 -1 33 4 68 6 50 12 64 27 66 10 2 22 -2 27 -10 7 -11 9 -11 9 1 0 8 7
11 20 8 11 -3 20 -1 20 4 0 5 7 9 15 9 12 0 15 -13 15 -59z m-209 18 c7 -24 7
-24 8 4 1 15 7 27 15 27 10 0 13 -17 12 -69 l0 -70 -108 1 c-102 2 -108 3
-109 22 -2 20 -2 20 -6 0 -5 -29 -53 -39 -70 -16 -12 14 -13 14 -13 -2 0 -15
-3 -16 -15 -6 -10 9 -15 9 -15 1 0 -19 -50 -13 -51 7 -1 16 -2 16 -6 0 -7 -28
-23 -21 -23 10 0 45 12 102 21 102 5 0 10 -8 10 -17 1 -17 2 -17 6 0 8 29 23
19 24 -15 l1 -33 10 33 c15 45 38 42 39 -5 1 -28 3 -31 6 -13 7 35 32 60 60
60 15 0 23 -6 24 -17 1 -17 2 -17 6 0 2 9 12 17 20 17 9 0 22 -8 29 -17 13
-17 13 -17 14 0 0 12 8 17 29 17 28 0 30 -2 26 -37 -3 -21 -2 -29 2 -18 20 71
41 83 54 34z m-415 -1 c3 -4 2 -33 -1 -63 l-7 -55 -44 0 c-35 0 -44 4 -44 18
-1 16 -1 16 -11 0 -5 -10 -17 -18 -25 -18 -23 0 -16 114 7 118 11 2 21 -7 27
-25 l10 -28 1 31 c1 30 3 31 41 31 22 0 43 -4 46 -9z m-196 -48 c0 -27 5 -50
10 -50 6 0 10 20 10 44 0 25 5 48 11 51 7 5 9 -14 7 -56 l-3 -63 -35 -1 -35 0
3 50 c3 59 8 75 22 75 5 0 10 -22 10 -50z m1685 -300 c7 -12 -26 -51 -38 -43
-5 3 -13 -1 -18 -8 -13 -21 -12 17 1 42 11 20 45 26 55 9z m1118 -189 c1 -15
6 -21 18 -18 12 3 15 -1 12 -14 -3 -11 -12 -19 -20 -19 -8 0 -27 -7 -43 -15
-20 -10 -30 -12 -30 -4 0 6 -7 9 -15 5 -10 -4 -15 1 -15 14 0 11 5 20 10 20 6
0 10 10 10 23 0 15 3 18 9 9 6 -10 12 -5 21 18 11 27 15 29 27 17 8 -7 15 -24
16 -36z m-1039 6 c15 -6 16 -10 6 -22 -7 -8 -21 -15 -31 -15 -13 0 -19 -8 -20
-22 -1 -16 -5 -11 -14 17 -11 34 -10 43 3 58 14 15 18 16 27 5 5 -8 18 -17 29
-21z m1793 12 c-9 -6 -15 -14 -12 -20 11 -16 33 -10 40 12 6 19 8 20 23 5 9
-8 13 -18 9 -22 -9 -9 -117 -11 -117 -1 0 17 26 36 50 36 22 0 23 -1 7 -10z
m110 -4 c0 -8 -4 -15 -9 -15 -5 0 -6 -4 -3 -10 3 -5 1 -10 -4 -10 -6 0 -11 11
-11 25 0 14 6 25 13 25 8 0 14 -7 14 -15z m-3828 -36 c-16 -10 -23 -4 -14 10
3 6 11 8 17 5 6 -4 5 -9 -3 -15z m1851 1 c0 -5 -4 -10 -10 -10 -5 0 -10 5 -10
10 0 6 5 10 10 10 6 0 10 -4 10 -10z m-1783 -16 c-3 -3 -12 -4 -19 -1 -8 3 -5
6 6 6 11 1 17 -2 13 -5z m1732 -25 c-27 -17 -41 -9 -18 10 14 11 26 15 28 9 2
-6 -3 -14 -10 -19z m1911 6 c0 -31 -8 -32 -20 -2 -7 17 -9 18 -9 5 -1 -10 -5
-18 -11 -18 -12 0 -12 3 -4 24 10 27 44 20 44 -9z m40 15 c-13 -8 -12 -10 3
-10 9 0 17 3 17 8 0 4 18 8 39 8 39 1 59 -15 45 -37 -7 -11 -93 -9 -100 3 -3
4 -11 8 -17 8 -7 0 -6 -4 3 -10 13 -8 12 -10 -2 -10 -13 0 -18 8 -18 25 0 19
5 25 23 25 18 0 19 -2 7 -10z m-96 -15 c-4 -8 -10 -15 -15 -15 -4 0 -6 7 -3
15 4 8 10 15 15 15 4 0 6 -7 3 -15z m-1418 -122 c3 -17 -1 -19 -21 -15 -21 4
-23 7 -14 24 13 24 31 19 35 -9z m1514 -138 c0 -9 -7 -18 -15 -21 -8 -4 -15
-12 -15 -20 0 -18 -2 -18 -45 3 -59 28 -43 48 43 52 23 1 32 -3 32 -14z m20
-61 c0 -17 -22 -14 -28 4 -2 7 3 12 12 12 9 0 16 -7 16 -16z m-3606 -189 c-4
-8 -8 -15 -10 -15 -2 0 -4 7 -4 15 0 8 4 15 10 15 5 0 7 -7 4 -15z m1806 -94
c0 -26 -28 -91 -39 -91 -5 0 -12 6 -14 13 -3 6 -3 -3 0 -20 3 -21 1 -33 -6
-33 -19 0 -13 75 8 94 13 12 17 27 15 56 -3 39 -3 39 16 20 11 -11 20 -28 20
-39z m-2379 22 c-8 -15 -10 -15 -11 -2 0 17 10 32 18 25 2 -3 -1 -13 -7 -23z
m5959 -212 c0 -5 9 -11 20 -14 26 -7 27 -47 1 -47 -10 0 -22 8 -25 17 -6 14
-9 12 -22 -12 -8 -16 -13 -34 -11 -40 3 -6 -6 -16 -19 -22 -13 -6 -24 -7 -24
-2 0 13 -44 11 -57 -2 -6 -6 -16 -8 -22 -5 -20 13 -11 25 22 29 19 3 15 3 -10
2 -39 -2 -41 -1 -30 18 20 34 59 69 86 77 36 11 91 12 91 1z m-5081 -165 c1
-20 -44 -86 -58 -86 -5 0 -12 36 -17 80 -10 78 -9 80 16 105 l25 26 17 -53 c9
-29 17 -62 17 -72z m4888 22 c-3 -8 -6 -5 -6 6 -1 11 2 17 5 13 3 -3 4 -12 1
-19z m-697 -89 c0 -5 5 -7 10 -4 13 8 13 4 -5 -38 -21 -50 -35 -55 -35 -13 0
19 3 41 6 50 7 18 24 22 24 5z m-4600 -125 c67 -24 82 -26 168 -20 107 7 121
12 95 32 -16 12 -14 13 19 12 33 -1 35 -3 20 -14 -11 -9 -13 -13 -4 -14 7 0
11 -4 7 -10 -3 -5 -12 -7 -20 -3 -8 3 -15 0 -15 -6 0 -6 -5 -11 -11 -11 -7 0
-56 -16 -111 -36 -94 -33 -102 -35 -147 -23 -40 10 -51 9 -78 -4 -36 -19 -51
-9 -59 41 -4 25 -1 31 21 36 16 4 25 13 25 26 0 25 2 25 90 -6z m560 -83 c0
-9 -8 -12 -25 -9 -23 5 -25 2 -25 -33 0 -34 -3 -39 -23 -39 -21 0 -23 4 -21
43 3 54 3 55 14 37 5 -8 12 -11 16 -7 4 3 2 12 -4 20 -8 9 -4 23 16 54 l26 41
13 -46 c7 -26 12 -53 13 -61z m-125 -51 c-3 -5 -11 -10 -16 -10 -6 0 -7 5 -4
10 3 6 11 10 16 10 6 0 7 -4 4 -10z m-135 -8 c0 -8 -66 -82 -73 -82 -5 0 -5 5
-2 10 4 6 -4 20 -17 31 l-23 20 24 -7 c19 -5 23 -3 18 9 -3 8 -3 17 0 20 5 6
73 4 73 -1z m193 -59 c-7 -2 -21 -2 -30 0 -10 3 -4 5 12 5 17 0 24 -2 18 -5z
m-393 -23 c0 -5 -7 -10 -16 -10 -8 0 -12 5 -9 10 3 6 10 10 16 10 5 0 9 -4 9
-10z m67 -6 c-3 -3 -12 -4 -19 -1 -8 3 -5 6 6 6 11 1 17 -2 13 -5z m339 -26
c-3 -13 -6 -34 -6 -48 0 -23 -2 -22 -25 12 -33 48 -32 58 6 58 28 0 31 -3 25
-22z m1260 -30 c-3 -29 -9 -86 -13 -125 -3 -40 -8 -73 -10 -73 -3 0 -11 7 -20
15 -16 16 -10 51 7 40 6 -4 10 5 10 19 0 19 -5 26 -19 26 -22 0 -31 19 -31 66
0 23 5 34 15 34 8 0 22 11 31 25 27 41 37 31 30 -27z m-1410 -76 c-10 -9 -66
-10 -66 -1 0 5 9 9 20 9 11 0 20 5 20 10 0 6 -4 10 -10 10 -5 0 -2 8 8 18 16
17 17 16 25 -11 5 -16 6 -32 3 -35z m-1262 36 c-3 -13 -11 -24 -15 -26 -5 -2
-9 -9 -9 -16 0 -16 -48 -61 -56 -53 -11 11 5 54 32 86 31 37 59 42 48 9z
m-519 -80 c3 -12 7 -37 9 -54 2 -18 13 -45 25 -62 29 -41 27 -85 -7 -135 -15
-23 -33 -54 -40 -69 -19 -45 -32 -33 -32 30 0 33 -3 128 -6 213 l-6 154 25
-27 c15 -14 29 -37 32 -50z m3053 37 c29 -34 28 -49 -3 -41 -14 4 -51 9 -82
12 -32 3 -62 10 -68 16 -7 8 -6 9 3 4 6 -4 12 -3 12 3 0 12 52 29 91 30 15 1
34 -9 47 -24z m-2068 -4 c0 -6 -4 -13 -10 -16 -5 -3 -10 1 -10 9 0 9 5 16 10
16 6 0 10 -4 10 -9z m-3512 -109 c6 -18 -15 -14 -22 4 -4 10 -1 14 6 12 6 -2
14 -10 16 -16z m5857 -28 c-23 -17 -28 -13 -19 20 5 23 7 24 22 9 15 -14 14
-17 -3 -29z m-5815 -4 c0 -5 -7 -10 -15 -10 -8 0 -15 5 -15 10 0 6 7 10 15 10
8 0 15 -4 15 -10z m2317 -22 c-3 -8 -6 -5 -6 6 -1 11 2 17 5 13 3 -3 4 -12 1
-19z m1919 -86 c-17 -16 -18 -16 -5 5 7 12 15 20 18 17 3 -2 -3 -12 -13 -22z
m-1656 -82 c14 -33 14 -33 -83 -133 -42 -43 -48 -54 -45 -83 5 -39 -3 -34 -22
14 -13 34 -11 43 24 108 14 26 99 124 107 124 4 0 12 -13 19 -30z m3124 -160
c-4 -36 -6 -72 -6 -80 0 -17 -19 -73 -28 -80 -10 -9 -40 -54 -40 -62 0 -13 57
13 88 40 16 15 42 52 57 82 15 30 29 56 30 58 5 5 49 -22 61 -38 9 -11 6 -30
-13 -85 -14 -38 -33 -75 -43 -82 -9 -6 -24 -31 -34 -55 -30 -73 -49 -108 -58
-108 -4 0 -8 -9 -8 -21 0 -11 5 -17 10 -14 6 3 17 -1 26 -10 11 -11 29 -15 55
-12 22 2 42 0 45 -4 3 -5 -74 -9 -170 -9 -168 0 -176 1 -176 19 0 11 4 22 8
25 21 12 72 136 74 177 2 44 -21 139 -33 139 -4 0 -12 -13 -19 -30 -17 -40
-40 -59 -40 -32 0 11 -7 25 -15 32 -9 7 -15 29 -15 51 0 21 -5 41 -12 45 -19
12 -137 8 -153 -6 -16 -14 -35 -6 -35 16 0 8 -8 14 -18 14 -10 0 -23 5 -30 12
-7 7 -12 9 -12 5 0 -4 -8 -3 -18 2 -19 10 -30 81 -13 81 10 0 62 -39 76 -57 6
-7 37 -15 70 -18 56 -4 61 -3 62 16 1 12 3 23 5 24 7 8 98 -18 98 -27 0 -7 5
-6 14 1 11 9 15 9 19 -1 9 -25 61 17 67 54 4 26 10 34 30 36 14 2 29 11 34 20
8 13 14 11 38 -19 28 -32 29 -37 22 -99z m-364 80 c0 -5 -7 -10 -16 -10 -8 0
-12 5 -9 10 3 6 10 10 16 10 5 0 9 -4 9 -10z m-2731 -52 c9 -23 -2 -48 -20
-48 -10 0 -12 31 -3 54 8 22 13 20 23 -6z m2536 -48 c-3 -5 -13 -10 -21 -10
-8 0 -14 5 -14 10 0 6 9 10 21 10 11 0 17 -4 14 -10z m58 -26 c3 -4 1 -16 -5
-27 -10 -19 -11 -19 -20 -2 -8 14 -12 15 -19 4 -6 -10 -9 -10 -9 -2 0 19 40
40 53 27z m-95 -332 c2 -12 9 -22 16 -22 7 0 13 -10 12 -21 -1 -17 -17 -28
-71 -50 -106 -43 -140 -37 -129 20 4 20 10 28 14 21 10 -16 101 -1 108 18 2 6
-3 12 -11 12 -9 0 -18 -6 -21 -12 -5 -10 -7 -10 -12 0 -3 6 -10 10 -15 6 -5
-3 -9 0 -9 5 0 6 -5 10 -12 9 -6 -2 -14 6 -16 16 -3 15 0 17 14 12 36 -14 83
-14 95 0 16 19 33 13 37 -14z m-1712 -24 c10 -12 13 -18 6 -14 -10 6 -13 3
-10 -10 2 -13 12 -19 32 -19 40 0 44 -21 6 -28 -38 -8 -90 2 -91 17 -4 36 12
76 31 76 4 0 15 -10 26 -22z m2024 -12 c0 -3 -4 -8 -10 -11 -5 -3 -10 -1 -10
4 0 6 5 11 10 11 6 0 10 -2 10 -4z m-6002 -26 c3 -9 -1 -11 -12 -7 -10 4 -22
7 -27 7 -5 0 -9 4 -9 10 0 14 43 6 48 -10z m-98 -25 c12 4 20 2 20 -4 0 -6 -5
-10 -11 -8 -6 1 -14 -4 -17 -12 -3 -9 0 -11 7 -7 8 6 10 0 5 -18 -4 -18 -2
-26 7 -26 10 0 10 -3 2 -11 -6 -6 -9 -18 -6 -25 3 -8 2 -14 -1 -14 -4 0 -11
10 -16 23 -7 17 -9 18 -9 5 -1 -10 -6 -18 -12 -18 -6 0 -8 7 -5 15 3 9 -1 18
-9 20 -8 3 -23 8 -32 11 -10 4 -28 6 -40 5 -13 -1 -23 2 -23 8 0 6 6 11 14 11
9 0 12 8 9 24 -6 29 15 36 65 23 18 -4 42 -5 52 -2z m6135 5 c7 -12 -12 -12
-40 0 -18 8 -17 9 7 9 15 1 30 -3 33 -9z m-5510 -39 c3 -5 1 -12 -5 -16 -5 -3
-10 1 -10 9 0 18 6 21 15 7z m3400 -22 c1 -8 6 -13 12 -12 5 1 16 -9 23 -22 7
-14 28 -30 47 -37 42 -15 42 -28 0 -28 -37 0 -71 21 -89 53 -16 31 -19 69 -5
64 7 -2 12 -10 12 -18z m142 0 c23 1 44 -3 48 -9 3 -6 -3 -10 -14 -10 -12 0
-21 -4 -21 -10 0 -17 -23 -11 -65 16 -28 17 -33 23 -15 18 14 -4 44 -6 67 -5z
m-3573 -34 c4 -10 -1 -15 -16 -15 -17 0 -18 2 -8 15 7 8 14 15 15 15 2 0 5 -7
9 -15z m6816 5 c0 -13 37 -50 50 -50 14 0 12 -16 -4 -29 -10 -9 -16 -9 -21 -1
-4 6 -4 14 -1 17 11 11 -16 33 -40 33 -26 0 -30 10 -12 28 15 15 28 16 28 2z
m-7512 -54 c1 -28 6 -85 11 -126 8 -73 8 -72 7 42 0 64 2 119 6 123 10 10 38
-20 39 -42 0 -14 3 -12 11 7 l11 25 7 -25 c5 -14 9 -18 10 -10 1 8 5 4 9 -10
4 -14 5 -33 3 -42 -4 -15 -6 -15 -19 -3 -8 8 -22 15 -32 15 -15 0 -18 -9 -18
-50 1 -49 4 -54 40 -51 9 1 17 -4 17 -11 0 -10 2 -10 9 1 5 7 11 9 13 5 11
-18 19 -204 10 -204 -15 0 -24 32 -12 40 14 8 -9 29 -38 35 -21 4 -38 -20 -22
-30 6 -4 10 -19 10 -35 0 -16 4 -31 9 -34 4 -3 6 -22 4 -43 -5 -45 -13 -57
-13 -20 0 30 -29 109 -43 118 -5 4 -6 33 -3 65 3 34 2 46 -2 29 -6 -23 -12 2
-25 105 -10 74 -20 144 -22 156 -3 12 1 21 8 21 7 0 13 -19 15 -51z m3172 24
c0 -36 -49 -99 -77 -100 -6 0 -21 15 -32 34 -12 18 -31 36 -43 39 -18 5 -19 8
-8 21 16 20 25 20 43 1 11 -11 22 -12 50 -4 20 5 39 14 42 19 11 17 25 11 25
-10z m-2490 -50 c0 -5 -9 -10 -21 -10 -11 0 -17 5 -14 10 3 6 13 10 21 10 8 0
14 -4 14 -10z m6776 -26 c45 -43 50 -60 22 -75 -28 -15 -73 5 -64 27 5 12 2
15 -9 10 -22 -8 -30 20 -15 50 8 13 16 24 20 24 4 0 25 -16 46 -36z m-3216
-19 c0 -14 -32 -2 -57 20 l-28 26 43 -21 c23 -11 42 -23 42 -25z m-1008 -22
c-37 -70 -108 -122 -225 -165 -43 -15 -164 -37 -127 -22 8 3 30 12 48 21 18 8
40 16 50 18 9 3 34 9 55 14 46 11 126 70 127 92 0 9 7 29 15 45 12 23 15 25
21 11 9 -24 19 -21 33 9 6 15 14 24 17 21 3 -3 -4 -22 -14 -44z m-2582 27 c0
-5 -4 -10 -10 -10 -5 0 -10 5 -10 10 0 6 5 10 10 10 6 0 10 -4 10 -10z m6945
-11 c-8 -12 -35 -12 -35 0 0 11 22 20 33 14 4 -2 5 -9 2 -14z m-4561 -11 c-11
-37 -36 -45 -93 -29 l-25 7 28 22 c17 13 43 22 63 22 31 0 34 -2 27 -22z
m4588 0 c-7 -7 -12 -8 -12 -2 0 14 12 26 19 19 2 -3 -1 -11 -7 -17z m-7016
-106 c-11 -10 -15 4 -8 28 l7 25 3 -23 c2 -13 1 -26 -2 -30z m-19 -84 c-3 -7
-5 -2 -5 12 0 14 2 19 5 13 2 -7 2 -19 0 -25z m7529 17 c10 -8 14 -15 7 -15
-19 0 -43 11 -43 21 0 13 14 11 36 -6z m-5263 -32 c-7 -2 -19 -2 -25 0 -7 3
-2 5 12 5 14 0 19 -2 13 -5z m-44 -8 c-6 -6 -199 -43 -199 -38 0 6 53 24 95
33 45 9 111 12 104 5z m-839 -65 c0 -5 -2 -10 -4 -10 -3 0 -8 5 -11 10 -3 6
-1 10 4 10 6 0 11 -4 11 -10z m533 3 c-7 -2 -19 -2 -25 0 -7 3 -2 5 12 5 14 0
19 -2 13 -5z m-958 -13 c3 -5 1 -10 -4 -10 -6 0 -11 5 -11 10 0 6 2 10 4 10 3
0 8 -4 11 -10z m358 3 c-7 -2 -21 -2 -30 0 -10 3 -4 5 12 5 17 0 24 -2 18 -5z
m-1773 -73 c0 -5 -4 -10 -10 -10 -5 0 -10 5 -10 10 0 6 5 10 10 10 6 0 10 -4
10 -10z m3992 -35 c-2 -14 -6 -25 -8 -25 -2 0 -4 11 -4 25 0 14 4 25 9 25 4 0
6 -11 3 -25z m-3992 5 c0 -5 -7 -10 -15 -10 -9 0 -15 -9 -15 -25 0 -16 6 -25
15 -25 8 0 15 -6 15 -13 0 -7 10 -21 22 -31 l22 -19 -28 -23 c-23 -21 -26 -29
-20 -60 5 -25 9 -32 15 -22 7 11 11 10 24 -3 15 -14 13 -18 -14 -45 -62 -60
-71 -66 -76 -49 -3 8 -7 22 -10 31 -7 21 34 174 46 174 5 0 9 7 9 15 0 8 -6
15 -14 15 -7 0 -16 14 -20 31 -9 44 -8 61 3 54 5 -3 12 -1 16 5 8 13 25 13 25
0z m21 -36 c12 -14 11 -16 -5 -13 -11 2 -21 10 -24 17 -5 17 13 15 29 -4z
m5494 -3 c-3 -6 -13 -11 -21 -11 -8 0 -14 -7 -14 -15 0 -8 7 -15 15 -15 17 0
20 -16 5 -25 -5 -3 -23 -8 -39 -10 -23 -3 -30 1 -35 18 -7 26 2 40 21 33 9 -4
17 1 20 13 3 13 11 17 24 14 11 -3 19 0 19 8 0 7 3 10 6 6 3 -3 3 -10 -1 -16z
m-1538 -23 c-1 -13 -7 -29 -14 -36 -7 -7 -13 -21 -13 -30 0 -15 2 -15 10 -2 6
10 10 11 10 3 0 -7 10 -13 23 -14 12 0 16 -3 10 -6 -15 -5 -18 -33 -4 -33 5 0
13 -10 16 -22 4 -13 16 -30 27 -38 19 -16 19 -16 -6 -29 -34 -19 -51 -9 -77
40 -16 32 -20 54 -16 88 7 67 38 139 34 79z m3573 -12 c0 -3 -4 -8 -10 -11 -5
-3 -10 -1 -10 4 0 6 5 11 10 11 6 0 10 -2 10 -4z m-3450 -256 c22 -11 51 -20
66 -20 l28 0 -29 -30 -30 -31 -8 26 c-5 14 -13 25 -18 25 -6 0 -22 11 -37 25
-32 30 -24 32 28 5z m-3975 -20 c-3 -5 -12 -10 -18 -10 -7 0 -6 4 3 10 19 12
23 12 15 0z m-140 -10 c4 -6 21 -9 40 -7 26 3 35 0 38 -14 6 -22 -15 -42 -39
-37 -19 4 -72 68 -56 68 6 0 14 -5 17 -10z m7358 -47 c-3 -7 -14 -13 -24 -13
-19 0 -19 1 -3 32 15 30 18 31 24 13 4 -11 5 -26 3 -32z"/>
<path d="M6192 4590 c0 -14 2 -19 5 -12 2 6 2 18 0 25 -3 6 -5 1 -5 -13z"/>
<path d="M6483 4545 c0 -27 2 -38 4 -22 2 15 2 37 0 50 -2 12 -4 0 -4 -28z"/>
<path d="M7124 4490 c0 -11 4 -20 8 -20 4 0 8 9 8 20 0 11 -4 20 -8 20 -4 0
-8 -9 -8 -20z"/>
<path d="M6621 4464 c0 -11 3 -14 6 -6 3 7 2 16 -1 19 -3 4 -6 -2 -5 -13z"/>
<path d="M6161 4384 c0 -11 3 -14 6 -6 3 7 2 16 -1 19 -3 4 -6 -2 -5 -13z"/>
<path d="M6915 4377 c4 -20 1 -29 -12 -34 -34 -12 -46 -25 -31 -35 10 -6 10
-10 -2 -18 -11 -8 -5 -10 25 -8 23 2 41 8 41 16 1 6 3 13 4 15 7 7 5 77 -2 77
-4 0 -8 -6 -9 -12 0 -7 -5 -4 -10 7 -8 16 -8 15 -4 -8z"/>
<path d="M6567 4373 c-4 -3 -7 -14 -7 -24 0 -10 -9 -23 -21 -29 -12 -7 -18
-18 -15 -26 3 -8 2 -13 -3 -10 -5 3 -11 -1 -15 -9 -4 -12 3 -15 36 -15 l41 0
-5 -50 c-3 -28 -1 -53 3 -56 5 -3 9 6 9 19 0 31 20 87 31 87 13 0 59 53 59 68
0 9 -10 12 -27 10 -23 -2 -29 1 -31 20 -2 15 -10 22 -26 22 -12 0 -26 -3 -29
-7z"/>
<path d="M6811 4351 c-8 -5 -32 -8 -53 -5 -36 3 -40 1 -56 -32 -16 -34 -16
-36 1 -45 11 -7 17 -23 18 -47 l1 -37 7 36 c8 42 36 77 44 56 4 -9 6 -9 6 1 1
7 5 11 10 7 15 -8 41 24 41 51 0 27 0 27 -19 15z"/>
<path d="M6483 4332 c-6 -4 -14 -22 -18 -39 -5 -25 -3 -33 8 -33 9 0 17 14 20
37 7 41 6 45 -10 35z"/>
<path d="M6320 4274 c-13 -34 -12 -68 1 -36 5 13 13 20 19 17 5 -3 10 1 10 9
0 9 -5 16 -11 16 -5 0 -7 5 -4 10 3 6 4 10 0 10 -3 0 -10 -12 -15 -26z"/>
<path d="M7025 4230 c-11 -18 -14 -49 -5 -55 6 -4 30 44 30 61 0 8 -19 3 -25
-6z"/>
<path d="M7151 4224 c0 -11 3 -14 6 -6 3 7 2 16 -1 19 -3 4 -6 -2 -5 -13z"/>
<path d="M6845 4210 c-4 -12 -5 -24 -2 -27 3 -2 8 5 12 17 4 12 5 24 2 27 -3
2 -8 -5 -12 -17z"/>
<path d="M6630 4175 c0 -8 4 -15 10 -15 5 0 7 7 4 15 -4 8 -8 15 -10 15 -2 0
-4 -7 -4 -15z"/>
<path d="M5402 4490 c0 -14 2 -19 5 -12 2 6 2 18 0 25 -3 6 -5 1 -5 -13z"/>
<path d="M5540 4446 c0 -8 -7 -16 -15 -20 -23 -8 -19 -46 5 -46 17 0 20 7 20
40 0 22 -2 40 -5 40 -3 0 -5 -6 -5 -14z"/>
<path d="M5243 4435 c0 -44 2 -61 4 -37 2 23 2 59 0 80 -2 20 -4 1 -4 -43z"/>
<path d="M4940 4405 c0 -8 5 -15 10 -15 6 0 10 7 10 15 0 8 -4 15 -10 15 -5 0
-10 -7 -10 -15z"/>
<path d="M5062 4475 c0 -16 2 -22 5 -12 2 9 2 23 0 30 -3 6 -5 -1 -5 -18z"/>
<path d="M5062 4380 c0 -19 2 -27 5 -17 2 9 2 25 0 35 -3 9 -5 1 -5 -18z"/>
<path d="M5871 4164 c0 -11 3 -14 6 -6 3 7 2 16 -1 19 -3 4 -6 -2 -5 -13z"/>
<path d="M5232 4146 c-9 -20 -9 -33 -3 -39 16 -16 23 -3 19 35 l-4 33 -12 -29z"/>
<path d="M5302 4130 c0 -14 2 -19 5 -12 2 6 2 18 0 25 -3 6 -5 1 -5 -13z"/>
<path d="M4980 4153 c0 -5 5 -15 10 -23 8 -12 10 -11 10 8 0 12 -4 22 -10 22
-5 0 -10 -3 -10 -7z"/>
<path d="M4922 4125 c0 -16 2 -22 5 -12 2 9 2 23 0 30 -3 6 -5 -1 -5 -18z"/>
<path d="M4975 4100 c4 -6 11 -8 16 -5 14 9 11 15 -7 15 -8 0 -12 -5 -9 -10z"/>
<path d="M8510 3586 c0 -9 5 -16 10 -16 6 0 10 4 10 9 0 6 -4 13 -10 16 -5 3
-10 -1 -10 -9z"/>
<path d="M5237 2300 c-3 -11 -1 -20 4 -20 5 0 9 9 9 20 0 11 -2 20 -4 20 -2 0
-6 -9 -9 -20z"/>
<path d="M6376 1121 c-7 -11 28 -21 44 -11 8 5 7 9 -5 14 -23 8 -33 8 -39 -3z"/>
<path d="M91 964 c0 -11 3 -14 6 -6 3 7 2 16 -1 19 -3 4 -6 -2 -5 -13z"/>
<path d="M110 785 c0 -9 9 -15 21 -15 18 0 19 2 9 15 -7 8 -16 15 -21 15 -5 0
-9 -7 -9 -15z"/>
<path d="M116 734 c-9 -23 -8 -24 13 -24 25 0 38 20 20 31 -20 12 -26 11 -33
-7z"/>
<path d="M9348 5153 c7 -3 16 -2 19 1 4 3 -2 6 -13 5 -11 0 -14 -3 -6 -6z"/>
<path d="M9208 5143 c7 -3 16 -2 19 1 4 3 -2 6 -13 5 -11 0 -14 -3 -6 -6z"/>
<path d="M6564 5030 c0 -52 1 -74 3 -47 2 26 2 68 0 95 -2 26 -3 4 -3 -48z"/>
<path d="M9528 5113 c7 -3 16 -2 19 1 4 3 -2 6 -13 5 -11 0 -14 -3 -6 -6z"/>
<path d="M9413 5103 c9 -2 25 -2 35 0 9 3 1 5 -18 5 -19 0 -27 -2 -17 -5z"/>
<path d="M8258 5073 c12 -2 32 -2 45 0 12 2 2 4 -23 4 -25 0 -35 -2 -22 -4z"/>
<path d="M3100 5039 c-22 -30 -20 -53 1 -32 6 6 18 9 25 6 9 -3 14 2 14 14 0
31 38 24 45 -9 7 -31 41 -39 52 -13 3 9 20 23 37 31 17 8 23 12 14 10 -9 -3
-18 1 -21 7 -3 8 -31 13 -75 15 -68 2 -71 1 -92 -29z"/>
<path d="M8168 5063 c7 -3 16 -2 19 1 4 3 -2 6 -13 5 -11 0 -14 -3 -6 -6z"/>
<path d="M3448 5053 c7 -3 16 -2 19 1 4 3 -2 6 -13 5 -11 0 -14 -3 -6 -6z"/>
<path d="M8583 5043 c15 -2 37 -2 50 0 12 2 0 4 -28 4 -27 0 -38 -2 -22 -4z"/>
<path d="M7913 5033 c15 -2 37 -2 50 0 12 2 0 4 -28 4 -27 0 -38 -2 -22 -4z"/>
<path d="M8428 5033 c12 -2 30 -2 40 0 9 3 -1 5 -23 4 -22 0 -30 -2 -17 -4z"/>
<path d="M7783 5023 c15 -2 39 -2 55 0 15 2 2 4 -28 4 -30 0 -43 -2 -27 -4z"/>
<path d="M8293 5023 c9 -2 23 -2 30 0 6 3 -1 5 -18 5 -16 0 -22 -2 -12 -5z"/>
<path d="M7658 5013 c12 -2 32 -2 45 0 12 2 2 4 -23 4 -25 0 -35 -2 -22 -4z"/>
<path d="M7538 5003 c12 -2 32 -2 45 0 12 2 2 4 -23 4 -25 0 -35 -2 -22 -4z"/>
<path d="M7423 4993 c9 -2 25 -2 35 0 9 3 1 5 -18 5 -19 0 -27 -2 -17 -5z"/>
<path d="M7188 4973 c7 -3 16 -2 19 1 4 3 -2 6 -13 5 -11 0 -14 -3 -6 -6z"/>
<path d="M1531 4900 c-5 -3 -14 -16 -21 -29 -11 -22 -11 -24 10 -18 12 3 33 2
46 -3 21 -8 24 -7 25 13 l0 22 9 -23 c5 -12 6 -30 3 -39 -4 -11 -3 -14 5 -9 7
4 12 14 12 21 0 9 6 12 15 9 9 -4 18 1 22 12 4 11 14 25 22 32 9 7 12 12 6 11
-5 -1 -12 0 -15 1 -10 5 -132 5 -139 0z"/>
<path d="M267 4748 c-8 -28 -2 -34 18 -18 9 7 18 10 21 7 6 -6 34 16 34 27 0
3 -15 6 -34 6 -26 0 -35 -5 -39 -22z"/>
<path d="M350 4762 c0 -14 36 -52 49 -52 7 0 9 5 6 10 -3 6 6 15 21 20 15 6
24 13 21 16 -9 10 -97 15 -97 6z"/>
<path d="M5858 4763 c7 -3 16 -2 19 1 4 3 -2 6 -13 5 -11 0 -14 -3 -6 -6z"/>
<path d="M5720 4740 c0 -4 9 -10 20 -13 11 -3 20 -2 20 3 0 4 -9 10 -20 13
-11 3 -20 2 -20 -3z"/>
<path d="M2240 4554 c-96 -15 -148 -28 -171 -45 -15 -10 -37 -23 -50 -29 -47
-21 -68 -37 -113 -83 -76 -80 -85 -187 -25 -329 44 -106 45 -108 21 -108 -34
0 -39 -58 -12 -115 25 -52 87 -115 113 -115 9 0 17 -7 17 -15 0 -8 5 -15 10
-15 22 0 20 29 -4 84 l-26 58 35 -31 c40 -35 60 -39 73 -15 12 21 73 33 209
39 62 3 124 10 138 15 38 14 38 14 31 -30 -6 -39 -6 -39 35 -50 23 -6 44 -9
47 -6 3 3 -1 7 -9 7 -8 1 2 4 21 8 29 5 36 11 38 34 2 16 10 31 18 34 8 3 14
20 15 42 0 20 8 66 17 102 17 63 17 67 -1 95 -13 21 -17 41 -13 69 3 22 0 69
-6 103 -11 62 -15 67 -102 157 -88 90 -94 93 -174 119 -46 14 -88 25 -95 25
-7 -1 -23 -3 -37 -5z m316 -541 c-10 -10 -19 5 -10 18 6 11 8 11 12 0 2 -7 1
-15 -2 -18z m-596 -115 c0 -19 -18 -43 -25 -36 -9 9 4 48 16 48 5 0 9 -6 9
-12z"/>
<path d="M1500 4490 c25 -8 25 -8 2 -9 -13 -1 -21 -5 -18 -10 8 -13 -18 -21
-35 -10 -8 5 -25 9 -39 10 -23 1 -23 2 5 9 23 6 15 8 -37 9 l-67 1 -4 -102
c-2 -57 -5 -235 -5 -396 l-1 -293 102 -125 c56 -69 107 -132 113 -140 6 -8 14
-14 18 -14 3 0 6 226 6 503 0 439 -2 505 -16 525 -8 12 -10 22 -5 22 6 0 11 7
11 15 0 10 -9 15 -27 14 l-28 -1 25 -8z m-82 -779 c3 -10 0 -12 -12 -8 -15 6
-16 5 -2 -14 8 -12 12 -28 9 -35 -7 -19 -43 -18 -43 1 0 9 6 12 18 8 15 -6 15
-4 -2 15 -10 12 -16 28 -12 37 7 19 37 16 44 -4z m44 5 c7 5 20 9 28 8 8 -1
20 -2 27 -3 20 -2 10 -75 -11 -79 -20 -4 -44 14 -33 24 4 4 13 1 22 -6 22 -18
19 4 -4 24 -17 16 -19 15 -34 -16 -9 -18 -17 -26 -17 -17 0 9 -3 32 -6 50 -4
25 -3 30 4 20 7 -10 15 -12 24 -5z"/>
<path d="M1500 3700 c0 -5 5 -10 11 -10 5 0 7 5 4 10 -3 6 -8 10 -11 10 -2 0
-4 -4 -4 -10z"/>
<path d="M295 4430 c-19 -8 -19 -9 3 -9 12 -1 22 4 22 9 0 6 -1 10 -2 9 -2 0
-12 -4 -23 -9z"/>
<path d="M330 4430 c0 -5 5 -10 10 -10 6 0 10 5 10 10 0 6 -4 10 -10 10 -5 0
-10 -4 -10 -10z"/>
<path d="M234 4414 c21 -21 21 -20 -21 -23 -21 -1 -43 -3 -49 -3 -10 -1 -11
-11 -4 -38 0 -3 1 -161 0 -352 l-1 -348 47 0 c38 0 45 3 40 16 -3 9 -9 33 -12
54 -5 28 -12 40 -28 44 -16 5 -18 8 -7 15 9 6 10 11 3 15 -14 9 -3 38 12 33 6
-2 11 -8 12 -13 1 -9 10 -35 24 -69 8 -19 9 -19 9 -1 1 20 15 13 16 -7 1 -7 7
-25 15 -41 12 -24 12 -30 0 -40 -9 -6 -14 -23 -12 -38 2 -20 -1 -28 -12 -28
-9 0 -16 6 -16 14 0 9 -8 12 -24 9 -13 -3 -33 0 -45 6 -14 8 -21 8 -21 1 0 -5
-11 -10 -23 -10 -22 0 -57 -27 -57 -43 0 -8 82 -45 137 -63 l43 -13 45 47 c38
40 44 51 39 77 l-6 30 36 -38 c26 -29 40 -37 56 -32 14 4 20 2 20 -9 0 -8 9
-20 20 -26 19 -10 19 -11 1 -58 -31 -78 -55 -121 -68 -122 -7 0 -13 5 -13 11
0 6 -8 8 -19 4 -14 -4 -22 1 -29 22 -9 25 -11 26 -11 6 -1 -21 -11 -28 -33
-24 -5 0 -8 -4 -8 -9 0 -6 -8 -10 -17 -10 -21 -1 79 -97 114 -111 12 -4 35
-28 50 -51 15 -24 42 -60 59 -81 29 -34 104 -165 104 -181 0 -3 -6 -3 -13 0
-7 2 -21 -3 -32 -11 -20 -16 -20 -16 1 -6 16 8 25 7 32 -2 25 -32 102 -147
102 -152 0 -4 23 -52 50 -108 50 -101 58 -127 41 -127 -5 0 -8 -11 -7 -25 1
-31 14 -33 18 -2 3 19 6 17 24 -18 13 -23 28 -38 35 -36 8 2 20 4 26 4 8 0 10
9 7 23 -6 24 10 64 26 64 6 0 11 -19 11 -42 2 -38 3 -36 9 17 4 33 3 64 -2 69
-4 6 -8 1 -8 -11 0 -12 -8 -23 -20 -26 -11 -3 -20 -12 -20 -21 0 -9 -4 -16 -9
-16 -5 0 -12 35 -16 78 -3 42 -11 101 -16 131 -11 66 -12 141 -1 124 4 -7 13
-9 21 -4 9 6 7 10 -9 14 -17 4 -21 11 -18 29 2 13 -1 30 -9 36 -12 12 -16 47
-14 122 2 40 -23 140 -45 184 -8 16 -12 31 -10 34 3 2 39 -10 82 -28 55 -23
79 -29 87 -21 17 17 12 112 -7 148 -24 47 0 54 38 12 43 -47 63 -46 71 2 8 45
25 53 25 11 0 -16 8 -32 19 -39 23 -14 17 -52 -8 -55 -9 0 -21 -2 -28 -2 -19
-2 -26 -15 -16 -28 6 -7 21 -44 33 -83 35 -112 36 -113 72 -118 l33 -4 -37 -1
c-21 -1 -38 -7 -38 -12 0 -17 122 -8 128 9 3 8 1 11 -4 8 -5 -3 -8 153 -6 364
3 332 2 369 -12 369 -9 0 -16 -8 -16 -19 0 -18 -7 -19 -95 -18 -60 1 -99 7
-107 15 -6 6 -34 12 -60 12 -26 0 -48 3 -48 8 0 4 29 7 64 7 35 0 60 -3 54 -6
-5 -3 5 -9 22 -13 50 -9 130 -7 130 4 0 6 -29 10 -66 10 -36 0 -63 4 -60 8 3
5 -4 23 -14 40 -19 31 -22 32 -86 31 -63 -2 -68 0 -102 34 -50 50 -42 55 70
39 38 -5 62 -4 69 2 7 8 19 1 39 -23 27 -32 30 -33 64 -21 21 7 53 9 76 5 75
-13 81 -5 79 93 -1 48 -7 102 -15 120 -7 17 -9 32 -4 32 8 0 8 25 -1 34 -2 2
-37 6 -78 9 -47 3 -80 10 -92 20 -10 9 -21 12 -24 7 -7 -11 -52 -9 -304 14
-182 16 -235 30 -248 62 -3 7 -13 14 -22 14 -19 0 -82 49 -63 50 6 0 12 4 12
10 0 5 -10 9 -22 7 -17 -1 -23 3 -22 16 1 9 -4 17 -12 17 -8 0 -14 -5 -14 -11
0 -6 -12 -1 -26 10 -31 25 -53 28 -30 5z m638 -259 c0 -5 -5 -11 -11 -13 -6
-2 -11 4 -11 13 0 9 5 15 11 13 6 -2 11 -8 11 -13z m182 -10 c4 -10 -1 -15
-14 -15 -11 0 -20 7 -20 15 0 8 6 15 14 15 8 0 16 -7 20 -15z m92 -10 c-8 -8
-22 -12 -30 -9 -23 9 -9 24 20 24 23 0 24 -2 10 -15z m-816 -112 l45 -6 -34
-9 c-18 -5 -40 -16 -48 -24 -20 -19 -50 -18 -62 4 -10 16 -10 16 -11 0 0 -10
-4 -18 -10 -18 -5 0 -10 9 -10 19 0 11 -3 26 -6 35 -6 17 4 17 136 -1z m-120
-112 c0 -11 5 -21 12 -23 7 -3 8 -10 4 -17 -10 -16 -22 -4 -30 32 -4 16 -2 27
4 27 5 0 10 -9 10 -19z m170 -50 c0 -6 -4 -13 -10 -16 -5 -3 -10 1 -10 9 0 9
5 16 10 16 6 0 10 -4 10 -9z m40 -60 c0 -6 -4 -13 -10 -16 -5 -3 -10 1 -10 9
0 9 5 16 10 16 6 0 10 -4 10 -9z m-31 -5 c-2 -1 -19 -8 -38 -14 -29 -10 -32
-10 -21 3 7 8 24 15 38 15 14 0 23 -2 21 -4z m714 -63 c-13 -2 -33 -2 -45 0
-13 2 -3 4 22 4 25 0 35 -2 23 -4z m-523 -84 c0 -34 -9 -37 -33 -9 -14 17 -14
20 -2 20 8 0 15 7 15 16 0 8 5 12 10 9 6 -3 10 -19 10 -36z m344 -88 c-9 -10
-24 16 -29 49 l-5 35 19 -40 c10 -22 17 -42 15 -44z m-769 -1 c3 -5 1 -10 -4
-10 -6 0 -11 5 -11 10 0 6 2 10 4 10 3 0 8 -4 11 -10z m1010 -140 c19 -37 19
-40 -5 -40 -13 0 -20 7 -20 19 0 11 -3 26 -6 35 -11 28 15 17 31 -14z m-45
-12 c0 -18 -2 -20 -9 -8 -6 8 -7 18 -5 22 9 14 14 9 14 -14z m5 -69 c0 -16 -4
-27 -10 -26 -5 2 -10 9 -9 15 1 7 2 22 3 34 2 31 16 12 16 -23z m-525 -184
c47 -13 119 -3 131 17 4 6 16 -10 28 -36 23 -54 43 -179 29 -184 -5 -2 -5 -9
1 -16 10 -12 24 -121 36 -281 7 -93 3 -91 -60 50 -23 50 -47 90 -53 90 -7 0
-22 16 -33 35 -16 25 -17 31 -5 21 15 -13 16 -11 6 13 -13 35 -13 33 10 39 11
3 20 11 19 19 0 10 -2 10 -6 1 -5 -15 -43 -18 -43 -4 0 5 -3 17 -7 27 -5 14
-2 16 20 12 15 -3 24 -1 21 3 -3 5 -17 9 -31 9 -21 0 -24 -4 -20 -21 12 -46
-52 46 -73 106 -12 33 -31 75 -41 93 l-19 33 22 -7 c13 -4 43 -13 68 -19z
m180 -8 c0 -5 -4 -5 -10 -2 -5 3 -10 14 -10 23 0 15 2 15 10 2 5 -8 10 -19 10
-23z"/>
<path d="M255 3990 c3 -5 8 -10 11 -10 2 0 4 5 4 10 0 6 -5 10 -11 10 -5 0 -7
-4 -4 -10z"/>
<path d="M740 2960 c0 -6 7 -10 15 -10 8 0 15 2 15 4 0 2 -7 6 -15 10 -8 3
-15 1 -15 -4z"/>
<path d="M740 2900 c0 -5 5 -10 11 -10 5 0 7 5 4 10 -3 6 -8 10 -11 10 -2 0
-4 -4 -4 -10z"/>
<path d="M737 2857 c-8 -20 11 -31 40 -24 15 4 14 5 -4 6 -12 0 -23 9 -25 19
-3 16 -4 16 -11 -1z"/>
<path d="M375 4400 c3 -5 18 -10 32 -10 32 0 28 5 -10 14 -19 4 -26 3 -22 -4z"/>
<path d="M483 4383 c15 -2 37 -2 50 0 12 2 0 4 -28 4 -27 0 -38 -2 -22 -4z"/>
<path d="M578 4373 c12 -2 30 -2 40 0 9 3 -1 5 -23 4 -22 0 -30 -2 -17 -4z"/>
<path d="M398 4363 c12 -2 30 -2 40 0 9 3 -1 5 -23 4 -22 0 -30 -2 -17 -4z"/>
<path d="M678 4363 c12 -2 32 -2 45 0 12 2 2 4 -23 4 -25 0 -35 -2 -22 -4z"/>
<path d="M478 4353 c6 -2 18 -2 25 0 6 3 1 5 -13 5 -14 0 -19 -2 -12 -5z"/>
<path d="M788 4353 c12 -2 30 -2 40 0 9 3 -1 5 -23 4 -22 0 -30 -2 -17 -4z"/>
<path d="M593 4343 c9 -2 25 -2 35 0 9 3 1 5 -18 5 -19 0 -27 -2 -17 -5z"/>
<path d="M881 4346 c2 -2 36 -6 74 -9 54 -4 61 -4 30 3 -40 9 -112 13 -104 6z"/>
<path d="M1008 4303 c6 -2 18 -2 25 0 6 3 1 5 -13 5 -14 0 -19 -2 -12 -5z"/>
<path d="M988 4273 c7 -3 16 -2 19 1 4 3 -2 6 -13 5 -11 0 -14 -3 -6 -6z"/>
<path d="M955 4250 c3 -5 18 -10 32 -10 32 0 28 5 -10 14 -19 4 -26 3 -22 -4z"/>
<path d="M0 3892 c0 -73 4 -131 8 -128 4 2 19 27 32 55 l23 51 -21 23 c-15 16
-22 36 -22 63 0 21 -5 46 -10 54 -7 10 -10 -28 -10 -118z"/>
<path d="M2672 3837 c4 -42 2 -67 -5 -70 -6 -2 -8 -10 -5 -19 5 -12 37 -16
180 -22 95 -5 176 -10 180 -12 13 -8 9 -62 -4 -67 -9 -4 -10 -6 -1 -6 6 -1 41
17 76 40 l64 41 -5 71 c-2 40 -6 74 -8 76 -2 2 -66 8 -141 12 -76 4 -183 10
-237 15 l-99 7 5 -66z m86 -45 c3 -21 0 -23 -30 -20 -25 2 -34 8 -36 25 -3 20
1 23 30 20 26 -2 34 -7 36 -25z m108 18 c61 0 64 -1 64 -24 0 -24 -1 -25 -62
-19 -35 3 -71 5 -80 5 -13 -1 -18 7 -18 25 0 19 4 24 16 19 9 -3 45 -6 80 -6z"/>
<path d="M1584 3765 c0 -49 1 -71 3 -48 2 23 2 64 0 90 -2 26 -3 8 -3 -42z"/>
<path d="M3290 3698 c-6 -7 -19 -29 -28 -48 -12 -25 -28 -39 -59 -50 -53 -19
-94 -55 -116 -100 -16 -34 -16 -35 6 -43 86 -33 228 -112 243 -135 10 -15 37
-47 61 -73 48 -51 68 -92 78 -160 12 -83 17 -83 110 16 84 89 95 105 74 105
-5 0 -7 5 -4 10 4 6 -1 36 -11 67 -13 42 -15 58 -6 61 47 15 -74 269 -152 319
-60 38 -174 56 -196 31z m233 -272 c4 -10 1 -13 -8 -9 -8 3 -12 9 -9 14 7 12
11 11 17 -5z"/>
<path d="M1241 3327 c-1 -199 0 -359 3 -356 4 3 13 32 22 65 11 44 14 87 9
169 -3 60 -9 192 -13 292 -4 100 -10 184 -13 187 -3 3 -6 -157 -8 -357z"/>
<path d="M1611 3585 c0 -55 4 -107 9 -115 12 -19 12 166 0 195 -6 13 -9 -15
-9 -80z"/>
<path d="M1584 3555 c0 -66 1 -92 3 -57 2 34 2 88 0 120 -2 31 -3 3 -3 -63z"/>
<path d="M2843 3653 c9 -2 23 -2 30 0 6 3 -1 5 -18 5 -16 0 -22 -2 -12 -5z"/>
<path d="M2694 3618 c15 -23 22 -25 118 -27 109 -2 118 -4 118 -27 0 -12 -11
-14 -55 -11 -30 3 -55 3 -55 1 0 -7 64 -31 100 -37 35 -7 36 -6 62 45 19 36
24 56 17 63 -6 6 -79 12 -165 14 l-156 3 16 -24z"/>
<path d="M4207 3604 c4 -10 -1 -17 -15 -21 -13 -3 -19 -10 -15 -19 3 -8 0 -14
-6 -14 -6 0 -11 7 -11 15 0 19 -14 19 -30 0 -7 -8 -8 -20 -4 -27 5 -7 7 -22 5
-32 -2 -13 2 -17 12 -13 9 3 18 -1 21 -9 7 -19 42 -18 50 2 10 25 7 134 -4
134 -5 0 -7 -7 -3 -16z m-4 -111 c-7 -2 -19 -2 -25 0 -7 3 -2 5 12 5 14 0 19
-2 13 -5z"/>
<path d="M4350 3590 c0 -5 5 -10 11 -10 5 0 7 5 4 10 -3 6 -8 10 -11 10 -2 0
-4 -4 -4 -10z"/>
<path d="M4382 3570 c-7 -12 -17 -18 -22 -15 -5 3 -25 3 -44 0 -27 -6 -33 -11
-29 -26 7 -26 39 -20 35 6 -2 12 0 16 5 9 5 -7 22 -9 41 -7 26 4 32 10 32 29
0 29 -2 30 -18 4z"/>
<path d="M5065 3570 c-8 -25 1 -40 25 -40 19 0 36 32 25 50 -11 17 -43 11 -50
-10z"/>
<path d="M4450 3565 c0 -8 3 -15 6 -15 3 0 12 7 20 15 14 13 13 15 -5 15 -12
0 -21 -6 -21 -15z"/>
<path d="M4962 3563 c3 -12 1 -24 -5 -26 -16 -5 2 -27 23 -27 11 0 29 -10 40
-22 17 -19 22 -20 30 -8 5 8 6 18 3 23 -3 5 4 6 17 2 15 -5 20 -4 16 4 -4 6
-14 11 -22 11 -9 0 -14 11 -14 30 0 25 -4 30 -24 30 -14 0 -28 -5 -31 -10 -5
-8 -12 -7 -23 2 -13 11 -15 10 -10 -9z m48 -18 c0 -8 -7 -15 -15 -15 -13 0
-14 3 -3 15 16 18 18 18 18 0z"/>
<path d="M6966 3495 c4 -8 8 -15 10 -15 2 0 4 7 4 15 0 8 -4 15 -10 15 -5 0
-7 -7 -4 -15z"/>
<path d="M5071 3464 c0 -11 3 -14 6 -6 3 7 2 16 -1 19 -3 4 -6 -2 -5 -13z"/>
<path d="M6058 3438 c-2 -24 -1 -44 4 -46 4 -2 8 -16 8 -32 0 -30 12 -44 48
-54 21 -7 22 -5 22 43 0 44 -3 51 -20 51 -24 0 -27 -25 -4 -34 22 -9 8 -25
-17 -19 -16 5 -20 13 -19 42 3 63 0 91 -9 91 -5 0 -11 -19 -13 -42z"/>
<path d="M4100 3432 c-5 -2 -10 -15 -10 -28 0 -22 4 -24 45 -24 33 0 45 4 45
15 0 8 5 15 10 15 6 0 10 4 10 9 0 9 -80 19 -100 13z"/>
<path d="M8721 3314 c0 -11 3 -14 6 -6 3 7 2 16 -1 19 -3 4 -6 -2 -5 -13z"/>
<path d="M4666 3261 c-4 -5 -2 -12 3 -15 5 -4 12 -2 15 3 4 5 2 12 -3 15 -5 4
-12 2 -15 -3z"/>
<path d="M5288 3180 c-5 -32 6 -41 16 -14 9 23 7 44 -3 44 -5 0 -11 -13 -13
-30z"/>
<path d="M8691 3184 c0 -11 3 -14 6 -6 3 7 2 16 -1 19 -3 4 -6 -2 -5 -13z"/>
<path d="M1001 3133 c16 -19 29 -42 29 -53 0 -10 5 -22 10 -25 6 -4 10 7 10
24 0 17 -3 31 -8 31 -4 0 -13 13 -19 28 -8 16 -21 28 -32 28 -17 0 -16 -4 10
-33z"/>
<path d="M5025 3150 c3 -5 8 -10 11 -10 2 0 4 5 4 10 0 6 -5 10 -11 10 -5 0
-7 -4 -4 -10z"/>
<path d="M3727 3120 c-15 -12 -27 -26 -27 -31 0 -15 23 -10 49 12 35 29 13 47
-22 19z"/>
<path d="M4471 3114 c0 -11 3 -14 6 -6 3 7 2 16 -1 19 -3 4 -6 -2 -5 -13z"/>
<path d="M5313 3010 c-3 -65 11 -115 27 -105 6 4 8 15 5 25 -3 10 -7 44 -9 76
-4 77 -20 80 -23 4z"/>
<path d="M3941 3046 c10 -9 69 -36 69 -32 0 6 -55 36 -66 36 -4 0 -5 -2 -3 -4z"/>
<path d="M3583 2988 c-25 -25 -42 -51 -39 -57 4 -6 2 -11 -3 -11 -6 0 -11 -4
-11 -10 0 -20 29 -10 50 18 12 15 39 46 60 68 38 40 38 42 14 40 -15 0 -43
-19 -71 -48z"/>
<path d="M4312 2990 c0 -14 2 -19 5 -12 2 6 2 18 0 25 -3 6 -5 1 -5 -13z"/>
<path d="M1066 2945 c8 -37 14 -45 14 -19 0 10 -5 26 -10 34 -8 11 -9 7 -4
-15z"/>
<path d="M0 2871 c0 -23 8 -30 63 -54 73 -32 87 -33 87 -9 0 31 -16 43 -84 67
l-66 23 0 -27z"/>
<path d="M1570 2870 c0 -5 5 -10 11 -10 5 0 7 5 4 10 -3 6 -8 10 -11 10 -2 0
-4 -4 -4 -10z"/>
<path d="M473 2848 c-9 -20 -6 -26 23 -45 19 -12 34 -17 34 -11 0 5 7 7 16 4
14 -6 15 -4 4 9 -9 11 -15 13 -20 5 -13 -21 -52 11 -45 38 3 12 4 22 2 22 -2
0 -8 -10 -14 -22z"/>
<path d="M500 2862 c0 -4 10 -13 23 -21 22 -14 22 -14 3 8 -20 22 -26 25 -26
13z"/>
<path d="M1048 2838 c-18 -15 -34 -58 -21 -58 15 0 53 40 53 55 0 18 -11 19
-32 3z"/>
<path d="M6105 2820 c17 -119 22 -251 11 -320 -17 -111 -18 -110 69 -110 50 0
78 -5 87 -14 9 -9 21 -11 43 -5 16 5 42 9 57 9 15 0 30 6 34 13 4 6 4 9 -1 5
-4 -4 -14 -3 -22 3 -11 10 -11 16 2 35 19 29 15 30 -32 4 -21 -11 -45 -20 -55
-20 -9 0 -20 -4 -23 -10 -7 -11 -84 -14 -109 -4 -21 8 -10 24 17 25 20 1 20 2
-3 9 -14 4 -20 8 -14 9 6 1 14 20 18 44 17 107 45 136 133 138 30 0 34 2 18 9
-28 12 -113 12 -120 0 -14 -23 -22 -7 -14 28 11 48 11 72 0 72 -4 0 -11 -15
-14 -33 -3 -19 -14 -48 -24 -65 l-19 -31 -12 98 c-6 54 -16 109 -22 122 -8 21
-9 20 -5 -11z"/>
<path d="M3325 2830 c-3 -6 -5 -58 -4 -118 1 -59 -4 -135 -11 -170 -7 -34 -10
-66 -6 -69 10 -10 35 19 39 44 1 11 8 27 13 35 6 7 15 20 19 28 8 13 7 13 -8
1 -15 -12 -17 -11 -17 2 0 9 5 19 10 22 6 3 10 11 10 16 0 6 -5 7 -10 4 -14
-8 -24 22 -13 38 4 6 7 49 5 95 -3 76 -11 97 -27 72z"/>
<path d="M606 2815 c4 -8 11 -15 16 -15 6 0 5 6 -2 15 -7 8 -14 15 -16 15 -2
0 -1 -7 2 -15z"/>
<path d="M0 2788 c0 -16 13 -31 43 -49 64 -40 83 -44 91 -17 3 13 6 26 6 30 0
8 -108 58 -126 58 -8 0 -14 -10 -14 -22z"/>
<path d="M1075 2780 c-10 -11 -26 -20 -35 -20 -11 0 -20 -10 -22 -25 -4 -19
-1 -25 13 -25 17 0 79 56 79 72 0 17 -19 16 -35 -2z"/>
<path d="M554 2761 c20 -22 26 -25 26 -13 0 4 -10 13 -22 21 -23 14 -23 14 -4
-8z"/>
<path d="M436 2754 c-15 -39 -7 -49 52 -63 31 -7 63 -18 70 -23 8 -8 12 -6 12
4 0 8 -12 15 -27 16 -15 1 -29 6 -32 10 -3 4 -17 9 -30 9 -30 2 -45 17 -38 37
7 18 35 12 55 -12 6 -9 12 -11 12 -5 0 28 -65 52 -74 27z"/>
<path d="M85 2629 c-11 -17 1 -21 15 -4 8 9 8 15 2 15 -6 0 -14 -5 -17 -11z"/>
<path d="M3430 2620 c-9 -6 -10 -10 -3 -10 6 0 15 5 18 10 8 12 4 12 -15 0z"/>
<path d="M3584 2615 c-18 -14 -18 -14 4 -15 26 0 52 -49 52 -97 1 -25 2 -26
11 -9 14 22 5 80 -16 112 -18 28 -24 29 -51 9z"/>
<path d="M1073 2583 c-49 -20 -63 -30 -63 -47 -1 -11 -4 -43 -7 -71 -6 -57 -6
-79 5 -155 6 -44 12 -57 31 -67 42 -20 57 -2 70 84 7 43 19 110 27 148 19 88
22 127 9 131 -5 2 -38 -9 -72 -23z"/>
<path d="M523 2590 c-33 -13 -46 -46 -34 -81 7 -21 7 -29 -2 -29 -29 1 -40 18
-34 54 6 38 -7 48 -31 24 -35 -35 5 -88 66 -88 61 0 108 -75 63 -100 -22 -11
-64 -13 -74 -4 -10 10 12 44 28 44 18 0 20 27 3 33 -26 8 -58 -15 -58 -43 0
-34 28 -60 65 -60 26 0 27 -1 13 -17 -24 -27 -32 -77 -15 -92 12 -9 16 -6 21
23 7 38 60 96 88 96 21 0 38 -36 38 -81 0 -31 14 -39 24 -13 3 8 10 13 14 10
5 -3 9 8 9 23 0 20 -4 28 -14 24 -17 -7 -16 7 3 32 9 12 12 30 8 47 -5 25 -3
28 20 28 23 0 26 4 25 33 -2 30 -2 30 -6 5 -3 -20 -10 -28 -24 -28 -18 0 -19
5 -13 38 4 24 3 34 -4 27 -13 -13 -22 -105 -10 -105 5 0 4 -9 -2 -20 -24 -45
-83 1 -80 63 3 47 1 54 -10 37 -7 -12 -12 -12 -21 -3 -10 10 -10 18 0 40 13
27 13 28 -8 9 -17 -15 -23 -16 -36 -6 -23 19 -19 65 8 78 26 13 11 14 -20 2z
m82 -210 c3 -5 -1 -10 -10 -10 -9 0 -13 5 -10 10 3 6 8 10 10 10 2 0 7 -4 10
-10z"/>
<path d="M1565 2590 c3 -5 15 -15 27 -21 16 -8 19 -8 16 2 -2 6 -14 16 -27 20
-14 6 -20 5 -16 -1z"/>
<path d="M576 2577 c3 -10 9 -15 12 -12 3 3 0 11 -7 18 -10 9 -11 8 -5 -6z"/>
<path d="M0 2467 c0 -101 2 -113 20 -125 26 -16 26 -42 0 -49 -21 -6 -27 -37
-10 -48 8 -5 7 -11 0 -20 -9 -11 -6 -16 14 -21 28 -7 56 9 56 31 0 14 29 29
38 20 3 -3 -3 -12 -14 -19 -16 -12 -17 -17 -6 -28 17 -17 199 -25 215 -9 8 8
5 11 -10 11 -11 0 -26 7 -33 15 -7 8 -17 15 -24 15 -6 0 -33 24 -61 53 -28 28
-77 69 -108 90 -72 48 -74 67 -8 67 30 0 53 5 61 15 10 12 5 16 -34 26 -54 13
-59 26 -13 31 17 2 30 6 27 9 -3 4 4 16 14 28 l19 21 -41 0 c-31 0 -42 -4 -42
-16 0 -14 -2 -14 -22 0 -12 9 -26 16 -30 16 -5 0 -8 -51 -8 -113z m50 -247 c0
-5 -4 -10 -10 -10 -5 0 -10 5 -10 10 0 6 5 10 10 10 6 0 10 -4 10 -10z"/>
<path d="M950 2551 c0 -5 5 -13 10 -16 6 -3 10 -2 10 4 0 5 -4 13 -10 16 -5 3
-10 2 -10 -4z"/>
<path d="M1280 2541 c0 -10 68 -183 73 -187 1 -1 12 -5 25 -8 16 -5 22 -3 22
8 0 8 -9 18 -20 21 -12 4 -17 11 -13 18 9 15 4 69 -8 82 -5 5 -9 19 -9 31 0
12 -8 24 -17 27 -10 2 -26 8 -35 12 -11 4 -18 3 -18 -4z"/>
<path d="M640 2445 c0 -29 4 -45 13 -45 8 0 11 14 9 45 -2 25 -8 45 -13 45 -5
0 -9 -20 -9 -45z"/>
<path d="M3840 2438 c0 -35 6 -54 20 -68 l20 -20 0 24 c0 13 -9 43 -20 67
l-20 44 0 -47z"/>
<path d="M6466 2439 c-27 -27 -28 -29 -8 -29 12 0 26 9 32 21 19 35 6 39 -24
8z"/>
<path d="M2510 2426 c0 -30 9 -56 20 -56 13 0 20 30 14 56 -8 31 -34 31 -34 0z"/>
<path d="M923 2423 c-13 -2 -23 -9 -23 -14 0 -13 12 -11 51 6 33 14 21 18 -28
8z"/>
<path d="M849 2398 c-1 -13 0 -27 1 -33 1 -5 3 -20 4 -32 1 -22 29 -32 40 -15
6 10 -9 34 -20 32 -5 -1 -10 3 -12 9 -2 6 3 9 11 6 10 -5 14 2 13 22 -1 36
-35 46 -37 11z"/>
<path d="M2560 2401 c0 -5 7 -12 16 -15 22 -9 24 -8 24 9 0 8 -9 15 -20 15
-11 0 -20 -4 -20 -9z"/>
<path d="M2503 2330 c0 -25 2 -35 4 -22 2 12 2 32 0 45 -2 12 -4 2 -4 -23z"/>
<path d="M2586 2355 c-3 -8 -1 -15 4 -15 6 0 10 7 10 15 0 8 -2 15 -4 15 -2 0
-6 -7 -10 -15z"/>
<path d="M1380 2322 c0 -4 10 -13 23 -21 22 -14 22 -14 3 8 -20 22 -26 25 -26
13z"/>
<path d="M979 2305 c-3 -2 -21 -5 -41 -7 -25 -1 -34 -6 -31 -15 3 -7 0 -13 -6
-13 -6 0 -11 7 -11 15 0 17 -11 20 -26 6 -5 -5 -20 -11 -34 -13 -14 -2 -26
-11 -28 -21 -3 -17 3 -18 95 -11 54 3 100 8 102 10 3 3 0 9 -6 15 -6 6 -9 18
-6 25 5 14 1 19 -8 9z"/>
<path d="M2400 2277 c0 -7 -9 -32 -20 -54 -11 -22 -22 -59 -26 -82 -6 -39 -33
-90 -34 -63 0 24 -30 12 -35 -15 -12 -55 -28 -103 -36 -103 -5 0 -6 8 -2 18 5
14 3 15 -7 5 -8 -7 -15 -20 -16 -30 -6 -36 -36 -101 -49 -107 -9 -3 -15 -18
-15 -34 0 -16 -9 -37 -19 -46 -11 -10 -25 -31 -31 -47 -7 -16 -15 -29 -19 -29
-3 0 -12 -15 -20 -32 -7 -18 -19 -46 -26 -63 -7 -16 -16 -46 -20 -65 -7 -37
-14 -57 -60 -153 -15 -32 -24 -61 -21 -65 16 -15 169 66 244 130 18 15 37 28
43 28 13 0 33 20 41 42 4 9 23 22 43 29 23 9 34 18 30 27 -3 8 4 25 15 39 11
14 20 38 20 54 0 15 4 30 9 33 4 3 11 23 14 45 3 22 17 65 32 96 31 65 29 87
-5 95 -31 7 -41 57 -15 76 19 14 49 116 36 124 -15 10 -25 55 -22 108 2 41 -1
52 -13 52 -9 0 -16 -6 -16 -13z"/>
<path d="M982 2216 c-22 -12 -22 -12 13 -46 29 -28 38 -32 45 -20 7 11 13 12
35 2 36 -16 45 -15 45 7 0 37 -99 78 -138 57z"/>
<path d="M3620 2210 c-8 -5 -10 -10 -5 -10 6 0 17 5 25 10 8 5 11 10 5 10 -5
0 -17 -5 -25 -10z"/>
<path d="M2550 2088 c0 -41 0 -42 16 -20 9 13 13 31 9 42 -11 34 -25 22 -25
-22z"/>
<path d="M3132 1990 c0 -14 2 -19 5 -12 2 6 2 18 0 25 -3 6 -5 1 -5 -13z"/>
<path d="M2545 1870 c-8 -26 6 -43 31 -38 24 4 29 27 7 35 -10 3 -21 11 -24
16 -4 5 -10 0 -14 -13z"/>
<path d="M5940 1800 c0 -5 7 -7 15 -4 8 4 15 8 15 10 0 2 -7 4 -15 4 -8 0 -15
-4 -15 -10z"/>
<path d="M1338 833 c7 -3 16 -2 19 1 4 3 -2 6 -13 5 -11 0 -14 -3 -6 -6z"/>
<path d="M1758 598 c9 -9 15 -9 24 0 9 9 7 12 -12 12 -19 0 -21 -3 -12 -12z"/>
</g>
</svg>
