<svg xmlns="http://www.w3.org/2000/svg" xmlns:xlink="http://www.w3.org/1999/xlink" width="320" zoomAndPan="magnify" viewBox="0 0 240 149.999998" height="200" preserveAspectRatio="xMidYMid meet" version="1.0"><defs><clipPath id="d6954a20de"><path d="M 72.347656 18.449219 L 159.347656 18.449219 L 159.347656 107.699219 L 72.347656 107.699219 Z M 72.347656 18.449219 " clip-rule="nonzero"/></clipPath></defs><path fill="#000000" d="M 149.472656 69.445312 C 149.734375 69.492188 149.980469 69.585938 150.203125 69.730469 C 150.425781 69.875 150.617188 70.054688 150.769531 70.273438 C 150.921875 70.492188 151.027344 70.730469 151.082031 70.992188 C 151.140625 71.253906 151.148438 71.511719 151.101562 71.777344 C 151.054688 72.039062 150.960938 72.28125 150.816406 72.507812 C 150.671875 72.730469 150.492188 72.921875 150.273438 73.074219 C 150.054688 73.226562 149.816406 73.332031 149.558594 73.390625 C 149.296875 73.445312 149.035156 73.453125 148.773438 73.40625 C 148.511719 73.359375 148.269531 73.265625 148.042969 73.121094 C 147.820312 72.976562 147.628906 72.796875 147.476562 72.578125 C 147.324219 72.359375 147.21875 72.121094 147.164062 71.859375 C 147.105469 71.597656 147.101562 71.339844 147.144531 71.074219 C 147.191406 70.8125 147.289062 70.570312 147.429688 70.34375 C 147.574219 70.121094 147.753906 69.929688 147.972656 69.777344 C 148.191406 69.625 148.429688 69.519531 148.691406 69.460938 C 148.949219 69.40625 149.210938 69.398438 149.472656 69.445312 Z M 149.472656 69.445312 " fill-opacity="1" fill-rule="nonzero"/><g clip-path="url(#d6954a20de)"><path fill="#000000" d="M 159.148438 18.699219 C 159.015625 18.5625 158.832031 18.484375 158.640625 18.484375 L 139.632812 18.488281 C 139.414062 18.488281 139.207031 18.589844 139.074219 18.765625 C 138.941406 18.9375 138.894531 19.164062 138.953125 19.378906 L 148.542969 55.464844 C 148.988281 57.136719 148.980469 58.902344 148.527344 60.570312 L 146.898438 66.554688 L 141.6875 69.863281 C 140.074219 69.222656 138.632812 68.707031 137.382812 68.324219 L 137.382812 58.660156 C 137.382812 58.269531 137.066406 57.953125 136.675781 57.953125 L 116.492188 57.953125 L 113.601562 53.617188 L 113.601562 50.882812 C 113.601562 49.972656 113.015625 49.195312 112.207031 48.90625 L 112.207031 46.398438 C 112.207031 44.804688 110.910156 43.503906 109.3125 43.503906 C 107.71875 43.503906 106.421875 44.804688 106.421875 46.398438 L 106.421875 48.90625 C 105.609375 49.195312 105.027344 49.972656 105.027344 50.882812 L 105.027344 53.617188 L 102.132812 57.953125 L 96.109375 57.953125 C 97.546875 56.789062 98.46875 55.007812 98.46875 53.011719 C 98.46875 51.167969 97.683594 48.796875 96.511719 46.984375 C 97.109375 46.507812 97.492188 45.773438 97.492188 44.949219 L 97.492188 32.59375 C 97.492188 31.15625 96.324219 29.984375 94.886719 29.984375 L 73.054688 29.984375 C 72.664062 29.984375 72.347656 30.300781 72.347656 30.691406 L 72.347656 46.847656 C 72.347656 47.238281 72.664062 47.558594 73.054688 47.558594 L 74.972656 47.558594 L 77.230469 50.140625 L 77.230469 53.910156 C 77.230469 55.496094 78.523438 56.789062 80.109375 56.789062 C 81.695312 56.789062 82.984375 55.496094 82.984375 53.910156 L 82.984375 50.777344 L 84.242188 49.675781 C 84.535156 49.417969 84.566406 48.96875 84.308594 48.675781 L 83.332031 47.558594 L 87.382812 47.558594 C 86.410156 49.277344 85.773438 51.367188 85.773438 53.011719 C 85.773438 55.003906 86.695312 56.785156 88.132812 57.953125 L 82.667969 57.953125 C 82.277344 57.953125 81.960938 58.269531 81.960938 58.660156 L 81.960938 63.171875 C 80.167969 63.21875 78.433594 63.914062 77.109375 65.144531 C 75.59375 66.546875 74.726562 68.53125 74.726562 70.597656 L 74.726562 83.625 C 74.726562 87.351562 77.757812 90.386719 81.480469 90.386719 L 83.648438 90.386719 L 83.648438 96.507812 C 80.488281 96.800781 77.816406 99.050781 77.015625 102.179688 L 75.839844 106.777344 C 75.785156 106.988281 75.832031 107.214844 75.964844 107.386719 C 76.097656 107.558594 76.304688 107.660156 76.523438 107.660156 L 141.765625 107.660156 C 141.984375 107.660156 142.1875 107.558594 142.324219 107.386719 C 142.457031 107.214844 142.503906 106.988281 142.449219 106.777344 L 141.273438 102.179688 C 140.472656 99.050781 137.800781 96.800781 134.636719 96.507812 L 134.636719 90.386719 L 138.949219 90.386719 C 143.316406 90.386719 146.871094 86.828125 146.871094 82.453125 L 146.871094 76.324219 L 153.105469 78.160156 C 153.363281 78.234375 153.628906 78.273438 153.886719 78.273438 C 154.664062 78.273438 155.40625 77.9375 155.9375 77.324219 C 156.644531 76.5 156.800781 75.378906 156.34375 74.394531 L 153.53125 68.3125 L 155.144531 62.378906 C 155.917969 59.542969 155.925781 56.539062 155.171875 53.699219 L 152.210938 42.566406 L 154.558594 41.394531 C 157.171875 40.089844 158.84375 37.464844 158.925781 34.539062 L 159.347656 19.214844 C 159.351562 19.023438 159.28125 18.835938 159.148438 18.699219 Z M 154.023438 19.902344 L 153.625 34.394531 C 153.597656 35.351562 153.046875 36.214844 152.191406 36.644531 L 150.820312 37.328125 L 146.1875 19.902344 Z M 107.835938 46.398438 C 107.835938 45.582031 108.5 44.917969 109.3125 44.917969 C 110.128906 44.917969 110.792969 45.582031 110.792969 46.398438 L 110.792969 48.78125 L 107.835938 48.78125 Z M 106.113281 54.539062 L 112.515625 54.539062 L 114.792969 57.953125 L 103.835938 57.953125 Z M 80.175781 51.359375 L 76.851562 47.558594 L 81.453125 47.558594 L 82.777344 49.074219 Z M 87.1875 53.011719 C 87.1875 51.386719 87.957031 49.152344 89.046875 47.558594 L 95.183594 47.539062 C 96.28125 49.136719 97.054688 51.371094 97.054688 53.011719 C 97.054688 55.738281 94.84375 57.953125 92.121094 57.953125 C 89.402344 57.953125 87.1875 55.738281 87.1875 53.011719 Z M 139.902344 102.53125 L 140.855469 106.246094 L 77.433594 106.246094 L 78.386719 102.53125 C 79.082031 99.796875 81.539062 97.886719 84.355469 97.886719 L 133.929688 97.886719 C 136.75 97.886719 139.203125 99.796875 139.902344 102.53125 Z M 145.457031 82.453125 C 145.457031 86.046875 142.539062 88.972656 138.949219 88.972656 L 135.90625 88.972656 C 138.109375 86.886719 139.894531 84.542969 141.222656 81.992188 C 141.402344 81.644531 141.265625 81.21875 140.921875 81.035156 C 140.574219 80.855469 140.148438 80.988281 139.96875 81.335938 C 138.488281 84.175781 136.410156 86.742188 133.789062 88.972656 L 127.144531 88.972656 C 129.347656 86.882812 131.132812 84.542969 132.460938 81.992188 C 132.640625 81.644531 132.503906 81.214844 132.160156 81.035156 C 131.8125 80.855469 131.386719 80.988281 131.207031 81.335938 C 129.730469 84.175781 127.648438 86.742188 125.027344 88.972656 L 118.382812 88.972656 C 120.585938 86.882812 122.371094 84.542969 123.699219 81.992188 C 123.878906 81.644531 123.742188 81.214844 123.398438 81.035156 C 123.050781 80.855469 122.625 80.988281 122.445312 81.335938 C 120.96875 84.175781 118.886719 86.742188 116.265625 88.972656 L 109.621094 88.972656 C 111.824219 86.882812 113.609375 84.542969 114.9375 81.992188 C 115.117188 81.644531 114.980469 81.214844 114.636719 81.035156 C 114.289062 80.855469 113.863281 80.988281 113.683594 81.335938 C 112.207031 84.175781 110.125 86.742188 107.503906 88.972656 L 100.859375 88.972656 C 103.0625 86.882812 104.847656 84.542969 106.175781 81.988281 C 106.355469 81.644531 106.222656 81.214844 105.875 81.035156 C 105.527344 80.855469 105.101562 80.988281 104.921875 81.335938 C 103.445312 84.175781 101.363281 86.742188 98.742188 88.972656 L 92.097656 88.972656 C 94.300781 86.882812 96.085938 84.542969 97.414062 81.988281 C 97.59375 81.644531 97.460938 81.214844 97.113281 81.035156 C 96.765625 80.855469 96.339844 80.988281 96.160156 81.335938 C 94.683594 84.175781 92.605469 86.742188 89.980469 88.972656 L 83.339844 88.972656 C 85.539062 86.882812 87.324219 84.542969 88.652344 81.988281 C 88.832031 81.644531 88.699219 81.214844 88.351562 81.035156 C 88.003906 80.855469 87.578125 80.988281 87.398438 81.335938 C 85.921875 84.171875 83.847656 86.738281 81.226562 88.964844 C 78.398438 88.832031 76.140625 86.488281 76.140625 83.621094 L 76.140625 70.597656 C 76.140625 68.902344 76.824219 67.332031 78.066406 66.179688 C 79.132812 65.195312 80.472656 64.640625 81.898438 64.585938 C 84.25 66.996094 85.722656 69.214844 86.9375 72.175781 C 87.136719 72.5625 87.453125 72.675781 87.859375 72.5625 C 88.21875 72.414062 88.394531 72 88.246094 71.636719 C 87.160156 68.992188 85.832031 66.84375 83.9375 64.703125 C 85.761719 64.847656 87.828125 65.007812 90.0625 65.1875 C 92.457031 67.394531 94.207031 69.902344 95.414062 72.84375 C 95.605469 73.195312 95.910156 73.328125 96.335938 73.230469 C 96.699219 73.082031 96.871094 72.667969 96.722656 72.304688 C 95.652344 69.695312 94.179688 67.410156 92.25 65.359375 C 94.347656 65.527344 96.554688 65.703125 98.820312 65.882812 C 101.164062 68.277344 102.6875 70.574219 103.894531 73.511719 C 104.097656 73.863281 104.40625 73.992188 104.816406 73.894531 C 105.175781 73.746094 105.347656 73.332031 105.199219 72.972656 C 104.117188 70.332031 102.792969 68.183594 100.910156 66.050781 C 103.027344 66.222656 105.175781 66.394531 107.3125 66.570312 C 109.675781 68.988281 111.152344 71.207031 112.371094 74.175781 C 112.589844 74.515625 112.894531 74.652344 113.292969 74.5625 C 113.652344 74.414062 113.828125 74 113.679688 73.640625 C 112.597656 71.007812 111.28125 68.871094 109.402344 66.742188 C 111.578125 66.921875 113.726562 67.101562 115.792969 67.273438 C 118.171875 69.703125 119.648438 71.914062 120.847656 74.84375 C 121.0625 75.222656 121.367188 75.355469 121.769531 75.230469 C 122.132812 75.082031 122.304688 74.667969 122.15625 74.304688 C 121.074219 71.671875 119.789062 69.589844 117.894531 67.453125 C 120.042969 67.636719 122.082031 67.8125 123.953125 67.980469 C 126.371094 70.429688 128.121094 72.574219 129.328125 75.511719 C 129.515625 75.828125 129.8125 75.976562 130.25 75.894531 C 130.609375 75.746094 130.78125 75.335938 130.632812 74.972656 C 129.550781 72.332031 128.023438 70.257812 126.09375 68.171875 C 129.574219 68.488281 132.273438 68.753906 133.707031 68.9375 C 135.8125 71.117188 136.816406 72.894531 137.78125 76.113281 C 138.027344 76.574219 138.328125 76.675781 138.660156 76.585938 C 139.035156 76.472656 139.246094 76.078125 139.132812 75.707031 C 138.324219 73 137.453125 71.191406 136.007812 69.398438 C 137.273438 69.742188 138.8125 70.261719 140.558594 70.9375 C 140.253906 71.453125 140.125 72.066406 140.214844 72.695312 C 140.367188 73.769531 141.105469 74.628906 142.144531 74.933594 L 145.457031 75.910156 Z M 155.0625 74.988281 C 155.285156 75.46875 155.210938 75.996094 154.867188 76.398438 C 154.519531 76.800781 154.011719 76.953125 153.503906 76.800781 L 142.542969 73.578125 C 142.035156 73.425781 141.6875 73.023438 141.613281 72.5 C 141.539062 71.972656 141.765625 71.492188 142.210938 71.207031 L 148.804688 67.019531 C 149.136719 66.808594 149.519531 66.699219 149.910156 66.699219 C 150.101562 66.699219 150.300781 66.726562 150.488281 66.78125 C 151.058594 66.949219 151.53125 67.355469 151.78125 67.894531 Z M 157.511719 34.5 C 157.445312 36.902344 156.070312 39.058594 153.925781 40.128906 L 151.839844 41.171875 L 151.191406 38.726562 L 152.820312 37.910156 C 154.148438 37.25 154.996094 35.917969 155.039062 34.433594 L 155.4375 19.902344 L 157.914062 19.902344 Z M 157.511719 34.5 " fill-opacity="1" fill-rule="nonzero"/></g><path fill="#000000" d="M 92.121094 55.890625 C 93.707031 55.890625 94.996094 54.597656 94.996094 53.011719 C 94.996094 51.425781 93.707031 50.132812 92.121094 50.132812 C 90.539062 50.132812 89.246094 51.425781 89.246094 53.011719 C 89.246094 54.597656 90.539062 55.890625 92.121094 55.890625 Z M 92.121094 55.890625 " fill-opacity="1" fill-rule="nonzero"/></svg>